<svg width="127" height="48" viewBox="0 0 127 48" fill="none" xmlns="http://www.w3.org/2000/svg">
<rect x="0.5" y="0.5" width="126" height="47" rx="11.5" stroke="#2D2931" stroke-dasharray="4 4"/>
<path d="M33.8864 29.5H32.4091L36.6818 17.8636H38.1364L42.4091 29.5H40.9318L37.4545 19.7045H37.3636L33.8864 29.5ZM34.4318 24.9545H40.3864V26.2045H34.4318V24.9545ZM47.3352 29.6818C46.608 29.6818 45.9659 29.4981 45.4091 29.1307C44.8523 28.7595 44.4167 28.2367 44.1023 27.5625C43.7879 26.8845 43.6307 26.0833 43.6307 25.1591C43.6307 24.2424 43.7879 23.447 44.1023 22.7727C44.4167 22.0985 44.8542 21.5777 45.4148 21.2102C45.9754 20.8428 46.6231 20.6591 47.358 20.6591C47.9261 20.6591 48.375 20.7538 48.7045 20.9432C49.0379 21.1288 49.2917 21.3409 49.4659 21.5795C49.6439 21.8144 49.7822 22.0076 49.8807 22.1591H49.9943V17.8636H51.3352V29.5H50.0398V28.1591H49.8807C49.7822 28.3182 49.642 28.5189 49.4602 28.7614C49.2784 29 49.0189 29.214 48.6818 29.4034C48.3447 29.589 47.8958 29.6818 47.3352 29.6818ZM47.517 28.4773C48.0549 28.4773 48.5095 28.3371 48.8807 28.0568C49.2519 27.7727 49.5341 27.3807 49.7273 26.8807C49.9205 26.3769 50.017 25.7955 50.017 25.1364C50.017 24.4848 49.9223 23.9148 49.733 23.4261C49.5436 22.9337 49.2633 22.5511 48.892 22.2784C48.5208 22.0019 48.0625 21.8636 47.517 21.8636C46.9489 21.8636 46.4754 22.0095 46.0966 22.3011C45.7216 22.589 45.4394 22.9811 45.25 23.4773C45.0644 23.9697 44.9716 24.5227 44.9716 25.1364C44.9716 25.7576 45.0663 26.322 45.2557 26.8295C45.4489 27.3333 45.733 27.7348 46.108 28.0341C46.4867 28.3295 46.9564 28.4773 47.517 28.4773ZM57.2727 29.6818C56.5455 29.6818 55.9034 29.4981 55.3466 29.1307C54.7898 28.7595 54.3542 28.2367 54.0398 27.5625C53.7254 26.8845 53.5682 26.0833 53.5682 25.1591C53.5682 24.2424 53.7254 23.447 54.0398 22.7727C54.3542 22.0985 54.7917 21.5777 55.3523 21.2102C55.9129 20.8428 56.5606 20.6591 57.2955 20.6591C57.8636 20.6591 58.3125 20.7538 58.642 20.9432C58.9754 21.1288 59.2292 21.3409 59.4034 21.5795C59.5814 21.8144 59.7197 22.0076 59.8182 22.1591H59.9318V17.8636H61.2727V29.5H59.9773V28.1591H59.8182C59.7197 28.3182 59.5795 28.5189 59.3977 28.7614C59.2159 29 58.9564 29.214 58.6193 29.4034C58.2822 29.589 57.8333 29.6818 57.2727 29.6818ZM57.4545 28.4773C57.9924 28.4773 58.447 28.3371 58.8182 28.0568C59.1894 27.7727 59.4716 27.3807 59.6648 26.8807C59.858 26.3769 59.9545 25.7955 59.9545 25.1364C59.9545 24.4848 59.8598 23.9148 59.6705 23.4261C59.4811 22.9337 59.2008 22.5511 58.8295 22.2784C58.4583 22.0019 58 21.8636 57.4545 21.8636C56.8864 21.8636 56.4129 22.0095 56.0341 22.3011C55.6591 22.589 55.3769 22.9811 55.1875 23.4773C55.0019 23.9697 54.9091 24.5227 54.9091 25.1364C54.9091 25.7576 55.0038 26.322 55.1932 26.8295C55.3864 27.3333 55.6705 27.7348 56.0455 28.0341C56.4242 28.3295 56.8939 28.4773 57.4545 28.4773Z" fill="#2D2931"/>
<rect x="71.5" y="12.5" width="23" height="23" rx="11.5" stroke="black"/>
<path d="M90 24.0001L83 24.0001M83 24.0001L76 24.0001M83 24.0001L83 17M83 24.0001L83 31" stroke="#2D2931" stroke-width="1.5" stroke-linecap="round"/>
</svg>
