<svg width="38" height="38" viewBox="0 0 38 38" fill="none" xmlns="http://www.w3.org/2000/svg">
<rect width="38" height="38" rx="8" fill="#D1FCD5"/>
<path d="M19 17.2434C18.5131 17.2434 18.1094 16.8397 18.1094 16.3528V12.3984C18.1094 11.9116 18.5131 11.5078 19 11.5078C19.4869 11.5078 19.8906 11.9116 19.8906 12.3984V16.3528C19.8906 16.8516 19.4869 17.2434 19 17.2434Z" fill="#292D32"/>
<path d="M19.0238 28.9158C15.96 28.9158 12.9082 28.4289 9.99878 27.4552C8.91815 27.0989 8.09878 26.327 7.74253 25.3533C7.38628 24.3795 7.50503 23.2633 8.0869 22.2895L9.59503 19.772C9.92753 19.2139 10.2244 18.1689 10.2244 17.5158V15.022C10.2244 10.1652 14.1669 6.22266 19.0238 6.22266C23.8807 6.22266 27.8232 10.1652 27.8232 15.022V17.5158C27.8232 18.157 28.12 19.2139 28.4525 19.772L29.9606 22.2895C30.5188 23.2158 30.6138 24.3202 30.2456 25.3295C29.8775 26.3389 29.07 27.1108 28.0488 27.4552C25.1394 28.4408 22.0875 28.9158 19.0238 28.9158ZM19.0238 8.01578C15.1525 8.01578 12.0057 11.1627 12.0057 15.0339V17.5277C12.0057 18.4895 11.6256 19.8789 11.1269 20.6983L9.61878 23.2277C9.31003 23.7383 9.23878 24.2845 9.4169 24.7595C9.59503 25.2345 9.99878 25.5908 10.5688 25.7808C16.0313 27.5977 22.04 27.5977 27.5025 25.7808C28.0131 25.6145 28.405 25.2345 28.5831 24.7358C28.7731 24.237 28.7138 23.6908 28.4407 23.2277L26.9325 20.7102C26.4338 19.8908 26.0538 18.5014 26.0538 17.5395V15.0458C26.0419 11.1627 22.895 8.01578 19.0238 8.01578Z" fill="#292D32"/>
<path d="M19.0003 31.9446C17.7296 31.9446 16.4828 31.4221 15.5803 30.5196C14.6778 29.6171 14.1553 28.3702 14.1553 27.0996H15.9365C15.9365 27.9071 16.269 28.6909 16.839 29.2609C17.409 29.8309 18.1928 30.1634 19.0003 30.1634C20.6865 30.1634 22.064 28.7859 22.064 27.0996H23.8453C23.8453 29.7715 21.6721 31.9446 19.0003 31.9446Z" fill="#292D32"/>
</svg>
