<svg width="16" height="12" viewBox="0 0 16 12" fill="none" xmlns="http://www.w3.org/2000/svg">
<path d="M6.93966 1.72414C7.33959 1.34325 7.35502 0.710275 6.97414 0.310345C6.59325 -0.0895855 5.96028 -0.105024 5.56034 0.275862L6.93966 1.72414ZM0.310345 5.27586C-0.0895855 5.65675 -0.105024 6.28972 0.275862 6.68966C0.656748 7.08959 1.28972 7.10502 1.68966 6.72414L0.310345 5.27586ZM1.68966 5.27586C1.28972 4.89498 0.656748 4.91041 0.275862 5.31034C-0.105024 5.71028 -0.0895855 6.34325 0.310345 6.72414L1.68966 5.27586ZM5.56034 11.7241C5.96028 12.105 6.59325 12.0896 6.97414 11.6897C7.35502 11.2897 7.33959 10.6567 6.93966 10.2759L5.56034 11.7241ZM1 5C0.447715 5 0 5.44772 0 6C0 6.55228 0.447715 7 1 7V5ZM15 7C15.5523 7 16 6.55228 16 6C16 5.44772 15.5523 5 15 5V7ZM5.56034 0.275862L0.310345 5.27586L1.68966 6.72414L6.93966 1.72414L5.56034 0.275862ZM0.310345 6.72414L5.56034 11.7241L6.93966 10.2759L1.68966 5.27586L0.310345 6.72414ZM1 7H15V5H1V7Z" fill="black"/>
</svg>
