<svg width="205" height="48" viewBox="0 0 205 48" fill="none" xmlns="http://www.w3.org/2000/svg">
<rect y="0.5" width="205" height="47" rx="6" fill="#2D2931"/>
<path d="M42.9432 21.6477H41.1705C41.1023 21.2689 40.9754 20.9356 40.7898 20.6477C40.6042 20.3598 40.3769 20.1155 40.108 19.9148C39.839 19.714 39.5379 19.5625 39.2045 19.4602C38.875 19.358 38.5246 19.3068 38.1534 19.3068C37.483 19.3068 36.8826 19.4754 36.3523 19.8125C35.8258 20.1496 35.4091 20.6439 35.1023 21.2955C34.7992 21.947 34.6477 22.7424 34.6477 23.6818C34.6477 24.6288 34.7992 25.428 35.1023 26.0795C35.4091 26.7311 35.8277 27.2235 36.358 27.5568C36.8883 27.8902 37.4848 28.0568 38.1477 28.0568C38.5152 28.0568 38.8636 28.0076 39.1932 27.9091C39.5265 27.8068 39.8277 27.6572 40.0966 27.4602C40.3655 27.2633 40.5928 27.0227 40.7784 26.7386C40.9678 26.4508 41.0985 26.1212 41.1705 25.75L42.9432 25.7557C42.8485 26.3277 42.6648 26.8542 42.392 27.3352C42.1231 27.8125 41.7765 28.2254 41.3523 28.5739C40.9318 28.9186 40.4508 29.1856 39.9091 29.375C39.3674 29.5644 38.7765 29.6591 38.1364 29.6591C37.1288 29.6591 36.2311 29.4205 35.4432 28.9432C34.6553 28.4621 34.0341 27.7746 33.5795 26.8807C33.1288 25.9867 32.9034 24.9205 32.9034 23.6818C32.9034 22.4394 33.1307 21.3731 33.5852 20.483C34.0398 19.589 34.661 18.9034 35.4489 18.4261C36.2367 17.9451 37.1326 17.7045 38.1364 17.7045C38.7538 17.7045 39.3295 17.7936 39.8636 17.9716C40.4015 18.1458 40.8845 18.4034 41.3125 18.7443C41.7405 19.0814 42.0947 19.4943 42.375 19.983C42.6553 20.4678 42.8447 21.0227 42.9432 21.6477ZM46.6065 17.8636V29.5H44.9077V17.8636H46.6065ZM52.5682 29.6761C51.75 29.6761 51.036 29.4886 50.4261 29.1136C49.8163 28.7386 49.3428 28.214 49.0057 27.5398C48.6686 26.8655 48.5 26.0777 48.5 25.1761C48.5 24.2708 48.6686 23.4792 49.0057 22.8011C49.3428 22.1231 49.8163 21.5966 50.4261 21.2216C51.036 20.8466 51.75 20.6591 52.5682 20.6591C53.3864 20.6591 54.1004 20.8466 54.7102 21.2216C55.3201 21.5966 55.7936 22.1231 56.1307 22.8011C56.4678 23.4792 56.6364 24.2708 56.6364 25.1761C56.6364 26.0777 56.4678 26.8655 56.1307 27.5398C55.7936 28.214 55.3201 28.7386 54.7102 29.1136C54.1004 29.4886 53.3864 29.6761 52.5682 29.6761ZM52.5739 28.25C53.1042 28.25 53.5436 28.1098 53.892 27.8295C54.2405 27.5492 54.4981 27.1761 54.6648 26.7102C54.8352 26.2443 54.9205 25.7311 54.9205 25.1705C54.9205 24.6136 54.8352 24.1023 54.6648 23.6364C54.4981 23.1667 54.2405 22.7898 53.892 22.5057C53.5436 22.2216 53.1042 22.0795 52.5739 22.0795C52.0398 22.0795 51.5966 22.2216 51.2443 22.5057C50.8958 22.7898 50.6364 23.1667 50.4659 23.6364C50.2992 24.1023 50.2159 24.6136 50.2159 25.1705C50.2159 25.7311 50.2992 26.2443 50.4659 26.7102C50.6364 27.1761 50.8958 27.5492 51.2443 27.8295C51.5966 28.1098 52.0398 28.25 52.5739 28.25ZM65.0724 22.9034L63.5327 23.1761C63.4683 22.9792 63.366 22.7917 63.2259 22.6136C63.0895 22.4356 62.9039 22.2898 62.669 22.1761C62.4342 22.0625 62.1406 22.0057 61.7884 22.0057C61.3073 22.0057 60.9058 22.1136 60.5838 22.3295C60.2618 22.5417 60.1009 22.8163 60.1009 23.1534C60.1009 23.4451 60.2088 23.6799 60.4247 23.858C60.6406 24.036 60.9891 24.1818 61.4702 24.2955L62.8565 24.6136C63.6596 24.7992 64.258 25.0852 64.652 25.4716C65.0459 25.858 65.2429 26.3598 65.2429 26.9773C65.2429 27.5 65.0914 27.9659 64.7884 28.375C64.4891 28.7803 64.0705 29.0985 63.5327 29.3295C62.9986 29.5606 62.3793 29.6761 61.6747 29.6761C60.6974 29.6761 59.9001 29.4678 59.2827 29.0511C58.6652 28.6307 58.2865 28.0341 58.1463 27.2614L59.7884 27.0114C59.8906 27.4394 60.1009 27.7633 60.419 27.983C60.7372 28.1989 61.152 28.3068 61.6634 28.3068C62.2202 28.3068 62.6652 28.1913 62.9986 27.9602C63.3319 27.7254 63.4986 27.4394 63.4986 27.1023C63.4986 26.8295 63.3963 26.6004 63.1918 26.4148C62.991 26.2292 62.6823 26.089 62.2656 25.9943L60.7884 25.6705C59.974 25.4848 59.3717 25.1894 58.9815 24.7841C58.5952 24.3788 58.402 23.8655 58.402 23.2443C58.402 22.7292 58.5459 22.2784 58.8338 21.892C59.1217 21.5057 59.5194 21.2045 60.027 20.9886C60.5346 20.7689 61.116 20.6591 61.7713 20.6591C62.7145 20.6591 63.4569 20.8636 63.9986 21.2727C64.5402 21.678 64.8982 22.2216 65.0724 22.9034ZM70.8722 29.6761C70.0123 29.6761 69.2718 29.4924 68.6506 29.125C68.0331 28.7538 67.5559 28.233 67.2188 27.5625C66.8854 26.8883 66.7188 26.0985 66.7188 25.1932C66.7188 24.2992 66.8854 23.5114 67.2188 22.8295C67.5559 22.1477 68.0256 21.6155 68.6278 21.233C69.2339 20.8504 69.9422 20.6591 70.7528 20.6591C71.2453 20.6591 71.7225 20.7405 72.1847 20.9034C72.6468 21.0663 73.0616 21.322 73.429 21.6705C73.7964 22.0189 74.0862 22.4716 74.2983 23.0284C74.5104 23.5814 74.6165 24.2538 74.6165 25.0455V25.6477H67.679V24.375H72.9517C72.9517 23.928 72.8608 23.5322 72.679 23.1875C72.4972 22.839 72.2415 22.5644 71.9119 22.3636C71.5862 22.1629 71.2036 22.0625 70.7642 22.0625C70.2869 22.0625 69.8703 22.1799 69.5142 22.4148C69.1619 22.6458 68.8892 22.9489 68.696 23.3239C68.5066 23.6951 68.4119 24.0985 68.4119 24.5341V25.5284C68.4119 26.1117 68.5142 26.608 68.7188 27.017C68.9271 27.4261 69.2169 27.7386 69.5881 27.9545C69.9593 28.1667 70.393 28.2727 70.8892 28.2727C71.2112 28.2727 71.5047 28.2273 71.7699 28.1364C72.035 28.0417 72.2642 27.9015 72.4574 27.7159C72.6506 27.5303 72.7983 27.3011 72.9006 27.0284L74.5085 27.3182C74.3797 27.7917 74.1487 28.2064 73.8153 28.5625C73.4858 28.9148 73.071 29.1894 72.571 29.3864C72.0748 29.5795 71.5085 29.6761 70.8722 29.6761ZM90.5369 21.6477H88.7642C88.696 21.2689 88.5691 20.9356 88.3835 20.6477C88.1979 20.3598 87.9706 20.1155 87.7017 19.9148C87.4328 19.714 87.1316 19.5625 86.7983 19.4602C86.4688 19.358 86.1184 19.3068 85.7472 19.3068C85.0767 19.3068 84.4763 19.4754 83.946 19.8125C83.4195 20.1496 83.0028 20.6439 82.696 21.2955C82.393 21.947 82.2415 22.7424 82.2415 23.6818C82.2415 24.6288 82.393 25.428 82.696 26.0795C83.0028 26.7311 83.4214 27.2235 83.9517 27.5568C84.482 27.8902 85.0786 28.0568 85.7415 28.0568C86.1089 28.0568 86.4574 28.0076 86.7869 27.9091C87.1203 27.8068 87.4214 27.6572 87.6903 27.4602C87.9593 27.2633 88.1866 27.0227 88.3722 26.7386C88.5616 26.4508 88.6922 26.1212 88.7642 25.75L90.5369 25.7557C90.4422 26.3277 90.2585 26.8542 89.9858 27.3352C89.7169 27.8125 89.3703 28.2254 88.946 28.5739C88.5256 28.9186 88.0445 29.1856 87.5028 29.375C86.9612 29.5644 86.3703 29.6591 85.7301 29.6591C84.7225 29.6591 83.8248 29.4205 83.0369 28.9432C82.2491 28.4621 81.6278 27.7746 81.1733 26.8807C80.7225 25.9867 80.4972 24.9205 80.4972 23.6818C80.4972 22.4394 80.7244 21.3731 81.179 20.483C81.6335 19.589 82.2547 18.9034 83.0426 18.4261C83.8305 17.9451 84.7263 17.7045 85.7301 17.7045C86.3475 17.7045 86.9233 17.7936 87.4574 17.9716C87.9953 18.1458 88.4782 18.4034 88.9062 18.7443C89.3343 19.0814 89.6884 19.4943 89.9688 19.983C90.2491 20.4678 90.4384 21.0227 90.5369 21.6477ZM95.0412 29.6932C94.4882 29.6932 93.9882 29.5909 93.5412 29.3864C93.0942 29.178 92.7401 28.8769 92.4787 28.483C92.2211 28.089 92.0923 27.6061 92.0923 27.0341C92.0923 26.5417 92.187 26.1364 92.3764 25.8182C92.5658 25.5 92.8215 25.2481 93.1435 25.0625C93.4654 24.8769 93.8253 24.7367 94.223 24.642C94.6207 24.5473 95.026 24.4754 95.4389 24.4261C95.9616 24.3655 96.3859 24.3163 96.7116 24.2784C97.0374 24.2367 97.2741 24.1705 97.4219 24.0795C97.5696 23.9886 97.6435 23.8409 97.6435 23.6364V23.5966C97.6435 23.1004 97.5033 22.7159 97.223 22.4432C96.9465 22.1705 96.5336 22.0341 95.9844 22.0341C95.4124 22.0341 94.9616 22.161 94.6321 22.4148C94.3063 22.6648 94.081 22.9432 93.956 23.25L92.3594 22.8864C92.5488 22.3561 92.8253 21.928 93.1889 21.6023C93.5563 21.2727 93.9787 21.0341 94.456 20.8864C94.9332 20.7348 95.4351 20.6591 95.9616 20.6591C96.3101 20.6591 96.6795 20.7008 97.0696 20.7841C97.4635 20.8636 97.831 21.0114 98.1719 21.2273C98.5166 21.4432 98.7988 21.7519 99.0185 22.1534C99.2382 22.5511 99.348 23.0682 99.348 23.7045V29.5H97.6889V28.3068H97.6207C97.5109 28.5265 97.3461 28.7424 97.1264 28.9545C96.9067 29.1667 96.6245 29.3428 96.2798 29.483C95.9351 29.6231 95.5223 29.6932 95.0412 29.6932ZM95.4105 28.3295C95.8802 28.3295 96.2817 28.2367 96.6151 28.0511C96.9522 27.8655 97.2079 27.6231 97.3821 27.3239C97.5601 27.0208 97.6491 26.697 97.6491 26.3523V25.2273C97.5885 25.2879 97.4711 25.3447 97.2969 25.3977C97.1264 25.447 96.9313 25.4905 96.7116 25.5284C96.492 25.5625 96.2779 25.5947 96.0696 25.625C95.8613 25.6515 95.687 25.6742 95.5469 25.6932C95.2173 25.7348 94.9162 25.8049 94.6435 25.9034C94.3745 26.0019 94.1586 26.1439 93.9957 26.3295C93.8366 26.5114 93.7571 26.7538 93.7571 27.0568C93.7571 27.4773 93.9124 27.7955 94.223 28.0114C94.5336 28.2235 94.9295 28.3295 95.4105 28.3295ZM103.31 17.8636V29.5H101.611V17.8636H103.31ZM109.357 29.6761C108.497 29.6761 107.756 29.4924 107.135 29.125C106.518 28.7538 106.04 28.233 105.703 27.5625C105.37 26.8883 105.203 26.0985 105.203 25.1932C105.203 24.2992 105.37 23.5114 105.703 22.8295C106.04 22.1477 106.51 21.6155 107.112 21.233C107.718 20.8504 108.427 20.6591 109.237 20.6591C109.73 20.6591 110.207 20.7405 110.669 20.9034C111.131 21.0663 111.546 21.322 111.913 21.6705C112.281 22.0189 112.571 22.4716 112.783 23.0284C112.995 23.5814 113.101 24.2538 113.101 25.0455V25.6477H106.163V24.375H111.436C111.436 23.928 111.345 23.5322 111.163 23.1875C110.982 22.839 110.726 22.5644 110.396 22.3636C110.071 22.1629 109.688 22.0625 109.249 22.0625C108.771 22.0625 108.355 22.1799 107.999 22.4148C107.646 22.6458 107.374 22.9489 107.18 23.3239C106.991 23.6951 106.896 24.0985 106.896 24.5341V25.5284C106.896 26.1117 106.999 26.608 107.203 27.017C107.411 27.4261 107.701 27.7386 108.072 27.9545C108.444 28.1667 108.877 28.2727 109.374 28.2727C109.696 28.2727 109.989 28.2273 110.254 28.1364C110.519 28.0417 110.749 27.9015 110.942 27.7159C111.135 27.5303 111.283 27.3011 111.385 27.0284L112.993 27.3182C112.864 27.7917 112.633 28.2064 112.3 28.5625C111.97 28.9148 111.555 29.1894 111.055 29.3864C110.559 29.5795 109.993 29.6761 109.357 29.6761ZM116.685 24.3182V29.5H114.986V20.7727H116.616V22.1932H116.724C116.925 21.7311 117.24 21.3598 117.668 21.0795C118.099 20.7992 118.643 20.6591 119.298 20.6591C119.893 20.6591 120.414 20.7841 120.861 21.0341C121.308 21.2803 121.654 21.6477 121.901 22.1364C122.147 22.625 122.27 23.2292 122.27 23.9489V29.5H120.571V24.1534C120.571 23.5208 120.406 23.0265 120.077 22.6705C119.747 22.3106 119.295 22.1307 118.719 22.1307C118.325 22.1307 117.974 22.2159 117.668 22.3864C117.365 22.5568 117.124 22.8068 116.946 23.1364C116.772 23.4621 116.685 23.8561 116.685 24.3182ZM127.815 29.6705C127.111 29.6705 126.482 29.4905 125.929 29.1307C125.38 28.767 124.948 28.25 124.634 27.5795C124.323 26.9053 124.168 26.0966 124.168 25.1534C124.168 24.2102 124.325 23.4034 124.639 22.733C124.957 22.0625 125.393 21.5492 125.946 21.1932C126.499 20.8371 127.126 20.6591 127.827 20.6591C128.368 20.6591 128.804 20.75 129.134 20.9318C129.467 21.1098 129.724 21.3182 129.906 21.5568C130.092 21.7955 130.236 22.0057 130.338 22.1875H130.44V17.8636H132.139V29.5H130.48V28.142H130.338C130.236 28.3277 130.088 28.5398 129.895 28.7784C129.705 29.017 129.444 29.2254 129.111 29.4034C128.777 29.5814 128.346 29.6705 127.815 29.6705ZM128.19 28.2216C128.679 28.2216 129.092 28.0928 129.429 27.8352C129.77 27.5739 130.027 27.2121 130.202 26.75C130.38 26.2879 130.469 25.75 130.469 25.1364C130.469 24.5303 130.382 24 130.207 23.5455C130.033 23.0909 129.777 22.7367 129.44 22.483C129.103 22.2292 128.687 22.1023 128.19 22.1023C127.679 22.1023 127.253 22.2348 126.912 22.5C126.571 22.7652 126.313 23.1269 126.139 23.5852C125.969 24.0436 125.884 24.5606 125.884 25.1364C125.884 25.7197 125.971 26.2443 126.145 26.7102C126.319 27.1761 126.577 27.5455 126.918 27.8182C127.262 28.0871 127.687 28.2216 128.19 28.2216ZM137.104 29.6932C136.551 29.6932 136.051 29.5909 135.604 29.3864C135.157 29.178 134.803 28.8769 134.541 28.483C134.284 28.089 134.155 27.6061 134.155 27.0341C134.155 26.5417 134.25 26.1364 134.439 25.8182C134.628 25.5 134.884 25.2481 135.206 25.0625C135.528 24.8769 135.888 24.7367 136.286 24.642C136.683 24.5473 137.089 24.4754 137.501 24.4261C138.024 24.3655 138.448 24.3163 138.774 24.2784C139.1 24.2367 139.337 24.1705 139.484 24.0795C139.632 23.9886 139.706 23.8409 139.706 23.6364V23.5966C139.706 23.1004 139.566 22.7159 139.286 22.4432C139.009 22.1705 138.596 22.0341 138.047 22.0341C137.475 22.0341 137.024 22.161 136.695 22.4148C136.369 22.6648 136.143 22.9432 136.018 23.25L134.422 22.8864C134.611 22.3561 134.888 21.928 135.251 21.6023C135.619 21.2727 136.041 21.0341 136.518 20.8864C136.996 20.7348 137.498 20.6591 138.024 20.6591C138.373 20.6591 138.742 20.7008 139.132 20.7841C139.526 20.8636 139.893 21.0114 140.234 21.2273C140.579 21.4432 140.861 21.7519 141.081 22.1534C141.301 22.5511 141.411 23.0682 141.411 23.7045V29.5H139.751V28.3068H139.683C139.573 28.5265 139.409 28.7424 139.189 28.9545C138.969 29.1667 138.687 29.3428 138.342 29.483C137.998 29.6231 137.585 29.6932 137.104 29.6932ZM137.473 28.3295C137.943 28.3295 138.344 28.2367 138.678 28.0511C139.015 27.8655 139.27 27.6231 139.445 27.3239C139.623 27.0208 139.712 26.697 139.712 26.3523V25.2273C139.651 25.2879 139.534 25.3447 139.359 25.3977C139.189 25.447 138.994 25.4905 138.774 25.5284C138.554 25.5625 138.34 25.5947 138.132 25.625C137.924 25.6515 137.75 25.6742 137.609 25.6932C137.28 25.7348 136.979 25.8049 136.706 25.9034C136.437 26.0019 136.221 26.1439 136.058 26.3295C135.899 26.5114 135.82 26.7538 135.82 27.0568C135.82 27.4773 135.975 27.7955 136.286 28.0114C136.596 28.2235 136.992 28.3295 137.473 28.3295ZM143.673 29.5V20.7727H145.315V22.1591H145.406C145.565 21.6894 145.846 21.3201 146.247 21.0511C146.652 20.7784 147.111 20.642 147.622 20.642C147.728 20.642 147.853 20.6458 147.997 20.6534C148.145 20.661 148.26 20.6705 148.344 20.6818V22.3068C148.276 22.2879 148.154 22.267 147.98 22.2443C147.806 22.2178 147.632 22.2045 147.457 22.2045C147.056 22.2045 146.698 22.2898 146.384 22.4602C146.073 22.6269 145.827 22.8598 145.645 23.1591C145.463 23.4545 145.372 23.7917 145.372 24.1705V29.5H143.673Z" fill="#FAFAFA"/>
<g clip-path="url(#clip0_2914_53849)">
<path d="M169 25.5L165 21.5L161 25.5" stroke="#FAFAFA" stroke-width="1.5" stroke-linecap="round" stroke-linejoin="round"/>
</g>
<defs>
<clipPath id="clip0_2914_53849">
<rect width="16" height="16" fill="white" transform="matrix(1 0 0 -1 157 32)"/>
</clipPath>
</defs>
</svg>
