<svg width="177" height="36" viewBox="0 0 177 36" fill="none" xmlns="http://www.w3.org/2000/svg">
<rect x="0.5" y="1" width="82" height="34" rx="7.5" stroke="#E2E2E2"/>
<path d="M17.8636 11.8636H19.2727V20.1818C19.2727 20.9242 19.1364 21.5549 18.8636 22.0739C18.5909 22.5928 18.2064 22.9867 17.7102 23.2557C17.214 23.5246 16.6288 23.6591 15.9545 23.6591C15.3182 23.6591 14.7519 23.5436 14.2557 23.3125C13.7595 23.0777 13.3693 22.7443 13.0852 22.3125C12.8011 21.8807 12.6591 21.3674 12.6591 20.7727H14.0455C14.0455 21.1023 14.1269 21.3902 14.2898 21.6364C14.4564 21.8788 14.6837 22.0682 14.9716 22.2045C15.2595 22.3409 15.5871 22.4091 15.9545 22.4091C16.3598 22.4091 16.7045 22.3239 16.9886 22.1534C17.2727 21.983 17.4886 21.733 17.6364 21.4034C17.7879 21.0701 17.8636 20.6629 17.8636 20.1818V11.8636ZM27.4148 19.9318V14.7727H28.7557V23.5H27.4148V22.0227H27.3239C27.1193 22.4659 26.8011 22.8428 26.3693 23.1534C25.9375 23.4602 25.392 23.6136 24.733 23.6136C24.1875 23.6136 23.7027 23.4943 23.2784 23.2557C22.8542 23.0133 22.5208 22.6496 22.2784 22.1648C22.036 21.6761 21.9148 21.0606 21.9148 20.3182V14.7727H23.2557V20.2273C23.2557 20.8636 23.4337 21.3712 23.7898 21.75C24.1496 22.1288 24.608 22.3182 25.1648 22.3182C25.4981 22.3182 25.8371 22.233 26.1818 22.0625C26.5303 21.892 26.822 21.6307 27.0568 21.2784C27.2955 20.9261 27.4148 20.4773 27.4148 19.9318ZM32.5526 18.25V23.5H31.2116V14.7727H32.5071V16.1364H32.6207C32.8253 15.6932 33.1359 15.3371 33.5526 15.0682C33.9692 14.7955 34.5071 14.6591 35.1662 14.6591C35.7571 14.6591 36.2741 14.7803 36.7173 15.0227C37.1605 15.2614 37.5052 15.625 37.7514 16.1136C37.9976 16.5985 38.1207 17.2121 38.1207 17.9545V23.5H36.7798V18.0455C36.7798 17.3598 36.6018 16.8258 36.2457 16.4432C35.8897 16.0568 35.401 15.8636 34.7798 15.8636C34.3518 15.8636 33.9692 15.9564 33.6321 16.142C33.2988 16.3277 33.0355 16.5985 32.8423 16.9545C32.6491 17.3106 32.5526 17.7424 32.5526 18.25ZM44.2301 23.6818C43.3892 23.6818 42.6638 23.4962 42.054 23.125C41.4479 22.75 40.9801 22.2273 40.6506 21.5568C40.3248 20.8826 40.1619 20.0985 40.1619 19.2045C40.1619 18.3106 40.3248 17.5227 40.6506 16.8409C40.9801 16.1553 41.4384 15.6212 42.0256 15.2386C42.6165 14.8523 43.3059 14.6591 44.0938 14.6591C44.5483 14.6591 44.9972 14.7348 45.4403 14.8864C45.8835 15.0379 46.2869 15.2841 46.6506 15.625C47.0142 15.9621 47.304 16.4091 47.5199 16.9659C47.7358 17.5227 47.8438 18.2083 47.8438 19.0227V19.5909H41.1165V18.4318H46.4801C46.4801 17.9394 46.3816 17.5 46.1847 17.1136C45.9915 16.7273 45.715 16.4223 45.3551 16.1989C44.9991 15.9754 44.5786 15.8636 44.0938 15.8636C43.5597 15.8636 43.0975 15.9962 42.7074 16.2614C42.321 16.5227 42.0237 16.8636 41.8153 17.2841C41.607 17.7045 41.5028 18.1553 41.5028 18.6364V19.4091C41.5028 20.0682 41.6165 20.6269 41.8438 21.0852C42.0748 21.5398 42.3949 21.8864 42.804 22.125C43.2131 22.3598 43.6884 22.4773 44.2301 22.4773C44.5824 22.4773 44.9006 22.428 45.1847 22.3295C45.4725 22.2273 45.7206 22.0758 45.929 21.875C46.1373 21.6705 46.2983 21.4167 46.4119 21.1136L47.7074 21.4773C47.571 21.9167 47.3419 22.303 47.0199 22.6364C46.6979 22.9659 46.3002 23.2235 45.8267 23.4091C45.3532 23.5909 44.821 23.6818 44.2301 23.6818Z" fill="black"/>
<path d="M58 15L64.5 21L71 15" stroke="black" stroke-linecap="round"/>
<rect x="91.5" y="1" width="85" height="34" rx="7.5" stroke="#E2E2E2"/>
<path d="M104.205 23.5V22.4773L108.045 18.2727C108.496 17.7803 108.867 17.3523 109.159 16.9886C109.451 16.6212 109.667 16.2765 109.807 15.9545C109.951 15.6288 110.023 15.2879 110.023 14.9318C110.023 14.5227 109.924 14.1686 109.727 13.8693C109.534 13.5701 109.269 13.339 108.932 13.1761C108.595 13.0133 108.216 12.9318 107.795 12.9318C107.348 12.9318 106.958 13.0246 106.625 13.2102C106.295 13.392 106.04 13.6477 105.858 13.9773C105.68 14.3068 105.591 14.6932 105.591 15.1364H104.25C104.25 14.4545 104.407 13.8561 104.722 13.3409C105.036 12.8258 105.464 12.4242 106.006 12.1364C106.551 11.8485 107.163 11.7045 107.841 11.7045C108.523 11.7045 109.127 11.8485 109.653 12.1364C110.18 12.4242 110.593 12.8125 110.892 13.3011C111.191 13.7898 111.341 14.3333 111.341 14.9318C111.341 15.3598 111.263 15.7784 111.108 16.1875C110.956 16.5928 110.691 17.0455 110.312 17.5455C109.938 18.0417 109.417 18.6477 108.75 19.3636L106.136 22.1591V22.25H111.545V23.5H104.205ZM117.688 23.6591C116.831 23.6591 116.102 23.4261 115.5 22.9602C114.898 22.4905 114.438 21.8106 114.119 20.9205C113.801 20.0265 113.642 18.947 113.642 17.6818C113.642 16.4242 113.801 15.3504 114.119 14.4602C114.441 13.5663 114.903 12.8845 115.506 12.4148C116.112 11.9413 116.839 11.7045 117.688 11.7045C118.536 11.7045 119.261 11.9413 119.864 12.4148C120.47 12.8845 120.932 13.5663 121.25 14.4602C121.572 15.3504 121.733 16.4242 121.733 17.6818C121.733 18.947 121.574 20.0265 121.256 20.9205C120.938 21.8106 120.477 22.4905 119.875 22.9602C119.273 23.4261 118.544 23.6591 117.688 23.6591ZM117.688 22.4091C118.536 22.4091 119.195 22 119.665 21.1818C120.134 20.3636 120.369 19.197 120.369 17.6818C120.369 16.6742 120.261 15.8163 120.045 15.108C119.833 14.3996 119.527 13.8598 119.125 13.4886C118.727 13.1174 118.248 12.9318 117.688 12.9318C116.847 12.9318 116.189 13.3466 115.716 14.1761C115.242 15.0019 115.006 16.1705 115.006 17.6818C115.006 18.6894 115.112 19.5455 115.324 20.25C115.536 20.9545 115.841 21.4905 116.239 21.858C116.64 22.2254 117.123 22.4091 117.688 22.4091ZM123.892 23.5V22.4773L127.733 18.2727C128.184 17.7803 128.555 17.3523 128.847 16.9886C129.138 16.6212 129.354 16.2765 129.494 15.9545C129.638 15.6288 129.71 15.2879 129.71 14.9318C129.71 14.5227 129.612 14.1686 129.415 13.8693C129.222 13.5701 128.956 13.339 128.619 13.1761C128.282 13.0133 127.903 12.9318 127.483 12.9318C127.036 12.9318 126.646 13.0246 126.312 13.2102C125.983 13.392 125.727 13.6477 125.545 13.9773C125.367 14.3068 125.278 14.6932 125.278 15.1364H123.938C123.938 14.4545 124.095 13.8561 124.409 13.3409C124.723 12.8258 125.152 12.4242 125.693 12.1364C126.239 11.8485 126.85 11.7045 127.528 11.7045C128.21 11.7045 128.814 11.8485 129.341 12.1364C129.867 12.4242 130.28 12.8125 130.58 13.3011C130.879 13.7898 131.028 14.3333 131.028 14.9318C131.028 15.3598 130.951 15.7784 130.795 16.1875C130.644 16.5928 130.379 17.0455 130 17.5455C129.625 18.0417 129.104 18.6477 128.438 19.3636L125.824 22.1591V22.25H131.233V23.5H123.892ZM133.057 21.1136V19.9545L138.17 11.8636H139.011V13.6591H138.443L134.58 19.7727V19.8636H141.466V21.1136H133.057ZM138.534 23.5V20.7614V20.2216V11.8636H139.875V23.5H138.534Z" fill="black"/>
<path d="M152 15L158.5 21L165 15" stroke="black" stroke-linecap="round"/>
</svg>
