<svg width="356" height="40" viewBox="0 0 356 40" fill="none" xmlns="http://www.w3.org/2000/svg">
<rect width="40" height="40" rx="8" fill="#D1E2FC"/>
<path d="M29.9999 21.85C29.8699 21.85 29.7399 21.82 29.6199 21.74L27.1199 20.24C25.8199 19.46 24.1999 19.46 22.8899 20.24C21.1099 21.31 18.8999 21.31 17.1199 20.24C15.8199 19.46 14.1999 19.46 12.8899 20.24L10.3899 21.74C10.0299 21.95 9.56988 21.84 9.35988 21.48C9.14988 21.12 9.25989 20.66 9.61989 20.45L12.1199 18.95C13.8999 17.88 16.1099 17.88 17.8899 18.95C19.1899 19.73 20.8099 19.73 22.1199 18.95C23.8999 17.88 26.1099 17.88 27.8899 18.95L30.3899 20.45C30.7499 20.66 30.8599 21.12 30.6499 21.48C30.4999 21.72 30.2499 21.85 29.9999 21.85Z" fill="#292D32"/>
<path d="M15.0001 14.8503C14.0001 14.8503 13.0001 14.5803 12.1101 14.0503L9.6101 12.5503C9.2501 12.3403 9.14012 11.8803 9.35012 11.5203C9.56012 11.1703 10.0201 11.0503 10.3801 11.2603L12.8801 12.7603C14.1801 13.5403 15.8001 13.5403 17.1101 12.7603C18.8901 11.6903 21.1001 11.6903 22.8801 12.7603C24.1801 13.5403 25.8001 13.5403 27.1101 12.7603L29.6101 11.2603C29.9701 11.0503 30.4301 11.1603 30.6401 11.5203C30.8501 11.8703 30.7401 12.3403 30.3801 12.5503L27.8801 14.0503C26.1001 15.1203 23.8901 15.1203 22.1101 14.0503C20.8101 13.2703 19.1901 13.2703 17.8801 14.0503C17.0001 14.5803 16.0001 14.8503 15.0001 14.8503Z" fill="#292D32"/>
<path d="M29.9999 28.85C29.8699 28.85 29.7399 28.82 29.6199 28.74L27.1199 27.24C25.8199 26.46 24.1999 26.46 22.8899 27.24C21.1099 28.31 18.8999 28.31 17.1199 27.24C15.8199 26.46 14.1999 26.46 12.8899 27.24L10.3899 28.74C10.0299 28.95 9.56988 28.84 9.35988 28.48C9.14988 28.12 9.25989 27.66 9.61989 27.45L12.1199 25.95C13.8999 24.88 16.1099 24.88 17.8899 25.95C19.1899 26.73 20.8099 26.73 22.1199 25.95C23.8999 24.88 26.1099 24.88 27.8899 25.95L30.3899 27.45C30.7499 27.66 30.8599 28.12 30.6499 28.48C30.4999 28.72 30.2499 28.85 29.9999 28.85Z" fill="#292D32"/>
<path d="M56.5511 11.0455V28.5H53.9176V11.0455H56.5511ZM60.1818 28.5V15.4091H62.6449V17.4886H62.7812C63.0199 16.7841 63.4403 16.2301 64.0426 15.8267C64.6506 15.4176 65.3381 15.2131 66.1051 15.2131C66.2642 15.2131 66.4517 15.2187 66.6676 15.2301C66.8892 15.2415 67.0625 15.2557 67.1875 15.2727V17.7102C67.0852 17.6818 66.9034 17.6506 66.642 17.6165C66.3807 17.5767 66.1193 17.5568 65.858 17.5568C65.2557 17.5568 64.7188 17.6847 64.2472 17.9403C63.7813 18.1903 63.4119 18.5398 63.1392 18.9886C62.8665 19.4318 62.7301 19.9375 62.7301 20.5057V28.5H60.1818ZM69.3928 28.5V15.4091H71.8558V17.4886H71.9922C72.2308 16.7841 72.6513 16.2301 73.2536 15.8267C73.8615 15.4176 74.549 15.2131 75.3161 15.2131C75.4751 15.2131 75.6626 15.2187 75.8786 15.2301C76.1001 15.2415 76.2734 15.2557 76.3984 15.2727V17.7102C76.2962 17.6818 76.1143 17.6506 75.853 17.6165C75.5916 17.5767 75.3303 17.5568 75.0689 17.5568C74.4666 17.5568 73.9297 17.6847 73.4581 17.9403C72.9922 18.1903 72.6229 18.5398 72.3501 18.9886C72.0774 19.4318 71.9411 19.9375 71.9411 20.5057V28.5H69.3928ZM78.6037 28.5V15.4091H81.152V28.5H78.6037ZM79.8906 13.3892C79.4474 13.3892 79.0668 13.2415 78.7486 12.946C78.4361 12.6449 78.2798 12.2869 78.2798 11.8722C78.2798 11.4517 78.4361 11.0937 78.7486 10.7983C79.0668 10.4972 79.4474 10.3466 79.8906 10.3466C80.3338 10.3466 80.7116 10.4972 81.0241 10.7983C81.3423 11.0937 81.5014 11.4517 81.5014 11.8722C81.5014 12.2869 81.3423 12.6449 81.0241 12.946C80.7116 13.2415 80.3338 13.3892 79.8906 13.3892ZM90.0689 33.6818C89.0291 33.6818 88.1342 33.5455 87.3842 33.2727C86.6399 33 86.032 32.6392 85.5604 32.1903C85.0888 31.7415 84.7365 31.25 84.5036 30.7159L86.6939 29.8125C86.8473 30.0625 87.0518 30.3267 87.3075 30.6051C87.5689 30.8892 87.9212 31.1307 88.3643 31.3295C88.8132 31.5284 89.3899 31.6278 90.0945 31.6278C91.0604 31.6278 91.8587 31.392 92.4893 30.9205C93.12 30.4545 93.4354 29.7102 93.4354 28.6875V26.1136H93.2734C93.12 26.392 92.8984 26.7017 92.6087 27.0426C92.3246 27.3835 91.9325 27.679 91.4325 27.929C90.9325 28.179 90.282 28.304 89.4808 28.304C88.4467 28.304 87.5149 28.0625 86.6854 27.5795C85.8615 27.0909 85.2081 26.3722 84.7251 25.4233C84.2479 24.4687 84.0092 23.2955 84.0092 21.9034C84.0092 20.5114 84.245 19.3182 84.7166 18.3239C85.1939 17.3295 85.8473 16.5682 86.6768 16.0398C87.5064 15.5057 88.4467 15.2386 89.4979 15.2386C90.3104 15.2386 90.9666 15.375 91.4666 15.6477C91.9666 15.9148 92.3558 16.2273 92.6342 16.5852C92.9183 16.9432 93.1371 17.2585 93.2905 17.5312H93.478V15.4091H95.9751V28.7898C95.9751 29.9148 95.7138 30.8381 95.1911 31.5597C94.6683 32.2813 93.9609 32.8153 93.0689 33.1619C92.1825 33.5085 91.1825 33.6818 90.0689 33.6818ZM90.0433 26.1903C90.7763 26.1903 91.3956 26.0199 91.9013 25.679C92.4126 25.3324 92.799 24.8381 93.0604 24.196C93.3274 23.5483 93.4609 22.7727 93.4609 21.8693C93.4609 20.9886 93.3303 20.2131 93.0689 19.5426C92.8075 18.8722 92.424 18.3494 91.9183 17.9744C91.4126 17.5937 90.7876 17.4034 90.0433 17.4034C89.2763 17.4034 88.6371 17.6023 88.1257 18C87.6143 18.392 87.228 18.9261 86.9666 19.6023C86.7109 20.2784 86.5831 21.0341 86.5831 21.8693C86.5831 22.7273 86.7138 23.4801 86.9751 24.1278C87.2365 24.7756 87.6229 25.2812 88.1342 25.6449C88.6513 26.0085 89.2876 26.1903 90.0433 26.1903ZM103.202 28.7898C102.373 28.7898 101.623 28.6364 100.952 28.3295C100.282 28.017 99.7507 27.5653 99.3587 26.9744C98.9723 26.3835 98.7791 25.6591 98.7791 24.8011C98.7791 24.0625 98.9212 23.4545 99.2053 22.9773C99.4893 22.5 99.8729 22.1222 100.356 21.8438C100.839 21.5653 101.379 21.3551 101.975 21.2131C102.572 21.071 103.18 20.9631 103.799 20.8892C104.583 20.7983 105.219 20.7244 105.708 20.6676C106.197 20.6051 106.552 20.5057 106.773 20.3693C106.995 20.233 107.106 20.0114 107.106 19.7045V19.6449C107.106 18.9006 106.896 18.3239 106.475 17.9148C106.06 17.5057 105.441 17.3011 104.617 17.3011C103.759 17.3011 103.083 17.4915 102.589 17.8722C102.1 18.2472 101.762 18.6648 101.575 19.125L99.1797 18.5795C99.4638 17.7841 99.8786 17.142 100.424 16.6534C100.975 16.1591 101.609 15.8011 102.325 15.5795C103.04 15.3523 103.793 15.2386 104.583 15.2386C105.106 15.2386 105.66 15.3011 106.245 15.4261C106.836 15.5455 107.387 15.767 107.898 16.0909C108.415 16.4148 108.839 16.8778 109.168 17.4801C109.498 18.0767 109.663 18.8523 109.663 19.8068V28.5H107.174V26.7102H107.072C106.907 27.0398 106.66 27.3636 106.33 27.6818C106.001 28 105.577 28.2642 105.06 28.4744C104.543 28.6847 103.924 28.7898 103.202 28.7898ZM103.756 26.7443C104.461 26.7443 105.063 26.6051 105.563 26.3267C106.069 26.0483 106.452 25.6847 106.714 25.2358C106.981 24.7812 107.114 24.2955 107.114 23.7784V22.0909C107.023 22.1818 106.847 22.267 106.586 22.3466C106.33 22.4205 106.038 22.4858 105.708 22.5426C105.379 22.5937 105.058 22.642 104.745 22.6875C104.433 22.7273 104.171 22.7614 103.961 22.7898C103.467 22.8523 103.015 22.9574 102.606 23.1051C102.202 23.2528 101.879 23.4659 101.634 23.7443C101.396 24.017 101.276 24.3807 101.276 24.8352C101.276 25.4659 101.509 25.9432 101.975 26.267C102.441 26.5852 103.035 26.7443 103.756 26.7443ZM119.168 15.4091V17.4545H112.017V15.4091H119.168ZM113.935 12.2727H116.483V24.6562C116.483 25.1506 116.557 25.5227 116.705 25.7727C116.852 26.017 117.043 26.1847 117.276 26.2756C117.514 26.3608 117.773 26.4034 118.051 26.4034C118.256 26.4034 118.435 26.3892 118.588 26.3608C118.741 26.3324 118.861 26.3097 118.946 26.2926L119.406 28.3977C119.259 28.4545 119.048 28.5114 118.776 28.5682C118.503 28.6307 118.162 28.6648 117.753 28.6705C117.082 28.6818 116.457 28.5625 115.878 28.3125C115.298 28.0625 114.83 27.6761 114.472 27.1534C114.114 26.6307 113.935 25.9744 113.935 25.1847V12.2727ZM121.987 28.5V15.4091H124.535V28.5H121.987ZM123.273 13.3892C122.83 13.3892 122.45 13.2415 122.131 12.946C121.819 12.6449 121.663 12.2869 121.663 11.8722C121.663 11.4517 121.819 11.0937 122.131 10.7983C122.45 10.4972 122.83 10.3466 123.273 10.3466C123.717 10.3466 124.094 10.4972 124.407 10.7983C124.725 11.0937 124.884 11.4517 124.884 11.8722C124.884 12.2869 124.725 12.6449 124.407 12.946C124.094 13.2415 123.717 13.3892 123.273 13.3892ZM133.477 28.7642C132.25 28.7642 131.179 28.483 130.264 27.9205C129.349 27.358 128.639 26.571 128.134 25.5597C127.628 24.5483 127.375 23.3665 127.375 22.0142C127.375 20.6562 127.628 19.4687 128.134 18.4517C128.639 17.4347 129.349 16.6449 130.264 16.0824C131.179 15.5199 132.25 15.2386 133.477 15.2386C134.705 15.2386 135.776 15.5199 136.69 16.0824C137.605 16.6449 138.315 17.4347 138.821 18.4517C139.327 19.4687 139.58 20.6562 139.58 22.0142C139.58 23.3665 139.327 24.5483 138.821 25.5597C138.315 26.571 137.605 27.358 136.69 27.9205C135.776 28.483 134.705 28.7642 133.477 28.7642ZM133.486 26.625C134.281 26.625 134.94 26.4148 135.463 25.9943C135.986 25.5739 136.372 25.0142 136.622 24.3153C136.878 23.6165 137.006 22.8466 137.006 22.0057C137.006 21.1705 136.878 20.4034 136.622 19.7045C136.372 19 135.986 18.4347 135.463 18.0085C134.94 17.5824 134.281 17.3693 133.486 17.3693C132.685 17.3693 132.02 17.5824 131.491 18.0085C130.969 18.4347 130.58 19 130.324 19.7045C130.074 20.4034 129.949 21.1705 129.949 22.0057C129.949 22.8466 130.074 23.6165 130.324 24.3153C130.58 25.0142 130.969 25.5739 131.491 25.9943C132.02 26.4148 132.685 26.625 133.486 26.625ZM144.972 20.7273V28.5H142.424V15.4091H144.87V17.5398H145.032C145.333 16.8466 145.805 16.2898 146.447 15.8693C147.094 15.4489 147.91 15.2386 148.893 15.2386C149.785 15.2386 150.566 15.4261 151.237 15.8011C151.907 16.1705 152.427 16.7216 152.796 17.4545C153.165 18.1875 153.35 19.0937 153.35 20.1733V28.5H150.802V20.4801C150.802 19.5312 150.555 18.7898 150.06 18.2557C149.566 17.7159 148.887 17.446 148.023 17.446C147.433 17.446 146.907 17.5739 146.447 17.8295C145.992 18.0852 145.631 18.4602 145.364 18.9545C145.103 19.4432 144.972 20.0341 144.972 20.7273Z" fill="#2D2931"/>
<rect x="177.5" y="3" width="82" height="34" rx="7.5" stroke="#E2E2E2"/>
<path d="M194.864 13.8636H196.273V22.1818C196.273 22.9242 196.136 23.5549 195.864 24.0739C195.591 24.5928 195.206 24.9867 194.71 25.2557C194.214 25.5246 193.629 25.6591 192.955 25.6591C192.318 25.6591 191.752 25.5436 191.256 25.3125C190.759 25.0777 190.369 24.7443 190.085 24.3125C189.801 23.8807 189.659 23.3674 189.659 22.7727H191.045C191.045 23.1023 191.127 23.3902 191.29 23.6364C191.456 23.8788 191.684 24.0682 191.972 24.2045C192.259 24.3409 192.587 24.4091 192.955 24.4091C193.36 24.4091 193.705 24.3239 193.989 24.1534C194.273 23.983 194.489 23.733 194.636 23.4034C194.788 23.0701 194.864 22.6629 194.864 22.1818V13.8636ZM204.415 21.9318V16.7727H205.756V25.5H204.415V24.0227H204.324C204.119 24.4659 203.801 24.8428 203.369 25.1534C202.938 25.4602 202.392 25.6136 201.733 25.6136C201.188 25.6136 200.703 25.4943 200.278 25.2557C199.854 25.0133 199.521 24.6496 199.278 24.1648C199.036 23.6761 198.915 23.0606 198.915 22.3182V16.7727H200.256V22.2273C200.256 22.8636 200.434 23.3712 200.79 23.75C201.15 24.1288 201.608 24.3182 202.165 24.3182C202.498 24.3182 202.837 24.233 203.182 24.0625C203.53 23.892 203.822 23.6307 204.057 23.2784C204.295 22.9261 204.415 22.4773 204.415 21.9318ZM209.553 20.25V25.5H208.212V16.7727H209.507V18.1364H209.621C209.825 17.6932 210.136 17.3371 210.553 17.0682C210.969 16.7955 211.507 16.6591 212.166 16.6591C212.757 16.6591 213.274 16.7803 213.717 17.0227C214.161 17.2614 214.505 17.625 214.751 18.1136C214.998 18.5985 215.121 19.2121 215.121 19.9545V25.5H213.78V20.0455C213.78 19.3598 213.602 18.8258 213.246 18.4432C212.89 18.0568 212.401 17.8636 211.78 17.8636C211.352 17.8636 210.969 17.9564 210.632 18.142C210.299 18.3277 210.036 18.5985 209.842 18.9545C209.649 19.3106 209.553 19.7424 209.553 20.25ZM221.23 25.6818C220.389 25.6818 219.664 25.4962 219.054 25.125C218.448 24.75 217.98 24.2273 217.651 23.5568C217.325 22.8826 217.162 22.0985 217.162 21.2045C217.162 20.3106 217.325 19.5227 217.651 18.8409C217.98 18.1553 218.438 17.6212 219.026 17.2386C219.616 16.8523 220.306 16.6591 221.094 16.6591C221.548 16.6591 221.997 16.7348 222.44 16.8864C222.884 17.0379 223.287 17.2841 223.651 17.625C224.014 17.9621 224.304 18.4091 224.52 18.9659C224.736 19.5227 224.844 20.2083 224.844 21.0227V21.5909H218.116V20.4318H223.48C223.48 19.9394 223.382 19.5 223.185 19.1136C222.991 18.7273 222.715 18.4223 222.355 18.1989C221.999 17.9754 221.579 17.8636 221.094 17.8636C220.56 17.8636 220.098 17.9962 219.707 18.2614C219.321 18.5227 219.024 18.8636 218.815 19.2841C218.607 19.7045 218.503 20.1553 218.503 20.6364V21.4091C218.503 22.0682 218.616 22.6269 218.844 23.0852C219.075 23.5398 219.395 23.8864 219.804 24.125C220.213 24.3598 220.688 24.4773 221.23 24.4773C221.582 24.4773 221.901 24.428 222.185 24.3295C222.473 24.2273 222.721 24.0758 222.929 23.875C223.137 23.6705 223.298 23.4167 223.412 23.1136L224.707 23.4773C224.571 23.9167 224.342 24.303 224.02 24.6364C223.698 24.9659 223.3 25.2235 222.827 25.4091C222.353 25.5909 221.821 25.6818 221.23 25.6818Z" fill="black"/>
<path d="M235 17L241.5 23L248 17" stroke="black" stroke-linecap="round"/>
<rect x="270.5" y="3" width="85" height="34" rx="7.5" stroke="#E2E2E2"/>
<path d="M283.205 25.5V24.4773L287.045 20.2727C287.496 19.7803 287.867 19.3523 288.159 18.9886C288.451 18.6212 288.667 18.2765 288.807 17.9545C288.951 17.6288 289.023 17.2879 289.023 16.9318C289.023 16.5227 288.924 16.1686 288.727 15.8693C288.534 15.5701 288.269 15.339 287.932 15.1761C287.595 15.0133 287.216 14.9318 286.795 14.9318C286.348 14.9318 285.958 15.0246 285.625 15.2102C285.295 15.392 285.04 15.6477 284.858 15.9773C284.68 16.3068 284.591 16.6932 284.591 17.1364H283.25C283.25 16.4545 283.407 15.8561 283.722 15.3409C284.036 14.8258 284.464 14.4242 285.006 14.1364C285.551 13.8485 286.163 13.7045 286.841 13.7045C287.523 13.7045 288.127 13.8485 288.653 14.1364C289.18 14.4242 289.593 14.8125 289.892 15.3011C290.191 15.7898 290.341 16.3333 290.341 16.9318C290.341 17.3598 290.263 17.7784 290.108 18.1875C289.956 18.5928 289.691 19.0455 289.312 19.5455C288.938 20.0417 288.417 20.6477 287.75 21.3636L285.136 24.1591V24.25H290.545V25.5H283.205ZM296.688 25.6591C295.831 25.6591 295.102 25.4261 294.5 24.9602C293.898 24.4905 293.438 23.8106 293.119 22.9205C292.801 22.0265 292.642 20.947 292.642 19.6818C292.642 18.4242 292.801 17.3504 293.119 16.4602C293.441 15.5663 293.903 14.8845 294.506 14.4148C295.112 13.9413 295.839 13.7045 296.688 13.7045C297.536 13.7045 298.261 13.9413 298.864 14.4148C299.47 14.8845 299.932 15.5663 300.25 16.4602C300.572 17.3504 300.733 18.4242 300.733 19.6818C300.733 20.947 300.574 22.0265 300.256 22.9205C299.938 23.8106 299.477 24.4905 298.875 24.9602C298.273 25.4261 297.544 25.6591 296.688 25.6591ZM296.688 24.4091C297.536 24.4091 298.195 24 298.665 23.1818C299.134 22.3636 299.369 21.197 299.369 19.6818C299.369 18.6742 299.261 17.8163 299.045 17.108C298.833 16.3996 298.527 15.8598 298.125 15.4886C297.727 15.1174 297.248 14.9318 296.688 14.9318C295.847 14.9318 295.189 15.3466 294.716 16.1761C294.242 17.0019 294.006 18.1705 294.006 19.6818C294.006 20.6894 294.112 21.5455 294.324 22.25C294.536 22.9545 294.841 23.4905 295.239 23.858C295.64 24.2254 296.123 24.4091 296.688 24.4091ZM302.892 25.5V24.4773L306.733 20.2727C307.184 19.7803 307.555 19.3523 307.847 18.9886C308.138 18.6212 308.354 18.2765 308.494 17.9545C308.638 17.6288 308.71 17.2879 308.71 16.9318C308.71 16.5227 308.612 16.1686 308.415 15.8693C308.222 15.5701 307.956 15.339 307.619 15.1761C307.282 15.0133 306.903 14.9318 306.483 14.9318C306.036 14.9318 305.646 15.0246 305.312 15.2102C304.983 15.392 304.727 15.6477 304.545 15.9773C304.367 16.3068 304.278 16.6932 304.278 17.1364H302.938C302.938 16.4545 303.095 15.8561 303.409 15.3409C303.723 14.8258 304.152 14.4242 304.693 14.1364C305.239 13.8485 305.85 13.7045 306.528 13.7045C307.21 13.7045 307.814 13.8485 308.341 14.1364C308.867 14.4242 309.28 14.8125 309.58 15.3011C309.879 15.7898 310.028 16.3333 310.028 16.9318C310.028 17.3598 309.951 17.7784 309.795 18.1875C309.644 18.5928 309.379 19.0455 309 19.5455C308.625 20.0417 308.104 20.6477 307.438 21.3636L304.824 24.1591V24.25H310.233V25.5H302.892ZM312.057 23.1136V21.9545L317.17 13.8636H318.011V15.6591H317.443L313.58 21.7727V21.8636H320.466V23.1136H312.057ZM317.534 25.5V22.7614V22.2216V13.8636H318.875V25.5H317.534Z" fill="black"/>
<path d="M331 17L337.5 23L344 17" stroke="black" stroke-linecap="round"/>
</svg>
