<svg width="24" height="24" viewBox="0 0 24 24" fill="none" xmlns="http://www.w3.org/2000/svg">
<path d="M18.8947 7.38379H5" stroke="#EB5627" stroke-width="1.5" stroke-linecap="round" stroke-linejoin="round"/>
<path d="M10.0527 12.0303V17.0829" stroke="#EB5627" stroke-width="1.5" stroke-linecap="round" stroke-linejoin="round"/>
<path d="M13.8423 12.0303V17.0829" stroke="#EB5627" stroke-width="1.5" stroke-linecap="round" stroke-linejoin="round"/>
<path d="M17.6321 8.24121V20.2412C17.6321 20.4087 17.5656 20.5694 17.4471 20.6878C17.3287 20.8062 17.168 20.8728 17.0005 20.8728H6.89525C6.72775 20.8728 6.5671 20.8062 6.44866 20.6878C6.33021 20.5694 6.26367 20.4087 6.26367 20.2412V8.24121" stroke="#EB5627" stroke-width="1.5" stroke-linecap="round" stroke-linejoin="round"/>
<path d="M15.1053 6.52632V5.26316C15.1053 4.92815 14.9723 4.60686 14.7354 4.36997C14.4985 4.13308 14.1772 4 13.8422 4H10.0527C9.7177 4 9.39641 4.13308 9.15952 4.36997C8.92263 4.60686 8.78955 4.92815 8.78955 5.26316V6.52632" stroke="#EB5627" stroke-width="1.5" stroke-linecap="round" stroke-linejoin="round"/>
</svg>
