<svg width="285" height="56" viewBox="0 0 285 56" fill="none" xmlns="http://www.w3.org/2000/svg">
<path d="M28 28.75C24.83 28.75 22.25 26.17 22.25 23C22.25 19.83 24.83 17.25 28 17.25C31.17 17.25 33.75 19.83 33.75 23C33.75 26.17 31.17 28.75 28 28.75ZM28 18.75C25.66 18.75 23.75 20.66 23.75 23C23.75 25.34 25.66 27.25 28 27.25C30.34 27.25 32.25 25.34 32.25 23C32.25 20.66 30.34 18.75 28 18.75Z" fill="#2D2931"/>
<path d="M19.4102 38.75C19.0002 38.75 18.6602 38.41 18.6602 38C18.6602 33.73 22.8502 30.25 28.0002 30.25C29.0102 30.25 30.0001 30.38 30.9601 30.65C31.3601 30.76 31.5902 31.17 31.4802 31.57C31.3702 31.97 30.9601 32.2 30.5602 32.09C29.7402 31.86 28.8802 31.75 28.0002 31.75C23.6802 31.75 20.1602 34.55 20.1602 38C20.1602 38.41 19.8202 38.75 19.4102 38.75Z" fill="#2D2931"/>
<path d="M34 38.75C32.34 38.75 30.78 37.87 29.94 36.44C29.49 35.72 29.25 34.87 29.25 34C29.25 32.54 29.9 31.19 31.03 30.29C31.87 29.62 32.93 29.25 34 29.25C36.62 29.25 38.75 31.38 38.75 34C38.75 34.87 38.51 35.72 38.06 36.45C37.81 36.87 37.49 37.25 37.11 37.57C36.28 38.33 35.17 38.75 34 38.75ZM34 30.75C33.26 30.75 32.56 31 31.97 31.47C31.2 32.08 30.75 33.01 30.75 34C30.75 34.59 30.91 35.17 31.22 35.67C31.8 36.65 32.87 37.25 34 37.25C34.79 37.25 35.55 36.96 36.13 36.44C36.39 36.22 36.61 35.96 36.77 35.68C37.09 35.17 37.25 34.59 37.25 34C37.25 32.21 35.79 30.75 34 30.75Z" fill="#2D2931"/>
<path d="M33.4299 35.7396C33.2399 35.7396 33.0499 35.6696 32.8999 35.5196L31.9099 34.5296C31.6199 34.2396 31.6199 33.7595 31.9099 33.4695C32.1999 33.1795 32.6799 33.1795 32.9699 33.4695L33.4499 33.9496L35.0499 32.4695C35.3499 32.1895 35.8299 32.2096 36.1099 32.5096C36.3899 32.8096 36.3699 33.2896 36.0699 33.5696L33.9399 35.5396C33.7899 35.6696 33.6099 35.7396 33.4299 35.7396Z" fill="#2D2931"/>
<path d="M69 33.5H65.4091V21.8636H69.1591C70.2879 21.8636 71.2538 22.0966 72.0568 22.5625C72.8598 23.0246 73.4754 23.6894 73.9034 24.5568C74.3314 25.4205 74.5455 26.4545 74.5455 27.6591C74.5455 28.8712 74.3295 29.9148 73.8977 30.7898C73.4659 31.661 72.8371 32.3314 72.0114 32.8011C71.1856 33.267 70.1818 33.5 69 33.5ZM66.8182 32.25H68.9091C69.8712 32.25 70.6686 32.0644 71.3011 31.6932C71.9337 31.322 72.4053 30.7936 72.7159 30.108C73.0265 29.4223 73.1818 28.6061 73.1818 27.6591C73.1818 26.7197 73.0284 25.911 72.7216 25.233C72.4148 24.5511 71.9564 24.0284 71.3466 23.6648C70.7367 23.2973 69.9773 23.1136 69.0682 23.1136H66.8182V32.25ZM76.7273 33.5V24.7727H78.0682V33.5H76.7273ZM77.4091 23.3182C77.1477 23.3182 76.9223 23.2292 76.733 23.0511C76.5473 22.8731 76.4545 22.6591 76.4545 22.4091C76.4545 22.1591 76.5473 21.9451 76.733 21.767C76.9223 21.589 77.1477 21.5 77.4091 21.5C77.6705 21.5 77.8939 21.589 78.0795 21.767C78.2689 21.9451 78.3636 22.1591 78.3636 22.4091C78.3636 22.6591 78.2689 22.8731 78.0795 23.0511C77.8939 23.2292 77.6705 23.3182 77.4091 23.3182ZM84.0469 36.9545C83.3991 36.9545 82.8423 36.8712 82.3764 36.7045C81.9105 36.5417 81.5223 36.3258 81.2116 36.0568C80.9048 35.7917 80.6605 35.5076 80.4787 35.2045L81.5469 34.4545C81.6681 34.6136 81.8215 34.7955 82.0071 35C82.1927 35.2083 82.4465 35.3883 82.7685 35.5398C83.0942 35.6951 83.5204 35.7727 84.0469 35.7727C84.7514 35.7727 85.3329 35.6023 85.7912 35.2614C86.2495 34.9205 86.4787 34.3864 86.4787 33.6591V31.8864H86.3651C86.2666 32.0455 86.1264 32.2424 85.9446 32.4773C85.7666 32.7083 85.509 32.9148 85.1719 33.0966C84.8385 33.2746 84.3878 33.3636 83.8196 33.3636C83.1151 33.3636 82.4825 33.197 81.9219 32.8636C81.3651 32.5303 80.9238 32.0455 80.598 31.4091C80.276 30.7727 80.1151 30 80.1151 29.0909C80.1151 28.197 80.2723 27.4186 80.5866 26.7557C80.901 26.089 81.3385 25.5739 81.8991 25.2102C82.4598 24.8428 83.1075 24.6591 83.8423 24.6591C84.4105 24.6591 84.8613 24.7538 85.1946 24.9432C85.5317 25.1288 85.7893 25.3409 85.9673 25.5795C86.1491 25.8144 86.2893 26.0076 86.3878 26.1591H86.5241V24.7727H87.8196V33.75C87.8196 34.5 87.6491 35.1098 87.3082 35.5795C86.9711 36.053 86.5166 36.3996 85.9446 36.6193C85.3764 36.8428 84.7438 36.9545 84.0469 36.9545ZM84.0014 32.1591C84.5393 32.1591 84.9938 32.036 85.3651 31.7898C85.7363 31.5436 86.0185 31.1894 86.2116 30.7273C86.4048 30.2652 86.5014 29.7121 86.5014 29.0682C86.5014 28.4394 86.4067 27.8845 86.2173 27.4034C86.0279 26.9223 85.7476 26.5455 85.3764 26.2727C85.0052 26 84.5469 25.8636 84.0014 25.8636C83.4332 25.8636 82.9598 26.0076 82.581 26.2955C82.206 26.5833 81.9238 26.9697 81.7344 27.4545C81.5488 27.9394 81.456 28.4773 81.456 29.0682C81.456 29.6742 81.5507 30.2102 81.7401 30.6761C81.9332 31.1383 82.2173 31.5019 82.5923 31.767C82.9711 32.0284 83.4408 32.1591 84.0014 32.1591ZM90.2741 33.5V24.7727H91.6151V33.5H90.2741ZM90.956 23.3182C90.6946 23.3182 90.4692 23.2292 90.2798 23.0511C90.0942 22.8731 90.0014 22.6591 90.0014 22.4091C90.0014 22.1591 90.0942 21.9451 90.2798 21.767C90.4692 21.589 90.6946 21.5 90.956 21.5C91.2173 21.5 91.4408 21.589 91.6264 21.767C91.8158 21.9451 91.9105 22.1591 91.9105 22.4091C91.9105 22.6591 91.8158 22.8731 91.6264 23.0511C91.4408 23.2292 91.2173 23.3182 90.956 23.3182ZM97.8665 24.7727V25.9091H93.3438V24.7727H97.8665ZM94.6619 22.6818H96.0028V31C96.0028 31.3788 96.0578 31.6629 96.1676 31.8523C96.2813 32.0379 96.4252 32.1629 96.5994 32.2273C96.7775 32.2879 96.965 32.3182 97.1619 32.3182C97.3097 32.3182 97.4309 32.3106 97.5256 32.2955C97.6203 32.2765 97.696 32.2614 97.7528 32.25L98.0256 33.4545C97.9347 33.4886 97.8078 33.5227 97.6449 33.5568C97.482 33.5947 97.2756 33.6136 97.0256 33.6136C96.6468 33.6136 96.2756 33.5322 95.9119 33.3693C95.5521 33.2064 95.2528 32.9583 95.0142 32.625C94.7794 32.2917 94.6619 31.8712 94.6619 31.3636V22.6818ZM102.452 33.7045C101.899 33.7045 101.397 33.6004 100.946 33.392C100.495 33.1799 100.137 32.875 99.8722 32.4773C99.607 32.0758 99.4744 31.5909 99.4744 31.0227C99.4744 30.5227 99.5729 30.1174 99.7699 29.8068C99.9669 29.4924 100.23 29.2462 100.56 29.0682C100.889 28.8902 101.253 28.7576 101.651 28.6705C102.052 28.5795 102.455 28.5076 102.861 28.4545C103.391 28.3864 103.821 28.3352 104.151 28.3011C104.484 28.2633 104.726 28.2008 104.878 28.1136C105.033 28.0265 105.111 27.875 105.111 27.6591V27.6136C105.111 27.053 104.957 26.6174 104.651 26.3068C104.348 25.9962 103.887 25.8409 103.27 25.8409C102.63 25.8409 102.128 25.9811 101.764 26.2614C101.401 26.5417 101.145 26.8409 100.997 27.1591L99.7244 26.7045C99.9517 26.1742 100.255 25.7614 100.634 25.4659C101.016 25.1667 101.433 24.9583 101.884 24.8409C102.338 24.7197 102.785 24.6591 103.224 24.6591C103.505 24.6591 103.827 24.6932 104.19 24.7614C104.558 24.8258 104.912 24.9602 105.253 25.1648C105.598 25.3693 105.884 25.678 106.111 26.0909C106.338 26.5038 106.452 27.0568 106.452 27.75V33.5H105.111V32.3182H105.043C104.952 32.5076 104.8 32.7102 104.588 32.9261C104.376 33.142 104.094 33.3258 103.741 33.4773C103.389 33.6288 102.959 33.7045 102.452 33.7045ZM102.656 32.5C103.187 32.5 103.634 32.3958 103.997 32.1875C104.365 31.9792 104.641 31.7102 104.827 31.3807C105.016 31.0511 105.111 30.7045 105.111 30.3409V29.1136C105.054 29.1818 104.929 29.2443 104.736 29.3011C104.546 29.3542 104.327 29.4015 104.077 29.4432C103.83 29.4811 103.59 29.5152 103.355 29.5455C103.124 29.572 102.937 29.5947 102.793 29.6136C102.444 29.6591 102.118 29.733 101.815 29.8352C101.516 29.9337 101.274 30.0833 101.088 30.2841C100.906 30.4811 100.815 30.75 100.815 31.0909C100.815 31.5568 100.988 31.9091 101.332 32.1477C101.681 32.3826 102.122 32.5 102.656 32.5ZM110.24 21.8636V33.5H108.899V21.8636H110.24ZM117.855 33.5H116.378L120.651 21.8636H122.105L126.378 33.5H124.901L121.423 23.7045H121.332L117.855 33.5ZM118.401 28.9545H124.355V30.2045H118.401V28.9545ZM131.304 33.6818C130.577 33.6818 129.935 33.4981 129.378 33.1307C128.821 32.7595 128.385 32.2367 128.071 31.5625C127.757 30.8845 127.599 30.0833 127.599 29.1591C127.599 28.2424 127.757 27.447 128.071 26.7727C128.385 26.0985 128.823 25.5777 129.384 25.2102C129.944 24.8428 130.592 24.6591 131.327 24.6591C131.895 24.6591 132.344 24.7538 132.673 24.9432C133.007 25.1288 133.26 25.3409 133.435 25.5795C133.613 25.8144 133.751 26.0076 133.849 26.1591H133.963V21.8636H135.304V33.5H134.009V32.1591H133.849C133.751 32.3182 133.611 32.5189 133.429 32.7614C133.247 33 132.988 33.214 132.651 33.4034C132.313 33.589 131.865 33.6818 131.304 33.6818ZM131.486 32.4773C132.024 32.4773 132.478 32.3371 132.849 32.0568C133.221 31.7727 133.503 31.3807 133.696 30.8807C133.889 30.3769 133.986 29.7955 133.986 29.1364C133.986 28.4848 133.891 27.9148 133.702 27.4261C133.512 26.9337 133.232 26.5511 132.861 26.2784C132.49 26.0019 132.031 25.8636 131.486 25.8636C130.918 25.8636 130.444 26.0095 130.065 26.3011C129.69 26.589 129.408 26.9811 129.219 27.4773C129.033 27.9697 128.94 28.5227 128.94 29.1364C128.94 29.7576 129.035 30.322 129.224 30.8295C129.418 31.3333 129.702 31.7348 130.077 32.0341C130.455 32.3295 130.925 32.4773 131.486 32.4773ZM145.082 24.7727L141.855 33.5H140.491L137.264 24.7727H138.719L141.128 31.7273H141.219L143.628 24.7727H145.082ZM146.852 33.5V24.7727H148.193V33.5H146.852ZM147.534 23.3182C147.273 23.3182 147.047 23.2292 146.858 23.0511C146.672 22.8731 146.58 22.6591 146.58 22.4091C146.58 22.1591 146.672 21.9451 146.858 21.767C147.047 21.589 147.273 21.5 147.534 21.5C147.795 21.5 148.019 21.589 148.205 21.767C148.394 21.9451 148.489 22.1591 148.489 22.4091C148.489 22.6591 148.394 22.8731 148.205 23.0511C148.019 23.2292 147.795 23.3182 147.534 23.3182ZM156.831 26.7273L155.626 27.0682C155.551 26.8674 155.439 26.6723 155.291 26.483C155.147 26.2898 154.95 26.1307 154.7 26.0057C154.45 25.8807 154.13 25.8182 153.74 25.8182C153.206 25.8182 152.761 25.9413 152.405 26.1875C152.053 26.4299 151.876 26.7386 151.876 27.1136C151.876 27.447 151.998 27.7102 152.24 27.9034C152.482 28.0966 152.861 28.2576 153.376 28.3864L154.672 28.7045C155.452 28.8939 156.034 29.1837 156.416 29.5739C156.799 29.9602 156.99 30.4583 156.99 31.0682C156.99 31.5682 156.846 32.0152 156.558 32.4091C156.274 32.803 155.876 33.1136 155.365 33.3409C154.854 33.5682 154.259 33.6818 153.581 33.6818C152.691 33.6818 151.954 33.4886 151.371 33.1023C150.787 32.7159 150.418 32.1515 150.263 31.4091L151.536 31.0909C151.657 31.5606 151.886 31.9129 152.223 32.1477C152.564 32.3826 153.009 32.5 153.558 32.5C154.183 32.5 154.679 32.3674 155.047 32.1023C155.418 31.8333 155.604 31.5114 155.604 31.1364C155.604 30.8333 155.498 30.5795 155.286 30.375C155.073 30.1667 154.748 30.0114 154.308 29.9091L152.854 29.5682C152.054 29.3788 151.467 29.0852 151.092 28.6875C150.721 28.286 150.536 27.7841 150.536 27.1818C150.536 26.6894 150.674 26.2538 150.95 25.875C151.231 25.4962 151.611 25.1989 152.092 24.983C152.577 24.767 153.126 24.6591 153.74 24.6591C154.604 24.6591 155.282 24.8485 155.774 25.2273C156.27 25.6061 156.623 26.1061 156.831 26.7273ZM162.554 33.6818C161.766 33.6818 161.075 33.4943 160.48 33.1193C159.889 32.7443 159.427 32.2197 159.094 31.5455C158.764 30.8712 158.599 30.0833 158.599 29.1818C158.599 28.2727 158.764 27.4792 159.094 26.8011C159.427 26.1231 159.889 25.5966 160.48 25.2216C161.075 24.8466 161.766 24.6591 162.554 24.6591C163.342 24.6591 164.031 24.8466 164.622 25.2216C165.217 25.5966 165.679 26.1231 166.009 26.8011C166.342 27.4792 166.509 28.2727 166.509 29.1818C166.509 30.0833 166.342 30.8712 166.009 31.5455C165.679 32.2197 165.217 32.7443 164.622 33.1193C164.031 33.4943 163.342 33.6818 162.554 33.6818ZM162.554 32.4773C163.152 32.4773 163.645 32.3239 164.031 32.017C164.418 31.7102 164.704 31.3068 164.889 30.8068C165.075 30.3068 165.168 29.7652 165.168 29.1818C165.168 28.5985 165.075 28.0549 164.889 27.5511C164.704 27.0473 164.418 26.6402 164.031 26.3295C163.645 26.0189 163.152 25.8636 162.554 25.8636C161.955 25.8636 161.463 26.0189 161.077 26.3295C160.69 26.6402 160.404 27.0473 160.219 27.5511C160.033 28.0549 159.94 28.5985 159.94 29.1818C159.94 29.7652 160.033 30.3068 160.219 30.8068C160.404 31.3068 160.69 31.7102 161.077 32.017C161.463 32.3239 161.955 32.4773 162.554 32.4773ZM168.555 33.5V24.7727H169.851V26.0909H169.942C170.101 25.6591 170.389 25.3087 170.805 25.0398C171.222 24.7708 171.692 24.6364 172.214 24.6364C172.313 24.6364 172.436 24.6383 172.584 24.642C172.732 24.6458 172.843 24.6515 172.919 24.6591V26.0227C172.874 26.0114 172.769 25.9943 172.607 25.9716C172.447 25.9451 172.279 25.9318 172.101 25.9318C171.677 25.9318 171.298 26.0208 170.964 26.1989C170.635 26.3731 170.374 26.6155 170.18 26.9261C169.991 27.233 169.896 27.5833 169.896 27.9773V33.5H168.555Z" fill="#2D2931"/>
</svg>
