<svg width="285" height="56" viewBox="0 0 285 56" fill="none" xmlns="http://www.w3.org/2000/svg">
<path d="M28 25L32.5 20.5M28 30.5L34.5 24M28 35.5L35.5 28" stroke="#1C274C" stroke-width="1.5"/>
<path d="M28 38C32.4183 38 36 34.3541 36 29.8567C36 25.3945 33.4467 20.1876 29.4629 18.3256C28.9986 18.1085 28.4993 18 28 18M28 38C23.5817 38 20 34.3541 20 29.8567C20 25.3945 22.5533 20.1876 26.5371 18.3256C27.0014 18.1085 27.5007 18 28 18M28 38V18" stroke="#1C274C" stroke-width="1.5"/>
<path d="M65.4091 33.5V21.8636H72.3864V23.1136H66.8182V27.0455H71.8636V28.2955H66.8182V33.5H65.4091ZM77.1861 33.7045C76.633 33.7045 76.1312 33.6004 75.6804 33.392C75.2296 33.1799 74.8717 32.875 74.6065 32.4773C74.3414 32.0758 74.2088 31.5909 74.2088 31.0227C74.2088 30.5227 74.3073 30.1174 74.5043 29.8068C74.7012 29.4924 74.9645 29.2462 75.294 29.0682C75.6236 28.8902 75.9872 28.7576 76.3849 28.6705C76.7865 28.5795 77.1899 28.5076 77.5952 28.4545C78.1255 28.3864 78.5554 28.3352 78.8849 28.3011C79.2183 28.2633 79.4607 28.2008 79.6122 28.1136C79.7675 28.0265 79.8452 27.875 79.8452 27.6591V27.6136C79.8452 27.053 79.6918 26.6174 79.3849 26.3068C79.0819 25.9962 78.6217 25.8409 78.0043 25.8409C77.3641 25.8409 76.8622 25.9811 76.4986 26.2614C76.1349 26.5417 75.8793 26.8409 75.7315 27.1591L74.4588 26.7045C74.6861 26.1742 74.9891 25.7614 75.3679 25.4659C75.7505 25.1667 76.1671 24.9583 76.6179 24.8409C77.0724 24.7197 77.5194 24.6591 77.9588 24.6591C78.2391 24.6591 78.5611 24.6932 78.9247 24.7614C79.2921 24.8258 79.6463 24.9602 79.9872 25.1648C80.3319 25.3693 80.6179 25.678 80.8452 26.0909C81.0724 26.5038 81.1861 27.0568 81.1861 27.75V33.5H79.8452V32.3182H79.777C79.6861 32.5076 79.5346 32.7102 79.3224 32.9261C79.1103 33.142 78.8281 33.3258 78.4759 33.4773C78.1236 33.6288 77.6937 33.7045 77.1861 33.7045ZM77.3906 32.5C77.9209 32.5 78.3679 32.3958 78.7315 32.1875C79.099 31.9792 79.3755 31.7102 79.5611 31.3807C79.7505 31.0511 79.8452 30.7045 79.8452 30.3409V29.1136C79.7884 29.1818 79.6634 29.2443 79.4702 29.3011C79.2808 29.3542 79.0611 29.4015 78.8111 29.4432C78.5649 29.4811 78.3243 29.5152 78.0895 29.5455C77.8584 29.572 77.6709 29.5947 77.527 29.6136C77.1785 29.6591 76.8527 29.733 76.5497 29.8352C76.2505 29.9337 76.008 30.0833 75.8224 30.2841C75.6406 30.4811 75.5497 30.75 75.5497 31.0909C75.5497 31.5568 75.7221 31.9091 76.0668 32.1477C76.4152 32.3826 76.8565 32.5 77.3906 32.5ZM83.6335 33.5V24.7727H84.929V26.0909H85.0199C85.179 25.6591 85.4669 25.3087 85.8835 25.0398C86.3002 24.7708 86.7699 24.6364 87.2926 24.6364C87.3911 24.6364 87.5142 24.6383 87.6619 24.642C87.8097 24.6458 87.9214 24.6515 87.9972 24.6591V26.0227C87.9517 26.0114 87.8475 25.9943 87.6847 25.9716C87.5256 25.9451 87.357 25.9318 87.179 25.9318C86.7547 25.9318 86.3759 26.0208 86.0426 26.1989C85.7131 26.3731 85.4517 26.6155 85.2585 26.9261C85.0691 27.233 84.9744 27.5833 84.9744 27.9773V33.5H83.6335ZM89.5866 33.5V24.7727H90.8821V26.1364H90.9957C91.1776 25.6705 91.4711 25.3087 91.8764 25.0511C92.2817 24.7898 92.7685 24.6591 93.3366 24.6591C93.9124 24.6591 94.3916 24.7898 94.7741 25.0511C95.1605 25.3087 95.4616 25.6705 95.6776 26.1364H95.7685C95.992 25.6856 96.3272 25.3277 96.7741 25.0625C97.2211 24.7936 97.7571 24.6591 98.3821 24.6591C99.1624 24.6591 99.8007 24.9034 100.297 25.392C100.793 25.8769 101.041 26.6326 101.041 27.6591V33.5H99.7003V27.6591C99.7003 27.0152 99.5241 26.5549 99.1719 26.2784C98.8196 26.0019 98.4048 25.8636 97.9276 25.8636C97.3139 25.8636 96.8385 26.0492 96.5014 26.4205C96.1643 26.7879 95.9957 27.2538 95.9957 27.8182V33.5H94.6321V27.5227C94.6321 27.0265 94.4711 26.6269 94.1491 26.3239C93.8272 26.017 93.4124 25.8636 92.9048 25.8636C92.5563 25.8636 92.2306 25.9564 91.9276 26.142C91.6283 26.3277 91.3859 26.5852 91.2003 26.9148C91.0185 27.2405 90.9276 27.6174 90.9276 28.0455V33.5H89.5866ZM107.152 33.6818C106.311 33.6818 105.586 33.4962 104.976 33.125C104.37 32.75 103.902 32.2273 103.572 31.5568C103.247 30.8826 103.084 30.0985 103.084 29.2045C103.084 28.3106 103.247 27.5227 103.572 26.8409C103.902 26.1553 104.36 25.6212 104.947 25.2386C105.538 24.8523 106.228 24.6591 107.016 24.6591C107.47 24.6591 107.919 24.7348 108.362 24.8864C108.805 25.0379 109.209 25.2841 109.572 25.625C109.936 25.9621 110.226 26.4091 110.442 26.9659C110.658 27.5227 110.766 28.2083 110.766 29.0227V29.5909H104.038V28.4318H109.402C109.402 27.9394 109.304 27.5 109.107 27.1136C108.913 26.7273 108.637 26.4223 108.277 26.1989C107.921 25.9754 107.5 25.8636 107.016 25.8636C106.482 25.8636 106.019 25.9962 105.629 26.2614C105.243 26.5227 104.946 26.8636 104.737 27.2841C104.529 27.7045 104.425 28.1553 104.425 28.6364V29.4091C104.425 30.0682 104.538 30.6269 104.766 31.0852C104.997 31.5398 105.317 31.8864 105.726 32.125C106.135 32.3598 106.61 32.4773 107.152 32.4773C107.504 32.4773 107.822 32.428 108.107 32.3295C108.394 32.2273 108.643 32.0758 108.851 31.875C109.059 31.6705 109.22 31.4167 109.334 31.1136L110.629 31.4773C110.493 31.9167 110.264 32.303 109.942 32.6364C109.62 32.9659 109.222 33.2235 108.749 33.4091C108.275 33.5909 107.743 33.6818 107.152 33.6818ZM112.805 33.5V24.7727H114.101V26.0909H114.192C114.351 25.6591 114.639 25.3087 115.055 25.0398C115.472 24.7708 115.942 24.6364 116.464 24.6364C116.563 24.6364 116.686 24.6383 116.834 24.642C116.982 24.6458 117.093 24.6515 117.169 24.6591V26.0227C117.124 26.0114 117.019 25.9943 116.857 25.9716C116.697 25.9451 116.529 25.9318 116.351 25.9318C115.927 25.9318 115.548 26.0208 115.214 26.1989C114.885 26.3731 114.624 26.6155 114.43 26.9261C114.241 27.233 114.146 27.5833 114.146 27.9773V33.5H112.805ZM124.94 26.7273L123.736 27.0682C123.66 26.8674 123.548 26.6723 123.401 26.483C123.257 26.2898 123.06 26.1307 122.81 26.0057C122.56 25.8807 122.24 25.8182 121.849 25.8182C121.315 25.8182 120.87 25.9413 120.514 26.1875C120.162 26.4299 119.986 26.7386 119.986 27.1136C119.986 27.447 120.107 27.7102 120.349 27.9034C120.592 28.0966 120.971 28.2576 121.486 28.3864L122.781 28.7045C123.562 28.8939 124.143 29.1837 124.526 29.5739C124.908 29.9602 125.099 30.4583 125.099 31.0682C125.099 31.5682 124.955 32.0152 124.668 32.4091C124.384 32.803 123.986 33.1136 123.474 33.3409C122.963 33.5682 122.368 33.6818 121.69 33.6818C120.8 33.6818 120.063 33.4886 119.48 33.1023C118.897 32.7159 118.527 32.1515 118.372 31.4091L119.645 31.0909C119.766 31.5606 119.995 31.9129 120.332 32.1477C120.673 32.3826 121.118 32.5 121.668 32.5C122.293 32.5 122.789 32.3674 123.156 32.1023C123.527 31.8333 123.713 31.5114 123.713 31.1364C123.713 30.8333 123.607 30.5795 123.395 30.375C123.183 30.1667 122.857 30.0114 122.418 29.9091L120.963 29.5682C120.164 29.3788 119.577 29.0852 119.202 28.6875C118.83 28.286 118.645 27.7841 118.645 27.1818C118.645 26.6894 118.783 26.2538 119.06 25.875C119.34 25.4962 119.721 25.1989 120.202 24.983C120.687 24.767 121.236 24.6591 121.849 24.6591C122.713 24.6591 123.391 24.8485 123.884 25.2273C124.38 25.6061 124.732 26.1061 124.94 26.7273Z" fill="#2D2931"/>
</svg>
