<svg width="285" height="56" viewBox="0 0 285 56" fill="none" xmlns="http://www.w3.org/2000/svg">
<path d="M0 8C0 3.58172 3.58172 0 8 0H277C281.418 0 285 3.58172 285 8V48C285 52.4183 281.418 56 277 56H7.99999C3.58172 56 0 52.4183 0 48V8Z" fill="#2D2931"/>
<path d="M28 34.75C27.59 34.75 27.25 34.41 27.25 34V31C27.25 30.59 27.59 30.25 28 30.25C28.41 30.25 28.75 30.59 28.75 31V34C28.75 34.41 28.41 34.75 28 34.75Z" fill="white"/>
<path d="M33.6 38.5598H22.4C20.58 38.5598 18.92 37.1598 18.62 35.3698L17.29 27.3998C17.07 26.1598 17.68 24.5698 18.67 23.7798L25.6 18.2298C26.94 17.1498 29.05 17.1598 30.4 18.2398L37.33 23.7798C38.31 24.5698 38.91 26.1598 38.71 27.3998L37.38 35.3598C37.08 37.1298 35.38 38.5598 33.6 38.5598ZM27.99 18.9298C27.46 18.9298 26.93 19.0898 26.54 19.3998L19.61 24.9598C19.05 25.4098 18.65 26.4498 18.77 27.1598L20.1 35.1198C20.28 36.1698 21.33 37.0598 22.4 37.0598H33.6C34.67 37.0598 35.72 36.1698 35.9 35.1098L37.23 27.1498C37.34 26.4498 36.94 25.3898 36.39 24.9498L29.46 19.4098C29.06 19.0898 28.52 18.9298 27.99 18.9298Z" fill="white"/>
<path d="M65.4091 33.5V21.8636H66.8182V27.0455H73.0227V21.8636H74.4318V33.5H73.0227V28.2955H66.8182V33.5H65.4091ZM80.6165 33.6818C79.8286 33.6818 79.1373 33.4943 78.5426 33.1193C77.9517 32.7443 77.4896 32.2197 77.1562 31.5455C76.8267 30.8712 76.6619 30.0833 76.6619 29.1818C76.6619 28.2727 76.8267 27.4792 77.1562 26.8011C77.4896 26.1231 77.9517 25.5966 78.5426 25.2216C79.1373 24.8466 79.8286 24.6591 80.6165 24.6591C81.4044 24.6591 82.0938 24.8466 82.6847 25.2216C83.2794 25.5966 83.7415 26.1231 84.071 26.8011C84.4044 27.4792 84.571 28.2727 84.571 29.1818C84.571 30.0833 84.4044 30.8712 84.071 31.5455C83.7415 32.2197 83.2794 32.7443 82.6847 33.1193C82.0938 33.4943 81.4044 33.6818 80.6165 33.6818ZM80.6165 32.4773C81.215 32.4773 81.7074 32.3239 82.0938 32.017C82.4801 31.7102 82.7661 31.3068 82.9517 30.8068C83.1373 30.3068 83.2301 29.7652 83.2301 29.1818C83.2301 28.5985 83.1373 28.0549 82.9517 27.5511C82.7661 27.0473 82.4801 26.6402 82.0938 26.3295C81.7074 26.0189 81.215 25.8636 80.6165 25.8636C80.018 25.8636 79.5256 26.0189 79.1392 26.3295C78.7528 26.6402 78.4669 27.0473 78.2812 27.5511C78.0956 28.0549 78.0028 28.5985 78.0028 29.1818C78.0028 29.7652 78.0956 30.3068 78.2812 30.8068C78.4669 31.3068 78.7528 31.7102 79.1392 32.017C79.5256 32.3239 80.018 32.4773 80.6165 32.4773ZM86.6179 33.5V24.7727H87.9134V26.1364H88.027C88.2088 25.6705 88.5024 25.3087 88.9077 25.0511C89.313 24.7898 89.7997 24.6591 90.3679 24.6591C90.9437 24.6591 91.4228 24.7898 91.8054 25.0511C92.1918 25.3087 92.4929 25.6705 92.7088 26.1364H92.7997C93.0232 25.6856 93.3584 25.3277 93.8054 25.0625C94.2524 24.7936 94.7884 24.6591 95.4134 24.6591C96.1937 24.6591 96.8319 24.9034 97.3281 25.392C97.8243 25.8769 98.0724 26.6326 98.0724 27.6591V33.5H96.7315V27.6591C96.7315 27.0152 96.5554 26.5549 96.2031 26.2784C95.8509 26.0019 95.4361 25.8636 94.9588 25.8636C94.3452 25.8636 93.8698 26.0492 93.5327 26.4205C93.1955 26.7879 93.027 27.2538 93.027 27.8182V33.5H91.6634V27.5227C91.6634 27.0265 91.5024 26.6269 91.1804 26.3239C90.8584 26.017 90.4437 25.8636 89.9361 25.8636C89.5876 25.8636 89.2618 25.9564 88.9588 26.142C88.6596 26.3277 88.4171 26.5852 88.2315 26.9148C88.0497 27.2405 87.9588 27.6174 87.9588 28.0455V33.5H86.6179ZM104.183 33.6818C103.342 33.6818 102.617 33.4962 102.007 33.125C101.401 32.75 100.933 32.2273 100.604 31.5568C100.278 30.8826 100.115 30.0985 100.115 29.2045C100.115 28.3106 100.278 27.5227 100.604 26.8409C100.933 26.1553 101.392 25.6212 101.979 25.2386C102.57 24.8523 103.259 24.6591 104.047 24.6591C104.501 24.6591 104.95 24.7348 105.393 24.8864C105.837 25.0379 106.24 25.2841 106.604 25.625C106.967 25.9621 107.257 26.4091 107.473 26.9659C107.689 27.5227 107.797 28.2083 107.797 29.0227V29.5909H101.07V28.4318H106.433C106.433 27.9394 106.335 27.5 106.138 27.1136C105.945 26.7273 105.668 26.4223 105.308 26.1989C104.952 25.9754 104.532 25.8636 104.047 25.8636C103.513 25.8636 103.051 25.9962 102.661 26.2614C102.274 26.5227 101.977 26.8636 101.768 27.2841C101.56 27.7045 101.456 28.1553 101.456 28.6364V29.4091C101.456 30.0682 101.57 30.6269 101.797 31.0852C102.028 31.5398 102.348 31.8864 102.757 32.125C103.166 32.3598 103.642 32.4773 104.183 32.4773C104.536 32.4773 104.854 32.428 105.138 32.3295C105.426 32.2273 105.674 32.0758 105.882 31.875C106.09 31.6705 106.251 31.4167 106.365 31.1136L107.661 31.4773C107.524 31.9167 107.295 32.303 106.973 32.6364C106.651 32.9659 106.253 33.2235 105.78 33.4091C105.306 33.5909 104.774 33.6818 104.183 33.6818ZM109.837 36.7727V24.7727H111.132V26.1591H111.291C111.39 26.0076 111.526 25.8144 111.7 25.5795C111.878 25.3409 112.132 25.1288 112.462 24.9432C112.795 24.7538 113.246 24.6591 113.814 24.6591C114.549 24.6591 115.196 24.8428 115.757 25.2102C116.318 25.5777 116.755 26.0985 117.07 26.7727C117.384 27.447 117.541 28.2424 117.541 29.1591C117.541 30.0833 117.384 30.8845 117.07 31.5625C116.755 32.2367 116.32 32.7595 115.763 33.1307C115.206 33.4981 114.564 33.6818 113.837 33.6818C113.276 33.6818 112.827 33.589 112.49 33.4034C112.153 33.214 111.893 33 111.712 32.7614C111.53 32.5189 111.39 32.3182 111.291 32.1591H111.178V36.7727H109.837ZM111.155 29.1364C111.155 29.7955 111.251 30.3769 111.445 30.8807C111.638 31.3807 111.92 31.7727 112.291 32.0568C112.662 32.3371 113.117 32.4773 113.655 32.4773C114.215 32.4773 114.683 32.3295 115.058 32.0341C115.437 31.7348 115.721 31.3333 115.911 30.8295C116.104 30.322 116.2 29.7576 116.2 29.1364C116.2 28.5227 116.106 27.9697 115.916 27.4773C115.731 26.9811 115.448 26.589 115.07 26.3011C114.695 26.0095 114.223 25.8636 113.655 25.8636C113.109 25.8636 112.651 26.0019 112.28 26.2784C111.909 26.5511 111.628 26.9337 111.439 27.4261C111.25 27.9148 111.155 28.4848 111.155 29.1364ZM122.155 33.7045C121.602 33.7045 121.1 33.6004 120.649 33.392C120.198 33.1799 119.84 32.875 119.575 32.4773C119.31 32.0758 119.178 31.5909 119.178 31.0227C119.178 30.5227 119.276 30.1174 119.473 29.8068C119.67 29.4924 119.933 29.2462 120.263 29.0682C120.592 28.8902 120.956 28.7576 121.354 28.6705C121.755 28.5795 122.159 28.5076 122.564 28.4545C123.094 28.3864 123.524 28.3352 123.854 28.3011C124.187 28.2633 124.429 28.2008 124.581 28.1136C124.736 28.0265 124.814 27.875 124.814 27.6591V27.6136C124.814 27.053 124.661 26.6174 124.354 26.3068C124.051 25.9962 123.59 25.8409 122.973 25.8409C122.333 25.8409 121.831 25.9811 121.467 26.2614C121.104 26.5417 120.848 26.8409 120.7 27.1591L119.428 26.7045C119.655 26.1742 119.958 25.7614 120.337 25.4659C120.719 25.1667 121.136 24.9583 121.587 24.8409C122.041 24.7197 122.488 24.6591 122.928 24.6591C123.208 24.6591 123.53 24.6932 123.893 24.7614C124.261 24.8258 124.615 24.9602 124.956 25.1648C125.301 25.3693 125.587 25.678 125.814 26.0909C126.041 26.5038 126.155 27.0568 126.155 27.75V33.5H124.814V32.3182H124.746C124.655 32.5076 124.503 32.7102 124.291 32.9261C124.079 33.142 123.797 33.3258 123.445 33.4773C123.092 33.6288 122.662 33.7045 122.155 33.7045ZM122.359 32.5C122.89 32.5 123.337 32.3958 123.7 32.1875C124.068 31.9792 124.344 31.7102 124.53 31.3807C124.719 31.0511 124.814 30.7045 124.814 30.3409V29.1136C124.757 29.1818 124.632 29.2443 124.439 29.3011C124.25 29.3542 124.03 29.4015 123.78 29.4432C123.534 29.4811 123.293 29.5152 123.058 29.5455C122.827 29.572 122.64 29.5947 122.496 29.6136C122.147 29.6591 121.821 29.733 121.518 29.8352C121.219 29.9337 120.977 30.0833 120.791 30.2841C120.609 30.4811 120.518 30.75 120.518 31.0909C120.518 31.5568 120.691 31.9091 121.036 32.1477C121.384 32.3826 121.825 32.5 122.359 32.5ZM132.125 36.9545C131.477 36.9545 130.92 36.8712 130.455 36.7045C129.989 36.5417 129.6 36.3258 129.29 36.0568C128.983 35.7917 128.739 35.5076 128.557 35.2045L129.625 34.4545C129.746 34.6136 129.9 34.7955 130.085 35C130.271 35.2083 130.525 35.3883 130.847 35.5398C131.172 35.6951 131.598 35.7727 132.125 35.7727C132.83 35.7727 133.411 35.6023 133.869 35.2614C134.328 34.9205 134.557 34.3864 134.557 33.6591V31.8864H134.443C134.345 32.0455 134.205 32.2424 134.023 32.4773C133.845 32.7083 133.587 32.9148 133.25 33.0966C132.917 33.2746 132.466 33.3636 131.898 33.3636C131.193 33.3636 130.561 33.197 130 32.8636C129.443 32.5303 129.002 32.0455 128.676 31.4091C128.354 30.7727 128.193 30 128.193 29.0909C128.193 28.197 128.35 27.4186 128.665 26.7557C128.979 26.089 129.417 25.5739 129.977 25.2102C130.538 24.8428 131.186 24.6591 131.92 24.6591C132.489 24.6591 132.939 24.7538 133.273 24.9432C133.61 25.1288 133.867 25.3409 134.045 25.5795C134.227 25.8144 134.367 26.0076 134.466 26.1591H134.602V24.7727H135.898V33.75C135.898 34.5 135.727 35.1098 135.386 35.5795C135.049 36.053 134.595 36.3996 134.023 36.6193C133.455 36.8428 132.822 36.9545 132.125 36.9545ZM132.08 32.1591C132.617 32.1591 133.072 32.036 133.443 31.7898C133.814 31.5436 134.097 31.1894 134.29 30.7273C134.483 30.2652 134.58 29.7121 134.58 29.0682C134.58 28.4394 134.485 27.8845 134.295 27.4034C134.106 26.9223 133.826 26.5455 133.455 26.2727C133.083 26 132.625 25.8636 132.08 25.8636C131.511 25.8636 131.038 26.0076 130.659 26.2955C130.284 26.5833 130.002 26.9697 129.812 27.4545C129.627 27.9394 129.534 28.4773 129.534 29.0682C129.534 29.6742 129.629 30.2102 129.818 30.6761C130.011 31.1383 130.295 31.5019 130.67 31.767C131.049 32.0284 131.519 32.1591 132.08 32.1591ZM142.011 33.6818C141.17 33.6818 140.445 33.4962 139.835 33.125C139.229 32.75 138.761 32.2273 138.432 31.5568C138.106 30.8826 137.943 30.0985 137.943 29.2045C137.943 28.3106 138.106 27.5227 138.432 26.8409C138.761 26.1553 139.22 25.6212 139.807 25.2386C140.398 24.8523 141.087 24.6591 141.875 24.6591C142.33 24.6591 142.778 24.7348 143.222 24.8864C143.665 25.0379 144.068 25.2841 144.432 25.625C144.795 25.9621 145.085 26.4091 145.301 26.9659C145.517 27.5227 145.625 28.2083 145.625 29.0227V29.5909H138.898V28.4318H144.261C144.261 27.9394 144.163 27.5 143.966 27.1136C143.773 26.7273 143.496 26.4223 143.136 26.1989C142.78 25.9754 142.36 25.8636 141.875 25.8636C141.341 25.8636 140.879 25.9962 140.489 26.2614C140.102 26.5227 139.805 26.8636 139.597 27.2841C139.388 27.7045 139.284 28.1553 139.284 28.6364V29.4091C139.284 30.0682 139.398 30.6269 139.625 31.0852C139.856 31.5398 140.176 31.8864 140.585 32.125C140.994 32.3598 141.47 32.4773 142.011 32.4773C142.364 32.4773 142.682 32.428 142.966 32.3295C143.254 32.2273 143.502 32.0758 143.71 31.875C143.919 31.6705 144.08 31.4167 144.193 31.1136L145.489 31.4773C145.352 31.9167 145.123 32.303 144.801 32.6364C144.479 32.9659 144.081 33.2235 143.608 33.4091C143.134 33.5909 142.602 33.6818 142.011 33.6818Z" fill="white"/>
</svg>
