<svg width="48" height="48" viewBox="0 0 48 48" fill="none" xmlns="http://www.w3.org/2000/svg">
<rect x="0.5" y="0.5" width="47" height="47" rx="23.5" stroke="#48A244"/>
<path d="M32.25 16.5H15.75C15.3358 16.5 15 16.8358 15 17.25V30.75C15 31.1642 15.3358 31.5 15.75 31.5H32.25C32.6642 31.5 33 31.1642 33 30.75V17.25C33 16.8358 32.6642 16.5 32.25 16.5Z" stroke="#48A244" stroke-width="1.5" stroke-linecap="round" stroke-linejoin="round"/>
<mask id="path-3-inside-1_2616_42515" fill="white">
<path d="M26.625 22.125C27.0392 22.125 27.375 21.7892 27.375 21.375C27.375 20.9608 27.0392 20.625 26.625 20.625C26.2108 20.625 25.875 20.9608 25.875 21.375C25.875 21.7892 26.2108 22.125 26.625 22.125Z"/>
</mask>
<path d="M26.625 22.125C27.0392 22.125 27.375 21.7892 27.375 21.375C27.375 20.9608 27.0392 20.625 26.625 20.625C26.2108 20.625 25.875 20.9608 25.875 21.375C25.875 21.7892 26.2108 22.125 26.625 22.125Z" fill="#48A244"/>
<path d="M25.875 21.375C25.875 20.9608 26.2108 20.625 26.625 20.625V23.625C27.8676 23.625 28.875 22.6176 28.875 21.375H25.875ZM26.625 20.625C27.0392 20.625 27.375 20.9608 27.375 21.375H24.375C24.375 22.6176 25.3824 23.625 26.625 23.625V20.625ZM27.375 21.375C27.375 21.7892 27.0392 22.125 26.625 22.125V19.125C25.3824 19.125 24.375 20.1324 24.375 21.375H27.375ZM26.625 22.125C26.2108 22.125 25.875 21.7892 25.875 21.375H28.875C28.875 20.1324 27.8676 19.125 26.625 19.125V22.125Z" fill="#48A244" mask="url(#path-3-inside-1_2616_42515)"/>
<path d="M25.8105 27.3751L28.219 24.9695C28.3596 24.829 28.5503 24.75 28.7491 24.75C28.948 24.75 29.1387 24.829 29.2793 24.9695L33.0002 28.6932" stroke="#48A244" stroke-width="1.5" stroke-linecap="round" stroke-linejoin="round"/>
<path d="M15 27.8143L20.0944 22.719C20.164 22.6493 20.2467 22.5939 20.3378 22.5562C20.4288 22.5185 20.5264 22.499 20.625 22.499C20.7236 22.499 20.8212 22.5185 20.9122 22.5562C21.0033 22.5939 21.086 22.6493 21.1556 22.719L29.9353 31.4996" stroke="#48A244" stroke-width="1.5" stroke-linecap="round" stroke-linejoin="round"/>
</svg>
