<svg width="285" height="56" viewBox="0 0 285 56" fill="none" xmlns="http://www.w3.org/2000/svg">
<path d="M37.9999 29.85C37.8699 29.85 37.7399 29.82 37.6199 29.74L35.1199 28.24C33.8199 27.46 32.1999 27.46 30.8899 28.24C29.1099 29.31 26.8999 29.31 25.1199 28.24C23.8199 27.46 22.1999 27.46 20.8899 28.24L18.3899 29.74C18.0299 29.95 17.5699 29.84 17.3599 29.48C17.1499 29.12 17.2599 28.66 17.6199 28.45L20.1199 26.95C21.8999 25.88 24.1099 25.88 25.8899 26.95C27.1899 27.73 28.8099 27.73 30.1199 26.95C31.8999 25.88 34.1099 25.88 35.8899 26.95L38.3899 28.45C38.7499 28.66 38.8599 29.12 38.6499 29.48C38.4999 29.72 38.2499 29.85 37.9999 29.85Z" fill="#2D2931"/>
<path d="M23.0001 22.8503C22.0001 22.8503 21.0001 22.5803 20.1101 22.0503L17.6101 20.5503C17.2501 20.3403 17.1401 19.8803 17.3501 19.5203C17.5601 19.1703 18.0201 19.0503 18.3801 19.2603L20.8801 20.7603C22.1801 21.5403 23.8001 21.5403 25.1101 20.7603C26.8901 19.6903 29.1001 19.6903 30.8801 20.7603C32.1801 21.5403 33.8001 21.5403 35.1101 20.7603L37.6101 19.2603C37.9701 19.0503 38.4301 19.1603 38.6401 19.5203C38.8501 19.8703 38.7401 20.3403 38.3801 20.5503L35.8801 22.0503C34.1001 23.1203 31.8901 23.1203 30.1101 22.0503C28.8101 21.2703 27.1901 21.2703 25.8801 22.0503C25.0001 22.5803 24.0001 22.8503 23.0001 22.8503Z" fill="#2D2931"/>
<path d="M37.9999 36.85C37.8699 36.85 37.7399 36.82 37.6199 36.74L35.1199 35.24C33.8199 34.46 32.1999 34.46 30.8899 35.24C29.1099 36.31 26.8999 36.31 25.1199 35.24C23.8199 34.46 22.1999 34.46 20.8899 35.24L18.3899 36.74C18.0299 36.95 17.5699 36.84 17.3599 36.48C17.1499 36.12 17.2599 35.66 17.6199 35.45L20.1199 33.95C21.8999 32.88 24.1099 32.88 25.8899 33.95C27.1899 34.73 28.8099 34.73 30.1199 33.95C31.8999 32.88 34.1099 32.88 35.8899 33.95L38.3899 35.45C38.7499 35.66 38.8599 36.12 38.6499 36.48C38.4999 36.72 38.2499 36.85 37.9999 36.85Z" fill="#2D2931"/>
<path d="M66.8182 21.8636V33.5H65.4091V21.8636H66.8182ZM69.4616 33.5V24.7727H70.7571V26.0909H70.848C71.0071 25.6591 71.295 25.3087 71.7116 25.0398C72.1283 24.7708 72.598 24.6364 73.1207 24.6364C73.2192 24.6364 73.3423 24.6383 73.4901 24.642C73.6378 24.6458 73.7495 24.6515 73.8253 24.6591V26.0227C73.7798 26.0114 73.6757 25.9943 73.5128 25.9716C73.3537 25.9451 73.1851 25.9318 73.0071 25.9318C72.5829 25.9318 72.2041 26.0208 71.8707 26.1989C71.5412 26.3731 71.2798 26.6155 71.0866 26.9261C70.8973 27.233 70.8026 27.5833 70.8026 27.9773V33.5H69.4616ZM75.4148 33.5V24.7727H76.7102V26.0909H76.8011C76.9602 25.6591 77.2481 25.3087 77.6648 25.0398C78.0814 24.7708 78.5511 24.6364 79.0739 24.6364C79.1723 24.6364 79.2955 24.6383 79.4432 24.642C79.5909 24.6458 79.7027 24.6515 79.7784 24.6591V26.0227C79.733 26.0114 79.6288 25.9943 79.4659 25.9716C79.3068 25.9451 79.1383 25.9318 78.9602 25.9318C78.536 25.9318 78.1572 26.0208 77.8239 26.1989C77.4943 26.3731 77.233 26.6155 77.0398 26.9261C76.8504 27.233 76.7557 27.5833 76.7557 27.9773V33.5H75.4148ZM81.3679 33.5V24.7727H82.7088V33.5H81.3679ZM82.0497 23.3182C81.7884 23.3182 81.563 23.2292 81.3736 23.0511C81.188 22.8731 81.0952 22.6591 81.0952 22.4091C81.0952 22.1591 81.188 21.9451 81.3736 21.767C81.563 21.589 81.7884 21.5 82.0497 21.5C82.3111 21.5 82.5346 21.589 82.7202 21.767C82.9096 21.9451 83.0043 22.1591 83.0043 22.4091C83.0043 22.6591 82.9096 22.8731 82.7202 23.0511C82.5346 23.2292 82.3111 23.3182 82.0497 23.3182ZM88.6875 36.9545C88.0398 36.9545 87.483 36.8712 87.017 36.7045C86.5511 36.5417 86.1629 36.3258 85.8523 36.0568C85.5455 35.7917 85.3011 35.5076 85.1193 35.2045L86.1875 34.4545C86.3087 34.6136 86.4621 34.7955 86.6477 35C86.8333 35.2083 87.0871 35.3883 87.4091 35.5398C87.7348 35.6951 88.161 35.7727 88.6875 35.7727C89.392 35.7727 89.9735 35.6023 90.4318 35.2614C90.8902 34.9205 91.1193 34.3864 91.1193 33.6591V31.8864H91.0057C90.9072 32.0455 90.767 32.2424 90.5852 32.4773C90.4072 32.7083 90.1496 32.9148 89.8125 33.0966C89.4792 33.2746 89.0284 33.3636 88.4602 33.3636C87.7557 33.3636 87.1231 33.197 86.5625 32.8636C86.0057 32.5303 85.5644 32.0455 85.2386 31.4091C84.9167 30.7727 84.7557 30 84.7557 29.0909C84.7557 28.197 84.9129 27.4186 85.2273 26.7557C85.5417 26.089 85.9792 25.5739 86.5398 25.2102C87.1004 24.8428 87.7481 24.6591 88.483 24.6591C89.0511 24.6591 89.5019 24.7538 89.8352 24.9432C90.1723 25.1288 90.4299 25.3409 90.608 25.5795C90.7898 25.8144 90.9299 26.0076 91.0284 26.1591H91.1648V24.7727H92.4602V33.75C92.4602 34.5 92.2898 35.1098 91.9489 35.5795C91.6117 36.053 91.1572 36.3996 90.5852 36.6193C90.017 36.8428 89.3845 36.9545 88.6875 36.9545ZM88.642 32.1591C89.1799 32.1591 89.6345 32.036 90.0057 31.7898C90.3769 31.5436 90.6591 31.1894 90.8523 30.7273C91.0455 30.2652 91.142 29.7121 91.142 29.0682C91.142 28.4394 91.0473 27.8845 90.858 27.4034C90.6686 26.9223 90.3883 26.5455 90.017 26.2727C89.6458 26 89.1875 25.8636 88.642 25.8636C88.0739 25.8636 87.6004 26.0076 87.2216 26.2955C86.8466 26.5833 86.5644 26.9697 86.375 27.4545C86.1894 27.9394 86.0966 28.4773 86.0966 29.0682C86.0966 29.6742 86.1913 30.2102 86.3807 30.6761C86.5739 31.1383 86.858 31.5019 87.233 31.767C87.6117 32.0284 88.0814 32.1591 88.642 32.1591ZM97.483 33.7045C96.9299 33.7045 96.428 33.6004 95.9773 33.392C95.5265 33.1799 95.1686 32.875 94.9034 32.4773C94.6383 32.0758 94.5057 31.5909 94.5057 31.0227C94.5057 30.5227 94.6042 30.1174 94.8011 29.8068C94.9981 29.4924 95.2614 29.2462 95.5909 29.0682C95.9205 28.8902 96.2841 28.7576 96.6818 28.6705C97.0833 28.5795 97.4867 28.5076 97.892 28.4545C98.4223 28.3864 98.8523 28.3352 99.1818 28.3011C99.5152 28.2633 99.7576 28.2008 99.9091 28.1136C100.064 28.0265 100.142 27.875 100.142 27.6591V27.6136C100.142 27.053 99.9886 26.6174 99.6818 26.3068C99.3788 25.9962 98.9186 25.8409 98.3011 25.8409C97.661 25.8409 97.1591 25.9811 96.7955 26.2614C96.4318 26.5417 96.1761 26.8409 96.0284 27.1591L94.7557 26.7045C94.983 26.1742 95.286 25.7614 95.6648 25.4659C96.0473 25.1667 96.464 24.9583 96.9148 24.8409C97.3693 24.7197 97.8163 24.6591 98.2557 24.6591C98.536 24.6591 98.858 24.6932 99.2216 24.7614C99.589 24.8258 99.9432 24.9602 100.284 25.1648C100.629 25.3693 100.915 25.678 101.142 26.0909C101.369 26.5038 101.483 27.0568 101.483 27.75V33.5H100.142V32.3182H100.074C99.983 32.5076 99.8314 32.7102 99.6193 32.9261C99.4072 33.142 99.125 33.3258 98.7727 33.4773C98.4205 33.6288 97.9905 33.7045 97.483 33.7045ZM97.6875 32.5C98.2178 32.5 98.6648 32.3958 99.0284 32.1875C99.3958 31.9792 99.6723 31.7102 99.858 31.3807C100.047 31.0511 100.142 30.7045 100.142 30.3409V29.1136C100.085 29.1818 99.9602 29.2443 99.767 29.3011C99.5777 29.3542 99.358 29.4015 99.108 29.4432C98.8617 29.4811 98.6212 29.5152 98.3864 29.5455C98.1553 29.572 97.9678 29.5947 97.8239 29.6136C97.4754 29.6591 97.1496 29.733 96.8466 29.8352C96.5473 29.9337 96.3049 30.0833 96.1193 30.2841C95.9375 30.4811 95.8466 30.75 95.8466 31.0909C95.8466 31.5568 96.0189 31.9091 96.3636 32.1477C96.7121 32.3826 97.1534 32.5 97.6875 32.5ZM107.726 24.7727V25.9091H103.203V24.7727H107.726ZM104.521 22.6818H105.862V31C105.862 31.3788 105.917 31.6629 106.027 31.8523C106.141 32.0379 106.285 32.1629 106.459 32.2273C106.637 32.2879 106.824 32.3182 107.021 32.3182C107.169 32.3182 107.29 32.3106 107.385 32.2955C107.48 32.2765 107.555 32.2614 107.612 32.25L107.885 33.4545C107.794 33.4886 107.667 33.5227 107.504 33.5568C107.341 33.5947 107.135 33.6136 106.885 33.6136C106.506 33.6136 106.135 33.5322 105.771 33.3693C105.411 33.2064 105.112 32.9583 104.874 32.625C104.639 32.2917 104.521 31.8712 104.521 31.3636V22.6818ZM109.743 33.5V24.7727H111.084V33.5H109.743ZM110.425 23.3182C110.163 23.3182 109.938 23.2292 109.749 23.0511C109.563 22.8731 109.47 22.6591 109.47 22.4091C109.47 22.1591 109.563 21.9451 109.749 21.767C109.938 21.589 110.163 21.5 110.425 21.5C110.686 21.5 110.91 21.589 111.095 21.767C111.285 21.9451 111.379 22.1591 111.379 22.4091C111.379 22.6591 111.285 22.8731 111.095 23.0511C110.91 23.2292 110.686 23.3182 110.425 23.3182ZM117.085 33.6818C116.297 33.6818 115.606 33.4943 115.011 33.1193C114.42 32.7443 113.958 32.2197 113.625 31.5455C113.295 30.8712 113.131 30.0833 113.131 29.1818C113.131 28.2727 113.295 27.4792 113.625 26.8011C113.958 26.1231 114.42 25.5966 115.011 25.2216C115.606 24.8466 116.297 24.6591 117.085 24.6591C117.873 24.6591 118.563 24.8466 119.153 25.2216C119.748 25.5966 120.21 26.1231 120.54 26.8011C120.873 27.4792 121.04 28.2727 121.04 29.1818C121.04 30.0833 120.873 30.8712 120.54 31.5455C120.21 32.2197 119.748 32.7443 119.153 33.1193C118.563 33.4943 117.873 33.6818 117.085 33.6818ZM117.085 32.4773C117.684 32.4773 118.176 32.3239 118.562 32.017C118.949 31.7102 119.235 31.3068 119.42 30.8068C119.606 30.3068 119.699 29.7652 119.699 29.1818C119.699 28.5985 119.606 28.0549 119.42 27.5511C119.235 27.0473 118.949 26.6402 118.562 26.3295C118.176 26.0189 117.684 25.8636 117.085 25.8636C116.487 25.8636 115.994 26.0189 115.608 26.3295C115.222 26.6402 114.936 27.0473 114.75 27.5511C114.564 28.0549 114.472 28.5985 114.472 29.1818C114.472 29.7652 114.564 30.3068 114.75 30.8068C114.936 31.3068 115.222 31.7102 115.608 32.017C115.994 32.3239 116.487 32.4773 117.085 32.4773ZM124.428 28.25V33.5H123.087V24.7727H124.382V26.1364H124.496C124.7 25.6932 125.011 25.3371 125.428 25.0682C125.844 24.7955 126.382 24.6591 127.041 24.6591C127.632 24.6591 128.149 24.7803 128.592 25.0227C129.036 25.2614 129.38 25.625 129.626 26.1136C129.873 26.5985 129.996 27.2121 129.996 27.9545V33.5H128.655V28.0455C128.655 27.3598 128.477 26.8258 128.121 26.4432C127.765 26.0568 127.276 25.8636 126.655 25.8636C126.227 25.8636 125.844 25.9564 125.507 26.142C125.174 26.3277 124.911 26.5985 124.717 26.9545C124.524 27.3106 124.428 27.7424 124.428 28.25Z" fill="#2D2931"/>
</svg>
