<svg width="123" height="38" viewBox="0 0 123 38" fill="none" xmlns="http://www.w3.org/2000/svg">
<path d="M0.5 8C0.5 3.85786 3.85786 0.5 8 0.5H115C119.142 0.5 122.5 3.85786 122.5 8V30C122.5 34.1421 119.142 37.5 115 37.5H8C3.85786 37.5 0.5 34.1421 0.5 30V8Z" stroke="#E2E2E2"/>
<path d="M15.1705 12.9091V26H13.5852V12.9091H15.1705ZM18.1444 26V16.1818H19.6017V17.6648H19.704C19.883 17.179 20.2069 16.7848 20.6756 16.4822C21.1444 16.1797 21.6728 16.0284 22.2608 16.0284C22.3716 16.0284 22.5101 16.0305 22.6763 16.0348C22.8425 16.0391 22.9682 16.0455 23.0534 16.054V17.5881C23.0023 17.5753 22.8851 17.5561 22.7019 17.5305C22.5229 17.5007 22.3333 17.4858 22.133 17.4858C21.6557 17.4858 21.2296 17.5859 20.8546 17.7862C20.4838 17.9822 20.1898 18.255 19.9725 18.6044C19.7594 18.9496 19.6529 19.3437 19.6529 19.7869V26H18.1444ZM24.8416 26V16.1818H26.299V17.6648H26.4013C26.5803 17.179 26.9041 16.7848 27.3729 16.4822C27.8416 16.1797 28.37 16.0284 28.9581 16.0284C29.0689 16.0284 29.2074 16.0305 29.3736 16.0348C29.5398 16.0391 29.6655 16.0455 29.7507 16.054V17.5881C29.6996 17.5753 29.5824 17.5561 29.3991 17.5305C29.2202 17.5007 29.0305 17.4858 28.8303 17.4858C28.353 17.4858 27.9268 17.5859 27.5518 17.7862C27.1811 17.9822 26.8871 18.255 26.6697 18.6044C26.4567 18.9496 26.3501 19.3437 26.3501 19.7869V26H24.8416ZM31.5389 26V16.1818H33.0474V26H31.5389ZM32.3059 14.5455C32.0119 14.5455 31.7583 14.4453 31.5453 14.245C31.3365 14.0447 31.2321 13.804 31.2321 13.5227C31.2321 13.2415 31.3365 13.0007 31.5453 12.8004C31.7583 12.6001 32.0119 12.5 32.3059 12.5C32.6 12.5 32.8514 12.6001 33.0602 12.8004C33.2733 13.0007 33.3798 13.2415 33.3798 13.5227C33.3798 13.804 33.2733 14.0447 33.0602 14.245C32.8514 14.4453 32.6 14.5455 32.3059 14.5455ZM39.7734 29.8864C39.0447 29.8864 38.4183 29.7926 37.8942 29.6051C37.37 29.4219 36.9332 29.179 36.5838 28.8764C36.2386 28.5781 35.9638 28.2585 35.7592 27.9176L36.9609 27.0739C37.0973 27.2528 37.2699 27.4574 37.4787 27.6875C37.6875 27.9219 37.973 28.1243 38.3352 28.2947C38.7017 28.4695 39.1811 28.5568 39.7734 28.5568C40.5661 28.5568 41.2202 28.3651 41.7358 27.9815C42.2514 27.598 42.5092 26.9972 42.5092 26.179V24.1847H42.3814C42.2706 24.3636 42.1129 24.5852 41.9084 24.8494C41.7081 25.1094 41.4183 25.3416 41.0391 25.5462C40.6641 25.7464 40.157 25.8466 39.5178 25.8466C38.7251 25.8466 38.0135 25.6591 37.3828 25.2841C36.7564 24.9091 36.2599 24.3636 35.8935 23.6477C35.5313 22.9318 35.3501 22.0625 35.3501 21.0398C35.3501 20.0341 35.527 19.1584 35.8807 18.4126C36.2344 17.6626 36.7266 17.0831 37.3572 16.674C37.9879 16.2607 38.7166 16.054 39.5433 16.054C40.1825 16.054 40.6896 16.1605 41.0646 16.3736C41.4439 16.5824 41.7337 16.821 41.9339 17.0895C42.1385 17.3537 42.2962 17.571 42.407 17.7415H42.5604V16.1818H44.0178V26.2812C44.0178 27.125 43.826 27.8111 43.4425 28.3395C43.0632 28.8722 42.5518 29.2621 41.9084 29.5092C41.2692 29.7607 40.5575 29.8864 39.7734 29.8864ZM39.7223 24.4915C40.3274 24.4915 40.8388 24.353 41.2564 24.076C41.674 23.799 41.9915 23.4006 42.2088 22.8807C42.4261 22.3608 42.5348 21.7386 42.5348 21.0142C42.5348 20.3068 42.4283 19.6825 42.2152 19.1413C42.0021 18.6001 41.6868 18.1761 41.2692 17.8693C40.8516 17.5625 40.3359 17.4091 39.7223 17.4091C39.0831 17.4091 38.5504 17.571 38.1243 17.8949C37.7024 18.2187 37.3849 18.6534 37.1719 19.1989C36.9631 19.7443 36.8587 20.3494 36.8587 21.0142C36.8587 21.696 36.9652 22.299 37.1783 22.8232C37.3956 23.343 37.7152 23.7521 38.1371 24.0504C38.5632 24.3445 39.0916 24.4915 39.7223 24.4915ZM49.6683 26.2301C49.0462 26.2301 48.4815 26.1129 47.9744 25.8786C47.4673 25.6399 47.0646 25.2969 46.7663 24.8494C46.468 24.3977 46.3189 23.8523 46.3189 23.2131C46.3189 22.6506 46.4297 22.1946 46.6513 21.8452C46.8729 21.4915 47.169 21.2145 47.5398 21.0142C47.9105 20.8139 48.3196 20.6648 48.767 20.5668C49.2188 20.4645 49.6726 20.3835 50.1286 20.3239C50.7251 20.2472 51.2088 20.1896 51.5795 20.1513C51.9545 20.1087 52.2273 20.0384 52.3977 19.9403C52.5724 19.8423 52.6598 19.6719 52.6598 19.429V19.3778C52.6598 18.7472 52.4872 18.2571 52.142 17.9077C51.8011 17.5582 51.2834 17.3835 50.5888 17.3835C49.8686 17.3835 49.304 17.5412 48.8949 17.8565C48.4858 18.1719 48.1982 18.5085 48.032 18.8665L46.6001 18.3551C46.8558 17.7585 47.1967 17.294 47.6229 16.9616C48.0533 16.625 48.522 16.3906 49.0291 16.2585C49.5405 16.1222 50.0433 16.054 50.5376 16.054C50.853 16.054 51.2152 16.0923 51.6243 16.169C52.0376 16.2415 52.4361 16.3928 52.8196 16.6229C53.2074 16.853 53.5291 17.2003 53.7848 17.6648C54.0405 18.1293 54.1683 18.7514 54.1683 19.5312V26H52.6598V24.6705H52.5831C52.4808 24.8835 52.3104 25.1115 52.0717 25.3544C51.8331 25.5973 51.5156 25.804 51.1193 25.9744C50.723 26.1449 50.2393 26.2301 49.6683 26.2301ZM49.8984 24.875C50.495 24.875 50.9979 24.7578 51.407 24.5234C51.8203 24.2891 52.1314 23.9865 52.3402 23.6158C52.5533 23.245 52.6598 22.8551 52.6598 22.446V21.0653C52.5959 21.142 52.4553 21.2124 52.2379 21.2763C52.0249 21.3359 51.7777 21.3892 51.4964 21.4361C51.2195 21.4787 50.9489 21.517 50.6847 21.5511C50.4247 21.581 50.2138 21.6065 50.0518 21.6278C49.6598 21.679 49.2933 21.7621 48.9524 21.8771C48.6158 21.9879 48.343 22.1562 48.1342 22.3821C47.9297 22.6037 47.8274 22.9062 47.8274 23.2898C47.8274 23.8139 48.0213 24.2102 48.4091 24.4787C48.8011 24.7429 49.2976 24.875 49.8984 24.875ZM61.1916 16.1818V17.4602H56.1035V16.1818H61.1916ZM57.5865 13.8295H59.095V23.1875C59.095 23.6136 59.1568 23.9332 59.2804 24.1463C59.4082 24.3551 59.5701 24.4957 59.7662 24.5682C59.9664 24.6364 60.1774 24.6705 60.399 24.6705C60.5652 24.6705 60.7015 24.6619 60.8081 24.6449C60.9146 24.6236 60.9998 24.6065 61.0637 24.5938L61.3706 25.9489C61.2683 25.9872 61.1255 26.0256 60.9423 26.0639C60.7591 26.1065 60.5268 26.1278 60.2456 26.1278C59.8194 26.1278 59.4018 26.0362 58.9927 25.853C58.5879 25.6697 58.2512 25.3906 57.9828 25.0156C57.7186 24.6406 57.5865 24.1676 57.5865 23.5966V13.8295ZM63.4608 26V16.1818H64.9693V26H63.4608ZM64.2278 14.5455C63.9338 14.5455 63.6802 14.4453 63.4672 14.245C63.2583 14.0447 63.1539 13.804 63.1539 13.5227C63.1539 13.2415 63.2583 13.0007 63.4672 12.8004C63.6802 12.6001 63.9338 12.5 64.2278 12.5C64.5218 12.5 64.7733 12.6001 64.9821 12.8004C65.1951 13.0007 65.3017 13.2415 65.3017 13.5227C65.3017 13.804 65.1951 14.0447 64.9821 14.245C64.7733 14.4453 64.5218 14.5455 64.2278 14.5455ZM71.7209 26.2045C70.8345 26.2045 70.0568 25.9936 69.3878 25.5717C68.723 25.1499 68.2031 24.5597 67.8281 23.8011C67.4574 23.0426 67.272 22.1562 67.272 21.142C67.272 20.1193 67.4574 19.2266 67.8281 18.4638C68.2031 17.701 68.723 17.1087 69.3878 16.6868C70.0568 16.2649 70.8345 16.054 71.7209 16.054C72.6072 16.054 73.3828 16.2649 74.0476 16.6868C74.7166 17.1087 75.2365 17.701 75.6072 18.4638C75.9822 19.2266 76.1697 20.1193 76.1697 21.142C76.1697 22.1562 75.9822 23.0426 75.6072 23.8011C75.2365 24.5597 74.7166 25.1499 74.0476 25.5717C73.3828 25.9936 72.6072 26.2045 71.7209 26.2045ZM71.7209 24.8494C72.3942 24.8494 72.9482 24.6768 73.3828 24.3317C73.8175 23.9865 74.1392 23.5327 74.348 22.9702C74.5568 22.4077 74.6612 21.7983 74.6612 21.142C74.6612 20.4858 74.5568 19.8743 74.348 19.3075C74.1392 18.7408 73.8175 18.2827 73.3828 17.9332C72.9482 17.5838 72.3942 17.4091 71.7209 17.4091C71.0476 17.4091 70.4936 17.5838 70.0589 17.9332C69.6243 18.2827 69.3026 18.7408 69.0938 19.3075C68.8849 19.8743 68.7805 20.4858 68.7805 21.142C68.7805 21.7983 68.8849 22.4077 69.0938 22.9702C69.3026 23.5327 69.6243 23.9865 70.0589 24.3317C70.4936 24.6768 71.0476 24.8494 71.7209 24.8494ZM79.981 20.0938V26H78.4725V16.1818H79.9299V17.7159H80.0577C80.2878 17.2173 80.6373 16.8168 81.106 16.5142C81.5748 16.2074 82.1799 16.054 82.9213 16.054C83.5861 16.054 84.1678 16.1903 84.6664 16.4631C85.165 16.7315 85.5527 17.1406 85.8297 17.6903C86.1067 18.2358 86.2452 18.9261 86.2452 19.7614V26H84.7367V19.8636C84.7367 19.0923 84.5364 18.4915 84.1358 18.0611C83.7353 17.6264 83.1855 17.4091 82.4867 17.4091C82.0051 17.4091 81.5748 17.5135 81.1955 17.7223C80.8205 17.9311 80.5243 18.2358 80.307 18.6364C80.0897 19.0369 79.981 19.5227 79.981 20.0938Z" fill="black"/>
<path d="M98 16L104.5 22L111 16" stroke="black" stroke-linecap="round"/>
</svg>
