<svg width="285" height="56" viewBox="0 0 285 56" fill="none" xmlns="http://www.w3.org/2000/svg">
<rect width="285" height="56" rx="8" fill="white"/>
<path d="M31.24 38.27H31.11C26.67 38.27 24.53 36.52 24.16 32.6C24.12 32.19 24.42 31.82 24.84 31.78C25.24 31.74 25.62 32.05 25.66 32.46C25.95 35.6 27.43 36.77 31.12 36.77H31.25C35.32 36.77 36.76 35.33 36.76 31.26V24.74C36.76 20.67 35.32 19.23 31.25 19.23H31.12C27.41 19.23 25.93 20.42 25.66 23.62C25.61 24.03 25.26 24.34 24.84 24.3C24.42 24.27 24.12 23.9 24.15 23.49C24.49 19.51 26.64 17.73 31.11 17.73H31.24C36.15 17.73 38.25 19.83 38.25 24.74V31.26C38.25 36.17 36.15 38.27 31.24 38.27Z" fill="#EB5926"/>
<path d="M31.0001 28.75H19.6201C19.2101 28.75 18.8701 28.41 18.8701 28C18.8701 27.59 19.2101 27.25 19.6201 27.25H31.0001C31.4101 27.25 31.7501 27.59 31.7501 28C31.7501 28.41 31.4101 28.75 31.0001 28.75Z" fill="#EB5926"/>
<path d="M21.8499 32.0998C21.6599 32.0998 21.4699 32.0298 21.3199 31.8798L17.9699 28.5298C17.6799 28.2398 17.6799 27.7598 17.9699 27.4698L21.3199 24.1198C21.6099 23.8298 22.0899 23.8298 22.3799 24.1198C22.6699 24.4098 22.6699 24.8898 22.3799 25.1798L19.5599 27.9998L22.3799 30.8198C22.6699 31.1098 22.6699 31.5898 22.3799 31.8798C22.2399 32.0298 22.0399 32.0998 21.8499 32.0998Z" fill="#EB5926"/>
<path d="M65.4091 33.5V21.8636H66.8182V32.25H72.2273V33.5H65.4091ZM77.7727 33.6818C76.9848 33.6818 76.2936 33.4943 75.6989 33.1193C75.108 32.7443 74.6458 32.2197 74.3125 31.5455C73.983 30.8712 73.8182 30.0833 73.8182 29.1818C73.8182 28.2727 73.983 27.4792 74.3125 26.8011C74.6458 26.1231 75.108 25.5966 75.6989 25.2216C76.2936 24.8466 76.9848 24.6591 77.7727 24.6591C78.5606 24.6591 79.25 24.8466 79.8409 25.2216C80.4356 25.5966 80.8977 26.1231 81.2273 26.8011C81.5606 27.4792 81.7273 28.2727 81.7273 29.1818C81.7273 30.0833 81.5606 30.8712 81.2273 31.5455C80.8977 32.2197 80.4356 32.7443 79.8409 33.1193C79.25 33.4943 78.5606 33.6818 77.7727 33.6818ZM77.7727 32.4773C78.3712 32.4773 78.8636 32.3239 79.25 32.017C79.6364 31.7102 79.9223 31.3068 80.108 30.8068C80.2936 30.3068 80.3864 29.7652 80.3864 29.1818C80.3864 28.5985 80.2936 28.0549 80.108 27.5511C79.9223 27.0473 79.6364 26.6402 79.25 26.3295C78.8636 26.0189 78.3712 25.8636 77.7727 25.8636C77.1742 25.8636 76.6818 26.0189 76.2955 26.3295C75.9091 26.6402 75.6231 27.0473 75.4375 27.5511C75.2519 28.0549 75.1591 28.5985 75.1591 29.1818C75.1591 29.7652 75.2519 30.3068 75.4375 30.8068C75.6231 31.3068 75.9091 31.7102 76.2955 32.017C76.6818 32.3239 77.1742 32.4773 77.7727 32.4773ZM87.2969 36.9545C86.6491 36.9545 86.0923 36.8712 85.6264 36.7045C85.1605 36.5417 84.7723 36.3258 84.4616 36.0568C84.1548 35.7917 83.9105 35.5076 83.7287 35.2045L84.7969 34.4545C84.9181 34.6136 85.0715 34.7955 85.2571 35C85.4427 35.2083 85.6965 35.3883 86.0185 35.5398C86.3442 35.6951 86.7704 35.7727 87.2969 35.7727C88.0014 35.7727 88.5829 35.6023 89.0412 35.2614C89.4995 34.9205 89.7287 34.3864 89.7287 33.6591V31.8864H89.6151C89.5166 32.0455 89.3764 32.2424 89.1946 32.4773C89.0166 32.7083 88.759 32.9148 88.4219 33.0966C88.0885 33.2746 87.6378 33.3636 87.0696 33.3636C86.3651 33.3636 85.7325 33.197 85.1719 32.8636C84.6151 32.5303 84.1738 32.0455 83.848 31.4091C83.526 30.7727 83.3651 30 83.3651 29.0909C83.3651 28.197 83.5223 27.4186 83.8366 26.7557C84.151 26.089 84.5885 25.5739 85.1491 25.2102C85.7098 24.8428 86.3575 24.6591 87.0923 24.6591C87.6605 24.6591 88.1113 24.7538 88.4446 24.9432C88.7817 25.1288 89.0393 25.3409 89.2173 25.5795C89.3991 25.8144 89.5393 26.0076 89.6378 26.1591H89.7741V24.7727H91.0696V33.75C91.0696 34.5 90.8991 35.1098 90.5582 35.5795C90.2211 36.053 89.7666 36.3996 89.1946 36.6193C88.6264 36.8428 87.9938 36.9545 87.2969 36.9545ZM87.2514 32.1591C87.7893 32.1591 88.2438 32.036 88.6151 31.7898C88.9863 31.5436 89.2685 31.1894 89.4616 30.7273C89.6548 30.2652 89.7514 29.7121 89.7514 29.0682C89.7514 28.4394 89.6567 27.8845 89.4673 27.4034C89.2779 26.9223 88.9976 26.5455 88.6264 26.2727C88.2552 26 87.7969 25.8636 87.2514 25.8636C86.6832 25.8636 86.2098 26.0076 85.831 26.2955C85.456 26.5833 85.1738 26.9697 84.9844 27.4545C84.7988 27.9394 84.706 28.4773 84.706 29.0682C84.706 29.6742 84.8007 30.2102 84.9901 30.6761C85.1832 31.1383 85.4673 31.5019 85.8423 31.767C86.2211 32.0284 86.6908 32.1591 87.2514 32.1591ZM101.57 33.6818C100.782 33.6818 100.09 33.4943 99.4957 33.1193C98.9048 32.7443 98.4427 32.2197 98.1094 31.5455C97.7798 30.8712 97.6151 30.0833 97.6151 29.1818C97.6151 28.2727 97.7798 27.4792 98.1094 26.8011C98.4427 26.1231 98.9048 25.5966 99.4957 25.2216C100.09 24.8466 100.782 24.6591 101.57 24.6591C102.357 24.6591 103.047 24.8466 103.638 25.2216C104.232 25.5966 104.695 26.1231 105.024 26.8011C105.357 27.4792 105.524 28.2727 105.524 29.1818C105.524 30.0833 105.357 30.8712 105.024 31.5455C104.695 32.2197 104.232 32.7443 103.638 33.1193C103.047 33.4943 102.357 33.6818 101.57 33.6818ZM101.57 32.4773C102.168 32.4773 102.661 32.3239 103.047 32.017C103.433 31.7102 103.719 31.3068 103.905 30.8068C104.09 30.3068 104.183 29.7652 104.183 29.1818C104.183 28.5985 104.09 28.0549 103.905 27.5511C103.719 27.0473 103.433 26.6402 103.047 26.3295C102.661 26.0189 102.168 25.8636 101.57 25.8636C100.971 25.8636 100.479 26.0189 100.092 26.3295C99.706 26.6402 99.42 27.0473 99.2344 27.5511C99.0488 28.0549 98.956 28.5985 98.956 29.1818C98.956 29.7652 99.0488 30.3068 99.2344 30.8068C99.42 31.3068 99.706 31.7102 100.092 32.017C100.479 32.3239 100.971 32.4773 101.57 32.4773ZM113.071 29.9318V24.7727H114.412V33.5H113.071V32.0227H112.98C112.776 32.4659 112.457 32.8428 112.026 33.1534C111.594 33.4602 111.048 33.6136 110.389 33.6136C109.844 33.6136 109.359 33.4943 108.935 33.2557C108.51 33.0133 108.177 32.6496 107.935 32.1648C107.692 31.6761 107.571 31.0606 107.571 30.3182V24.7727H108.912V30.2273C108.912 30.8636 109.09 31.3712 109.446 31.75C109.806 32.1288 110.264 32.3182 110.821 32.3182C111.154 32.3182 111.493 32.233 111.838 32.0625C112.187 31.892 112.478 31.6307 112.713 31.2784C112.952 30.9261 113.071 30.4773 113.071 29.9318ZM120.663 24.7727V25.9091H116.141V24.7727H120.663ZM117.459 22.6818H118.8V31C118.8 31.3788 118.855 31.6629 118.964 31.8523C119.078 32.0379 119.222 32.1629 119.396 32.2273C119.574 32.2879 119.762 32.3182 119.959 32.3182C120.107 32.3182 120.228 32.3106 120.322 32.2955C120.417 32.2765 120.493 32.2614 120.55 32.25L120.822 33.4545C120.732 33.4886 120.605 33.5227 120.442 33.5568C120.279 33.5947 120.072 33.6136 119.822 33.6136C119.444 33.6136 119.072 33.5322 118.709 33.3693C118.349 33.2064 118.05 32.9583 117.811 32.625C117.576 32.2917 117.459 31.8712 117.459 31.3636V22.6818Z" fill="#EB5926"/>
</svg>
