<svg width="121" height="40" viewBox="0 0 121 40" fill="none" xmlns="http://www.w3.org/2000/svg">
<rect width="121" height="40" rx="8" fill="#EB5627" fill-opacity="0.1"/>
<path d="M17.4091 25.5V13.8636H18.8182V24.25H24.2273V25.5H17.4091ZM29.7727 25.6818C28.9848 25.6818 28.2936 25.4943 27.6989 25.1193C27.108 24.7443 26.6458 24.2197 26.3125 23.5455C25.983 22.8712 25.8182 22.0833 25.8182 21.1818C25.8182 20.2727 25.983 19.4792 26.3125 18.8011C26.6458 18.1231 27.108 17.5966 27.6989 17.2216C28.2936 16.8466 28.9848 16.6591 29.7727 16.6591C30.5606 16.6591 31.25 16.8466 31.8409 17.2216C32.4356 17.5966 32.8977 18.1231 33.2273 18.8011C33.5606 19.4792 33.7273 20.2727 33.7273 21.1818C33.7273 22.0833 33.5606 22.8712 33.2273 23.5455C32.8977 24.2197 32.4356 24.7443 31.8409 25.1193C31.25 25.4943 30.5606 25.6818 29.7727 25.6818ZM29.7727 24.4773C30.3712 24.4773 30.8636 24.3239 31.25 24.017C31.6364 23.7102 31.9223 23.3068 32.108 22.8068C32.2936 22.3068 32.3864 21.7652 32.3864 21.1818C32.3864 20.5985 32.2936 20.0549 32.108 19.5511C31.9223 19.0473 31.6364 18.6402 31.25 18.3295C30.8636 18.0189 30.3712 17.8636 29.7727 17.8636C29.1742 17.8636 28.6818 18.0189 28.2955 18.3295C27.9091 18.6402 27.6231 19.0473 27.4375 19.5511C27.2519 20.0549 27.1591 20.5985 27.1591 21.1818C27.1591 21.7652 27.2519 22.3068 27.4375 22.8068C27.6231 23.3068 27.9091 23.7102 28.2955 24.017C28.6818 24.3239 29.1742 24.4773 29.7727 24.4773ZM39.2969 28.9545C38.6491 28.9545 38.0923 28.8712 37.6264 28.7045C37.1605 28.5417 36.7723 28.3258 36.4616 28.0568C36.1548 27.7917 35.9105 27.5076 35.7287 27.2045L36.7969 26.4545C36.9181 26.6136 37.0715 26.7955 37.2571 27C37.4427 27.2083 37.6965 27.3883 38.0185 27.5398C38.3442 27.6951 38.7704 27.7727 39.2969 27.7727C40.0014 27.7727 40.5829 27.6023 41.0412 27.2614C41.4995 26.9205 41.7287 26.3864 41.7287 25.6591V23.8864H41.6151C41.5166 24.0455 41.3764 24.2424 41.1946 24.4773C41.0166 24.7083 40.759 24.9148 40.4219 25.0966C40.0885 25.2746 39.6378 25.3636 39.0696 25.3636C38.3651 25.3636 37.7325 25.197 37.1719 24.8636C36.6151 24.5303 36.1738 24.0455 35.848 23.4091C35.526 22.7727 35.3651 22 35.3651 21.0909C35.3651 20.197 35.5223 19.4186 35.8366 18.7557C36.151 18.089 36.5885 17.5739 37.1491 17.2102C37.7098 16.8428 38.3575 16.6591 39.0923 16.6591C39.6605 16.6591 40.1113 16.7538 40.4446 16.9432C40.7817 17.1288 41.0393 17.3409 41.2173 17.5795C41.3991 17.8144 41.5393 18.0076 41.6378 18.1591H41.7741V16.7727H43.0696V25.75C43.0696 26.5 42.8991 27.1098 42.5582 27.5795C42.2211 28.053 41.7666 28.3996 41.1946 28.6193C40.6264 28.8428 39.9938 28.9545 39.2969 28.9545ZM39.2514 24.1591C39.7893 24.1591 40.2438 24.036 40.6151 23.7898C40.9863 23.5436 41.2685 23.1894 41.4616 22.7273C41.6548 22.2652 41.7514 21.7121 41.7514 21.0682C41.7514 20.4394 41.6567 19.8845 41.4673 19.4034C41.2779 18.9223 40.9976 18.5455 40.6264 18.2727C40.2552 18 39.7969 17.8636 39.2514 17.8636C38.6832 17.8636 38.2098 18.0076 37.831 18.2955C37.456 18.5833 37.1738 18.9697 36.9844 19.4545C36.7988 19.9394 36.706 20.4773 36.706 21.0682C36.706 21.6742 36.8007 22.2102 36.9901 22.6761C37.1832 23.1383 37.4673 23.5019 37.8423 23.767C38.2211 24.0284 38.6908 24.1591 39.2514 24.1591ZM53.5696 25.6818C52.7817 25.6818 52.0904 25.4943 51.4957 25.1193C50.9048 24.7443 50.4427 24.2197 50.1094 23.5455C49.7798 22.8712 49.6151 22.0833 49.6151 21.1818C49.6151 20.2727 49.7798 19.4792 50.1094 18.8011C50.4427 18.1231 50.9048 17.5966 51.4957 17.2216C52.0904 16.8466 52.7817 16.6591 53.5696 16.6591C54.3575 16.6591 55.0469 16.8466 55.6378 17.2216C56.2325 17.5966 56.6946 18.1231 57.0241 18.8011C57.3575 19.4792 57.5241 20.2727 57.5241 21.1818C57.5241 22.0833 57.3575 22.8712 57.0241 23.5455C56.6946 24.2197 56.2325 24.7443 55.6378 25.1193C55.0469 25.4943 54.3575 25.6818 53.5696 25.6818ZM53.5696 24.4773C54.1681 24.4773 54.6605 24.3239 55.0469 24.017C55.4332 23.7102 55.7192 23.3068 55.9048 22.8068C56.0904 22.3068 56.1832 21.7652 56.1832 21.1818C56.1832 20.5985 56.0904 20.0549 55.9048 19.5511C55.7192 19.0473 55.4332 18.6402 55.0469 18.3295C54.6605 18.0189 54.1681 17.8636 53.5696 17.8636C52.9711 17.8636 52.4787 18.0189 52.0923 18.3295C51.706 18.6402 51.42 19.0473 51.2344 19.5511C51.0488 20.0549 50.956 20.5985 50.956 21.1818C50.956 21.7652 51.0488 22.3068 51.2344 22.8068C51.42 23.3068 51.706 23.7102 52.0923 24.017C52.4787 24.3239 52.9711 24.4773 53.5696 24.4773ZM65.071 21.9318V16.7727H66.4119V25.5H65.071V24.0227H64.9801C64.7756 24.4659 64.4574 24.8428 64.0256 25.1534C63.5938 25.4602 63.0483 25.6136 62.3892 25.6136C61.8438 25.6136 61.3589 25.4943 60.9347 25.2557C60.5104 25.0133 60.1771 24.6496 59.9347 24.1648C59.6922 23.6761 59.571 23.0606 59.571 22.3182V16.7727H60.9119V22.2273C60.9119 22.8636 61.09 23.3712 61.446 23.75C61.8059 24.1288 62.2642 24.3182 62.821 24.3182C63.1544 24.3182 63.4934 24.233 63.8381 24.0625C64.1866 23.892 64.4782 23.6307 64.7131 23.2784C64.9517 22.9261 65.071 22.4773 65.071 21.9318ZM72.6634 16.7727V17.9091H68.1406V16.7727H72.6634ZM69.4588 14.6818H70.7997V23C70.7997 23.3788 70.8546 23.6629 70.9645 23.8523C71.0781 24.0379 71.2221 24.1629 71.3963 24.2273C71.5743 24.2879 71.7618 24.3182 71.9588 24.3182C72.1065 24.3182 72.2277 24.3106 72.3224 24.2955C72.4171 24.2765 72.4929 24.2614 72.5497 24.25L72.8224 25.4545C72.7315 25.4886 72.6046 25.5227 72.4418 25.5568C72.2789 25.5947 72.0724 25.6136 71.8224 25.6136C71.4437 25.6136 71.0724 25.5322 70.7088 25.3693C70.349 25.2064 70.0497 24.9583 69.8111 24.625C69.5762 24.2917 69.4588 23.8712 69.4588 23.3636V14.6818Z" fill="#EB5627"/>
<path d="M90.76 9.72953L90.89 9.72953C95.33 9.72953 97.47 11.4795 97.84 15.3995C97.88 15.8095 97.58 16.1795 97.16 16.2195C96.76 16.2595 96.38 15.9495 96.34 15.5395C96.05 12.3995 94.57 11.2295 90.88 11.2295L90.75 11.2295C86.68 11.2295 85.24 12.6695 85.24 16.7395L85.24 23.2595C85.24 27.3295 86.68 28.7695 90.75 28.7695L90.88 28.7695C94.59 28.7695 96.07 27.5795 96.34 24.3795C96.39 23.9695 96.74 23.6595 97.16 23.6995C97.58 23.7295 97.88 24.0995 97.85 24.5095C97.51 28.4895 95.36 30.2695 90.89 30.2695L90.76 30.2695C85.85 30.2695 83.75 28.1695 83.75 23.2595L83.75 16.7395C83.75 11.8295 85.85 9.72953 90.76 9.72953Z" fill="#EB5627"/>
<path d="M90.9999 19.25L102.38 19.25C102.79 19.25 103.13 19.59 103.13 20C103.13 20.41 102.79 20.75 102.38 20.75L90.9999 20.75C90.5899 20.75 90.2499 20.41 90.2499 20C90.2499 19.59 90.5899 19.25 90.9999 19.25Z" fill="#EB5627"/>
<path d="M100.15 15.9002C100.34 15.9002 100.53 15.9702 100.68 16.1202L104.03 19.4702C104.32 19.7602 104.32 20.2402 104.03 20.5302L100.68 23.8802C100.39 24.1702 99.9101 24.1702 99.6201 23.8802C99.3301 23.5902 99.3301 23.1102 99.6201 22.8202L102.44 20.0002L99.6201 17.1802C99.3301 16.8902 99.3301 16.4102 99.6201 16.1202C99.7601 15.9702 99.9601 15.9002 100.15 15.9002Z" fill="#EB5627"/>
</svg>
