<svg width="285" height="56" viewBox="0 0 285 56" fill="none" xmlns="http://www.w3.org/2000/svg">
<path d="M0 8C0 3.58172 3.58172 0 8 0H277C281.418 0 285 3.58172 285 8V48C285 52.4183 281.418 56 277 56H7.99999C3.58172 56 0 52.4183 0 48V8Z" fill="#2D2931"/>
<path d="M25.1596 27.62C25.1296 27.62 25.1096 27.62 25.0796 27.62C25.0296 27.61 24.9596 27.61 24.8996 27.62C21.9996 27.53 19.8096 25.25 19.8096 22.44C19.8096 19.58 22.1396 17.25 24.9996 17.25C27.8596 17.25 30.1896 19.58 30.1896 22.44C30.1796 25.25 27.9796 27.53 25.1896 27.62C25.1796 27.62 25.1696 27.62 25.1596 27.62ZM24.9996 18.75C22.9696 18.75 21.3096 20.41 21.3096 22.44C21.3096 24.44 22.8696 26.05 24.8596 26.12C24.9196 26.11 25.0496 26.11 25.1796 26.12C27.1396 26.03 28.6796 24.42 28.6896 22.44C28.6896 20.41 27.0296 18.75 24.9996 18.75Z" fill="white"/>
<path d="M32.5394 27.75C32.5094 27.75 32.4794 27.75 32.4494 27.74C32.0394 27.78 31.6194 27.49 31.5794 27.08C31.5394 26.67 31.7894 26.3 32.1994 26.25C32.3194 26.24 32.4494 26.24 32.5594 26.24C34.0194 26.16 35.1594 24.96 35.1594 23.49C35.1594 21.97 33.9294 20.74 32.4094 20.74C31.9994 20.75 31.6594 20.41 31.6594 20C31.6594 19.59 31.9994 19.25 32.4094 19.25C34.7494 19.25 36.6594 21.16 36.6594 23.5C36.6594 25.8 34.8594 27.66 32.5694 27.75C32.5594 27.75 32.5494 27.75 32.5394 27.75Z" fill="white"/>
<path d="M25.1696 38.55C23.2096 38.55 21.2396 38.05 19.7496 37.05C18.3596 36.13 17.5996 34.87 17.5996 33.5C17.5996 32.13 18.3596 30.86 19.7496 29.93C22.7496 27.94 27.6096 27.94 30.5896 29.93C31.9696 30.85 32.7396 32.11 32.7396 33.48C32.7396 34.85 31.9796 36.12 30.5896 37.05C29.0896 38.05 27.1296 38.55 25.1696 38.55ZM20.5796 31.19C19.6196 31.83 19.0996 32.65 19.0996 33.51C19.0996 34.36 19.6296 35.18 20.5796 35.81C23.0696 37.48 27.2696 37.48 29.7596 35.81C30.7196 35.17 31.2396 34.35 31.2396 33.49C31.2396 32.64 30.7096 31.82 29.7596 31.19C27.2696 29.53 23.0696 29.53 20.5796 31.19Z" fill="white"/>
<path d="M34.3392 36.75C33.9892 36.75 33.6792 36.51 33.6092 36.15C33.5292 35.74 33.7892 35.35 34.1892 35.26C34.8192 35.13 35.3992 34.88 35.8492 34.53C36.4192 34.1 36.7292 33.56 36.7292 32.99C36.7292 32.42 36.4192 31.88 35.8592 31.46C35.4192 31.12 34.8692 30.88 34.2192 30.73C33.8192 30.64 33.5592 30.24 33.6492 29.83C33.7392 29.43 34.1392 29.17 34.5492 29.26C35.4092 29.45 36.1592 29.79 36.7692 30.26C37.6992 30.96 38.2292 31.95 38.2292 32.99C38.2292 34.03 37.6892 35.02 36.7592 35.73C36.1392 36.21 35.3592 36.56 34.4992 36.73C34.4392 36.75 34.3892 36.75 34.3392 36.75Z" fill="white"/>
<path d="M75.2273 27.6818C75.2273 28.9091 75.0057 29.9697 74.5625 30.8636C74.1193 31.7576 73.5114 32.447 72.7386 32.9318C71.9659 33.4167 71.0833 33.6591 70.0909 33.6591C69.0985 33.6591 68.2159 33.4167 67.4432 32.9318C66.6705 32.447 66.0625 31.7576 65.6193 30.8636C65.1761 29.9697 64.9545 28.9091 64.9545 27.6818C64.9545 26.4545 65.1761 25.3939 65.6193 24.5C66.0625 23.6061 66.6705 22.9167 67.4432 22.4318C68.2159 21.947 69.0985 21.7045 70.0909 21.7045C71.0833 21.7045 71.9659 21.947 72.7386 22.4318C73.5114 22.9167 74.1193 23.6061 74.5625 24.5C75.0057 25.3939 75.2273 26.4545 75.2273 27.6818ZM73.8636 27.6818C73.8636 26.6742 73.6951 25.8239 73.358 25.1307C73.0246 24.4375 72.572 23.9129 72 23.5568C71.4318 23.2008 70.7955 23.0227 70.0909 23.0227C69.3864 23.0227 68.7481 23.2008 68.1761 23.5568C67.608 23.9129 67.1553 24.4375 66.8182 25.1307C66.4848 25.8239 66.3182 26.6742 66.3182 27.6818C66.3182 28.6894 66.4848 29.5398 66.8182 30.233C67.1553 30.9261 67.608 31.4508 68.1761 31.8068C68.7481 32.1629 69.3864 32.3409 70.0909 32.3409C70.7955 32.3409 71.4318 32.1629 72 31.8068C72.572 31.4508 73.0246 30.9261 73.358 30.233C73.6951 29.5398 73.8636 28.6894 73.8636 27.6818ZM80.9602 33.6818C80.1723 33.6818 79.4811 33.4943 78.8864 33.1193C78.2955 32.7443 77.8333 32.2197 77.5 31.5455C77.1705 30.8712 77.0057 30.0833 77.0057 29.1818C77.0057 28.2727 77.1705 27.4792 77.5 26.8011C77.8333 26.1231 78.2955 25.5966 78.8864 25.2216C79.4811 24.8466 80.1723 24.6591 80.9602 24.6591C81.7481 24.6591 82.4375 24.8466 83.0284 25.2216C83.6231 25.5966 84.0852 26.1231 84.4148 26.8011C84.7481 27.4792 84.9148 28.2727 84.9148 29.1818C84.9148 30.0833 84.7481 30.8712 84.4148 31.5455C84.0852 32.2197 83.6231 32.7443 83.0284 33.1193C82.4375 33.4943 81.7481 33.6818 80.9602 33.6818ZM80.9602 32.4773C81.5587 32.4773 82.0511 32.3239 82.4375 32.017C82.8239 31.7102 83.1098 31.3068 83.2955 30.8068C83.4811 30.3068 83.5739 29.7652 83.5739 29.1818C83.5739 28.5985 83.4811 28.0549 83.2955 27.5511C83.1098 27.0473 82.8239 26.6402 82.4375 26.3295C82.0511 26.0189 81.5587 25.8636 80.9602 25.8636C80.3617 25.8636 79.8693 26.0189 79.483 26.3295C79.0966 26.6402 78.8106 27.0473 78.625 27.5511C78.4394 28.0549 78.3466 28.5985 78.3466 29.1818C78.3466 29.7652 78.4394 30.3068 78.625 30.8068C78.8106 31.3068 79.0966 31.7102 79.483 32.017C79.8693 32.3239 80.3617 32.4773 80.9602 32.4773ZM86.9616 33.5V24.7727H88.2571V26.0909H88.348C88.5071 25.6591 88.795 25.3087 89.2116 25.0398C89.6283 24.7708 90.098 24.6364 90.6207 24.6364C90.7192 24.6364 90.8423 24.6383 90.9901 24.642C91.1378 24.6458 91.2495 24.6515 91.3253 24.6591V26.0227C91.2798 26.0114 91.1757 25.9943 91.0128 25.9716C90.8537 25.9451 90.6851 25.9318 90.5071 25.9318C90.0829 25.9318 89.7041 26.0208 89.3707 26.1989C89.0412 26.3731 88.7798 26.6155 88.5866 26.9261C88.3973 27.233 88.3026 27.5833 88.3026 27.9773V33.5H86.9616ZM92.9148 24.7727H94.2557V34.1364C94.2557 34.6742 94.1629 35.1402 93.9773 35.5341C93.7955 35.928 93.5189 36.233 93.1477 36.4489C92.7803 36.6648 92.3163 36.7727 91.7557 36.7727C91.7102 36.7727 91.6648 36.7727 91.6193 36.7727C91.5739 36.7727 91.5284 36.7727 91.483 36.7727V35.5227C91.5284 35.5227 91.5701 35.5227 91.608 35.5227C91.6458 35.5227 91.6875 35.5227 91.733 35.5227C92.142 35.5227 92.4413 35.4015 92.6307 35.1591C92.8201 34.9205 92.9148 34.5795 92.9148 34.1364V24.7727ZM93.5739 23.3182C93.3125 23.3182 93.0871 23.2292 92.8977 23.0511C92.7121 22.8731 92.6193 22.6591 92.6193 22.4091C92.6193 22.1591 92.7121 21.9451 92.8977 21.767C93.0871 21.589 93.3125 21.5 93.5739 21.5C93.8352 21.5 94.0587 21.589 94.2443 21.767C94.4337 21.9451 94.5284 22.1591 94.5284 22.4091C94.5284 22.6591 94.4337 22.8731 94.2443 23.0511C94.0587 23.2292 93.8352 23.3182 93.5739 23.3182ZM99.2798 33.7045C98.7268 33.7045 98.2249 33.6004 97.7741 33.392C97.3234 33.1799 96.9654 32.875 96.7003 32.4773C96.4351 32.0758 96.3026 31.5909 96.3026 31.0227C96.3026 30.5227 96.401 30.1174 96.598 29.8068C96.795 29.4924 97.0582 29.2462 97.3878 29.0682C97.7173 28.8902 98.081 28.7576 98.4787 28.6705C98.8802 28.5795 99.2836 28.5076 99.6889 28.4545C100.219 28.3864 100.649 28.3352 100.979 28.3011C101.312 28.2633 101.554 28.2008 101.706 28.1136C101.861 28.0265 101.939 27.875 101.939 27.6591V27.6136C101.939 27.053 101.786 26.6174 101.479 26.3068C101.176 25.9962 100.715 25.8409 100.098 25.8409C99.4579 25.8409 98.956 25.9811 98.5923 26.2614C98.2287 26.5417 97.973 26.8409 97.8253 27.1591L96.5526 26.7045C96.7798 26.1742 97.0829 25.7614 97.4616 25.4659C97.8442 25.1667 98.2609 24.9583 98.7116 24.8409C99.1662 24.7197 99.6132 24.6591 100.053 24.6591C100.333 24.6591 100.655 24.6932 101.018 24.7614C101.386 24.8258 101.74 24.9602 102.081 25.1648C102.426 25.3693 102.712 25.678 102.939 26.0909C103.166 26.5038 103.28 27.0568 103.28 27.75V33.5H101.939V32.3182H101.871C101.78 32.5076 101.628 32.7102 101.416 32.9261C101.204 33.142 100.922 33.3258 100.57 33.4773C100.217 33.6288 99.7874 33.7045 99.2798 33.7045ZM99.4844 32.5C100.015 32.5 100.462 32.3958 100.825 32.1875C101.193 31.9792 101.469 31.7102 101.655 31.3807C101.844 31.0511 101.939 30.7045 101.939 30.3409V29.1136C101.882 29.1818 101.757 29.2443 101.564 29.3011C101.375 29.3542 101.155 29.4015 100.905 29.4432C100.659 29.4811 100.418 29.5152 100.183 29.5455C99.9522 29.572 99.7647 29.5947 99.6207 29.6136C99.2723 29.6591 98.9465 29.733 98.6435 29.8352C98.3442 29.9337 98.1018 30.0833 97.9162 30.2841C97.7344 30.4811 97.6435 30.75 97.6435 31.0909C97.6435 31.5568 97.8158 31.9091 98.1605 32.1477C98.509 32.3826 98.9503 32.5 99.4844 32.5ZM109.773 23.1136V21.8636H118.5V23.1136H114.841V33.5H113.432V23.1136H109.773ZM122.886 33.6818C122.045 33.6818 121.32 33.4962 120.71 33.125C120.104 32.75 119.636 32.2273 119.307 31.5568C118.981 30.8826 118.818 30.0985 118.818 29.2045C118.818 28.3106 118.981 27.5227 119.307 26.8409C119.636 26.1553 120.095 25.6212 120.682 25.2386C121.273 24.8523 121.962 24.6591 122.75 24.6591C123.205 24.6591 123.653 24.7348 124.097 24.8864C124.54 25.0379 124.943 25.2841 125.307 25.625C125.67 25.9621 125.96 26.4091 126.176 26.9659C126.392 27.5227 126.5 28.2083 126.5 29.0227V29.5909H119.773V28.4318H125.136C125.136 27.9394 125.038 27.5 124.841 27.1136C124.648 26.7273 124.371 26.4223 124.011 26.1989C123.655 25.9754 123.235 25.8636 122.75 25.8636C122.216 25.8636 121.754 25.9962 121.364 26.2614C120.977 26.5227 120.68 26.8636 120.472 27.2841C120.263 27.7045 120.159 28.1553 120.159 28.6364V29.4091C120.159 30.0682 120.273 30.6269 120.5 31.0852C120.731 31.5398 121.051 31.8864 121.46 32.125C121.869 32.3598 122.345 32.4773 122.886 32.4773C123.239 32.4773 123.557 32.428 123.841 32.3295C124.129 32.2273 124.377 32.0758 124.585 31.875C124.794 31.6705 124.955 31.4167 125.068 31.1136L126.364 31.4773C126.227 31.9167 125.998 32.303 125.676 32.6364C125.354 32.9659 124.956 33.2235 124.483 33.4091C124.009 33.5909 123.477 33.6818 122.886 33.6818ZM131.108 33.7045C130.555 33.7045 130.053 33.6004 129.602 33.392C129.152 33.1799 128.794 32.875 128.528 32.4773C128.263 32.0758 128.131 31.5909 128.131 31.0227C128.131 30.5227 128.229 30.1174 128.426 29.8068C128.623 29.4924 128.886 29.2462 129.216 29.0682C129.545 28.8902 129.909 28.7576 130.307 28.6705C130.708 28.5795 131.112 28.5076 131.517 28.4545C132.047 28.3864 132.477 28.3352 132.807 28.3011C133.14 28.2633 133.383 28.2008 133.534 28.1136C133.689 28.0265 133.767 27.875 133.767 27.6591V27.6136C133.767 27.053 133.614 26.6174 133.307 26.3068C133.004 25.9962 132.544 25.8409 131.926 25.8409C131.286 25.8409 130.784 25.9811 130.42 26.2614C130.057 26.5417 129.801 26.8409 129.653 27.1591L128.381 26.7045C128.608 26.1742 128.911 25.7614 129.29 25.4659C129.672 25.1667 130.089 24.9583 130.54 24.8409C130.994 24.7197 131.441 24.6591 131.881 24.6591C132.161 24.6591 132.483 24.6932 132.847 24.7614C133.214 24.8258 133.568 24.9602 133.909 25.1648C134.254 25.3693 134.54 25.678 134.767 26.0909C134.994 26.5038 135.108 27.0568 135.108 27.75V33.5H133.767V32.3182H133.699C133.608 32.5076 133.456 32.7102 133.244 32.9261C133.032 33.142 132.75 33.3258 132.398 33.4773C132.045 33.6288 131.616 33.7045 131.108 33.7045ZM131.312 32.5C131.843 32.5 132.29 32.3958 132.653 32.1875C133.021 31.9792 133.297 31.7102 133.483 31.3807C133.672 31.0511 133.767 30.7045 133.767 30.3409V29.1136C133.71 29.1818 133.585 29.2443 133.392 29.3011C133.203 29.3542 132.983 29.4015 132.733 29.4432C132.487 29.4811 132.246 29.5152 132.011 29.5455C131.78 29.572 131.593 29.5947 131.449 29.6136C131.1 29.6591 130.775 29.733 130.472 29.8352C130.172 29.9337 129.93 30.0833 129.744 30.2841C129.563 30.4811 129.472 30.75 129.472 31.0909C129.472 31.5568 129.644 31.9091 129.989 32.1477C130.337 32.3826 130.778 32.5 131.312 32.5ZM137.555 33.5V24.7727H138.851V26.1364H138.964C139.146 25.6705 139.44 25.3087 139.845 25.0511C140.25 24.7898 140.737 24.6591 141.305 24.6591C141.881 24.6591 142.36 24.7898 142.743 25.0511C143.129 25.3087 143.43 25.6705 143.646 26.1364H143.737C143.961 25.6856 144.296 25.3277 144.743 25.0625C145.19 24.7936 145.726 24.6591 146.351 24.6591C147.131 24.6591 147.769 24.9034 148.266 25.392C148.762 25.8769 149.01 26.6326 149.01 27.6591V33.5H147.669V27.6591C147.669 27.0152 147.493 26.5549 147.141 26.2784C146.788 26.0019 146.374 25.8636 145.896 25.8636C145.283 25.8636 144.807 26.0492 144.47 26.4205C144.133 26.7879 143.964 27.2538 143.964 27.8182V33.5H142.601V27.5227C142.601 27.0265 142.44 26.6269 142.118 26.3239C141.796 26.017 141.381 25.8636 140.874 25.8636C140.525 25.8636 140.199 25.9564 139.896 26.142C139.597 26.3277 139.355 26.5852 139.169 26.9148C138.987 27.2405 138.896 27.6174 138.896 28.0455V33.5H137.555Z" fill="white"/>
</svg>
