<svg width="285" height="56" viewBox="0 0 285 56" fill="none" xmlns="http://www.w3.org/2000/svg">
<path d="M23.8431 19.8021C25.8718 18.6007 26.8862 18 28 18C29.1138 18 30.1282 18.6007 32.1569 19.8021L32.8431 20.2085C34.8718 21.4099 35.8862 22.0106 36.4431 23C37 23.9894 37 25.1908 37 27.5937V28.4063C37 30.8092 37 32.0106 36.4431 33C35.8862 33.9894 34.8718 34.5901 32.8431 35.7915L32.1569 36.1979C30.1282 37.3993 29.1138 38 28 38C26.8862 38 25.8718 37.3993 23.8431 36.1979L23.1569 35.7915C21.1282 34.5901 20.1138 33.9894 19.5569 33C19 32.0106 19 30.8092 19 28.4063V27.5937C19 25.1908 19 23.9894 19.5569 23C20.1138 22.0106 21.1282 21.4099 23.1569 20.2085L23.8431 19.8021Z" stroke="#2D2931" stroke-width="1.5"/>
<circle cx="28" cy="28" r="3" stroke="#2D2931" stroke-width="1.5"/>
<path d="M65.4091 33.5V21.8636H69.3409C70.2538 21.8636 71 22.0284 71.5795 22.358C72.1629 22.6837 72.5947 23.125 72.875 23.6818C73.1553 24.2386 73.2955 24.8598 73.2955 25.5455C73.2955 26.2311 73.1553 26.8542 72.875 27.4148C72.5985 27.9754 72.1705 28.4223 71.5909 28.7557C71.0114 29.0852 70.2689 29.25 69.3636 29.25H66.5455V28H69.3182C69.9432 28 70.4451 27.892 70.8239 27.6761C71.2027 27.4602 71.4773 27.1686 71.6477 26.8011C71.822 26.4299 71.9091 26.0114 71.9091 25.5455C71.9091 25.0795 71.822 24.6629 71.6477 24.2955C71.4773 23.928 71.2008 23.6402 70.8182 23.4318C70.4356 23.2197 69.928 23.1136 69.2955 23.1136H66.8182V33.5H65.4091ZM77.9517 33.7045C77.3987 33.7045 76.8968 33.6004 76.446 33.392C75.9953 33.1799 75.6373 32.875 75.3722 32.4773C75.107 32.0758 74.9744 31.5909 74.9744 31.0227C74.9744 30.5227 75.0729 30.1174 75.2699 29.8068C75.4669 29.4924 75.7301 29.2462 76.0597 29.0682C76.3892 28.8902 76.7528 28.7576 77.1506 28.6705C77.5521 28.5795 77.9555 28.5076 78.3608 28.4545C78.8911 28.3864 79.321 28.3352 79.6506 28.3011C79.9839 28.2633 80.2263 28.2008 80.3778 28.1136C80.5331 28.0265 80.6108 27.875 80.6108 27.6591V27.6136C80.6108 27.053 80.4574 26.6174 80.1506 26.3068C79.8475 25.9962 79.3873 25.8409 78.7699 25.8409C78.1297 25.8409 77.6278 25.9811 77.2642 26.2614C76.9006 26.5417 76.6449 26.8409 76.4972 27.1591L75.2244 26.7045C75.4517 26.1742 75.7547 25.7614 76.1335 25.4659C76.5161 25.1667 76.9328 24.9583 77.3835 24.8409C77.8381 24.7197 78.285 24.6591 78.7244 24.6591C79.0047 24.6591 79.3267 24.6932 79.6903 24.7614C80.0578 24.8258 80.4119 24.9602 80.7528 25.1648C81.0975 25.3693 81.3835 25.678 81.6108 26.0909C81.8381 26.5038 81.9517 27.0568 81.9517 27.75V33.5H80.6108V32.3182H80.5426C80.4517 32.5076 80.3002 32.7102 80.0881 32.9261C79.8759 33.142 79.5938 33.3258 79.2415 33.4773C78.8892 33.6288 78.4593 33.7045 77.9517 33.7045ZM78.1562 32.5C78.6866 32.5 79.1335 32.3958 79.4972 32.1875C79.8646 31.9792 80.1411 31.7102 80.3267 31.3807C80.5161 31.0511 80.6108 30.7045 80.6108 30.3409V29.1136C80.554 29.1818 80.429 29.2443 80.2358 29.3011C80.0464 29.3542 79.8267 29.4015 79.5767 29.4432C79.3305 29.4811 79.09 29.5152 78.8551 29.5455C78.6241 29.572 78.4366 29.5947 78.2926 29.6136C77.9441 29.6591 77.6184 29.733 77.3153 29.8352C77.0161 29.9337 76.7737 30.0833 76.5881 30.2841C76.4063 30.4811 76.3153 30.75 76.3153 31.0909C76.3153 31.5568 76.4877 31.9091 76.8324 32.1477C77.1809 32.3826 77.6222 32.5 78.1562 32.5ZM84.3991 33.5V24.7727H85.6946V26.0909H85.7855C85.9446 25.6591 86.2325 25.3087 86.6491 25.0398C87.0658 24.7708 87.5355 24.6364 88.0582 24.6364C88.1567 24.6364 88.2798 24.6383 88.4276 24.642C88.5753 24.6458 88.687 24.6515 88.7628 24.6591V26.0227C88.7173 26.0114 88.6132 25.9943 88.4503 25.9716C88.2912 25.9451 88.1226 25.9318 87.9446 25.9318C87.5204 25.9318 87.1416 26.0208 86.8082 26.1989C86.4787 26.3731 86.2173 26.6155 86.0241 26.9261C85.8348 27.233 85.7401 27.5833 85.7401 27.9773V33.5H84.3991ZM92.9205 33.7045C92.3674 33.7045 91.8655 33.6004 91.4148 33.392C90.964 33.1799 90.6061 32.875 90.3409 32.4773C90.0758 32.0758 89.9432 31.5909 89.9432 31.0227C89.9432 30.5227 90.0417 30.1174 90.2386 29.8068C90.4356 29.4924 90.6989 29.2462 91.0284 29.0682C91.358 28.8902 91.7216 28.7576 92.1193 28.6705C92.5208 28.5795 92.9242 28.5076 93.3295 28.4545C93.8598 28.3864 94.2898 28.3352 94.6193 28.3011C94.9527 28.2633 95.1951 28.2008 95.3466 28.1136C95.5019 28.0265 95.5795 27.875 95.5795 27.6591V27.6136C95.5795 27.053 95.4261 26.6174 95.1193 26.3068C94.8163 25.9962 94.3561 25.8409 93.7386 25.8409C93.0985 25.8409 92.5966 25.9811 92.233 26.2614C91.8693 26.5417 91.6136 26.8409 91.4659 27.1591L90.1932 26.7045C90.4205 26.1742 90.7235 25.7614 91.1023 25.4659C91.4848 25.1667 91.9015 24.9583 92.3523 24.8409C92.8068 24.7197 93.2538 24.6591 93.6932 24.6591C93.9735 24.6591 94.2955 24.6932 94.6591 24.7614C95.0265 24.8258 95.3807 24.9602 95.7216 25.1648C96.0663 25.3693 96.3523 25.678 96.5795 26.0909C96.8068 26.5038 96.9205 27.0568 96.9205 27.75V33.5H95.5795V32.3182H95.5114C95.4205 32.5076 95.2689 32.7102 95.0568 32.9261C94.8447 33.142 94.5625 33.3258 94.2102 33.4773C93.858 33.6288 93.428 33.7045 92.9205 33.7045ZM93.125 32.5C93.6553 32.5 94.1023 32.3958 94.4659 32.1875C94.8333 31.9792 95.1098 31.7102 95.2955 31.3807C95.4848 31.0511 95.5795 30.7045 95.5795 30.3409V29.1136C95.5227 29.1818 95.3977 29.2443 95.2045 29.3011C95.0152 29.3542 94.7955 29.4015 94.5455 29.4432C94.2992 29.4811 94.0587 29.5152 93.8239 29.5455C93.5928 29.572 93.4053 29.5947 93.2614 29.6136C92.9129 29.6591 92.5871 29.733 92.2841 29.8352C91.9848 29.9337 91.7424 30.0833 91.5568 30.2841C91.375 30.4811 91.2841 30.75 91.2841 31.0909C91.2841 31.5568 91.4564 31.9091 91.8011 32.1477C92.1496 32.3826 92.5909 32.5 93.125 32.5ZM99.3679 33.5V24.7727H100.663V26.1364H100.777C100.959 25.6705 101.252 25.3087 101.658 25.0511C102.063 24.7898 102.55 24.6591 103.118 24.6591C103.694 24.6591 104.173 24.7898 104.555 25.0511C104.942 25.3087 105.243 25.6705 105.459 26.1364H105.55C105.773 25.6856 106.108 25.3277 106.555 25.0625C107.002 24.7936 107.538 24.6591 108.163 24.6591C108.944 24.6591 109.582 24.9034 110.078 25.392C110.574 25.8769 110.822 26.6326 110.822 27.6591V33.5H109.482V27.6591C109.482 27.0152 109.305 26.5549 108.953 26.2784C108.601 26.0019 108.186 25.8636 107.709 25.8636C107.095 25.8636 106.62 26.0492 106.283 26.4205C105.946 26.7879 105.777 27.2538 105.777 27.8182V33.5H104.413V27.5227C104.413 27.0265 104.252 26.6269 103.93 26.3239C103.608 26.017 103.194 25.8636 102.686 25.8636C102.338 25.8636 102.012 25.9564 101.709 26.142C101.41 26.3277 101.167 26.5852 100.982 26.9148C100.8 27.2405 100.709 27.6174 100.709 28.0455V33.5H99.3679ZM116.933 33.6818C116.092 33.6818 115.367 33.4962 114.757 33.125C114.151 32.75 113.683 32.2273 113.354 31.5568C113.028 30.8826 112.865 30.0985 112.865 29.2045C112.865 28.3106 113.028 27.5227 113.354 26.8409C113.683 26.1553 114.142 25.6212 114.729 25.2386C115.32 24.8523 116.009 24.6591 116.797 24.6591C117.251 24.6591 117.7 24.7348 118.143 24.8864C118.587 25.0379 118.99 25.2841 119.354 25.625C119.717 25.9621 120.007 26.4091 120.223 26.9659C120.439 27.5227 120.547 28.2083 120.547 29.0227V29.5909H113.82V28.4318H119.183C119.183 27.9394 119.085 27.5 118.888 27.1136C118.695 26.7273 118.418 26.4223 118.058 26.1989C117.702 25.9754 117.282 25.8636 116.797 25.8636C116.263 25.8636 115.801 25.9962 115.411 26.2614C115.024 26.5227 114.727 26.8636 114.518 27.2841C114.31 27.7045 114.206 28.1553 114.206 28.6364V29.4091C114.206 30.0682 114.32 30.6269 114.547 31.0852C114.778 31.5398 115.098 31.8864 115.507 32.125C115.916 32.3598 116.392 32.4773 116.933 32.4773C117.286 32.4773 117.604 32.428 117.888 32.3295C118.176 32.2273 118.424 32.0758 118.632 31.875C118.84 31.6705 119.001 31.4167 119.115 31.1136L120.411 31.4773C120.274 31.9167 120.045 32.303 119.723 32.6364C119.401 32.9659 119.003 33.2235 118.53 33.4091C118.056 33.5909 117.524 33.6818 116.933 33.6818ZM126.382 24.7727V25.9091H121.859V24.7727H126.382ZM123.178 22.6818H124.518V31C124.518 31.3788 124.573 31.6629 124.683 31.8523C124.797 32.0379 124.941 32.1629 125.115 32.2273C125.293 32.2879 125.481 32.3182 125.678 32.3182C125.825 32.3182 125.946 32.3106 126.041 32.2955C126.136 32.2765 126.212 32.2614 126.268 32.25L126.541 33.4545C126.45 33.4886 126.323 33.5227 126.161 33.5568C125.998 33.5947 125.791 33.6136 125.541 33.6136C125.162 33.6136 124.791 33.5322 124.428 33.3693C124.068 33.2064 123.768 32.9583 123.53 32.625C123.295 32.2917 123.178 31.8712 123.178 31.3636V22.6818ZM131.964 33.6818C131.124 33.6818 130.398 33.4962 129.788 33.125C129.182 32.75 128.714 32.2273 128.385 31.5568C128.059 30.8826 127.896 30.0985 127.896 29.2045C127.896 28.3106 128.059 27.5227 128.385 26.8409C128.714 26.1553 129.173 25.6212 129.76 25.2386C130.351 24.8523 131.04 24.6591 131.828 24.6591C132.283 24.6591 132.732 24.7348 133.175 24.8864C133.618 25.0379 134.021 25.2841 134.385 25.625C134.749 25.9621 135.038 26.4091 135.254 26.9659C135.47 27.5227 135.578 28.2083 135.578 29.0227V29.5909H128.851V28.4318H134.214C134.214 27.9394 134.116 27.5 133.919 27.1136C133.726 26.7273 133.449 26.4223 133.089 26.1989C132.733 25.9754 132.313 25.8636 131.828 25.8636C131.294 25.8636 130.832 25.9962 130.442 26.2614C130.055 26.5227 129.758 26.8636 129.55 27.2841C129.341 27.7045 129.237 28.1553 129.237 28.6364V29.4091C129.237 30.0682 129.351 30.6269 129.578 31.0852C129.809 31.5398 130.129 31.8864 130.538 32.125C130.947 32.3598 131.423 32.4773 131.964 32.4773C132.317 32.4773 132.635 32.428 132.919 32.3295C133.207 32.2273 133.455 32.0758 133.663 31.875C133.872 31.6705 134.033 31.4167 134.146 31.1136L135.442 31.4773C135.305 31.9167 135.076 32.303 134.754 32.6364C134.432 32.9659 134.035 33.2235 133.561 33.4091C133.088 33.5909 132.555 33.6818 131.964 33.6818ZM137.618 33.5V24.7727H138.913V26.0909H139.004C139.163 25.6591 139.451 25.3087 139.868 25.0398C140.285 24.7708 140.754 24.6364 141.277 24.6364C141.375 24.6364 141.499 24.6383 141.646 24.642C141.794 24.6458 141.906 24.6515 141.982 24.6591V26.0227C141.936 26.0114 141.832 25.9943 141.669 25.9716C141.51 25.9451 141.341 25.9318 141.163 25.9318C140.739 25.9318 140.36 26.0208 140.027 26.1989C139.697 26.3731 139.436 26.6155 139.243 26.9261C139.054 27.233 138.959 27.5833 138.959 27.9773V33.5H137.618ZM149.753 26.7273L148.548 27.0682C148.473 26.8674 148.361 26.6723 148.213 26.483C148.069 26.2898 147.872 26.1307 147.622 26.0057C147.372 25.8807 147.052 25.8182 146.662 25.8182C146.128 25.8182 145.683 25.9413 145.327 26.1875C144.974 26.4299 144.798 26.7386 144.798 27.1136C144.798 27.447 144.92 27.7102 145.162 27.9034C145.404 28.0966 145.783 28.2576 146.298 28.3864L147.594 28.7045C148.374 28.8939 148.955 29.1837 149.338 29.5739C149.721 29.9602 149.912 30.4583 149.912 31.0682C149.912 31.5682 149.768 32.0152 149.48 32.4091C149.196 32.803 148.798 33.1136 148.287 33.3409C147.776 33.5682 147.181 33.6818 146.503 33.6818C145.613 33.6818 144.876 33.4886 144.293 33.1023C143.709 32.7159 143.34 32.1515 143.185 31.4091L144.457 31.0909C144.579 31.5606 144.808 31.9129 145.145 32.1477C145.486 32.3826 145.931 32.5 146.48 32.5C147.105 32.5 147.601 32.3674 147.969 32.1023C148.34 31.8333 148.526 31.5114 148.526 31.1364C148.526 30.8333 148.42 30.5795 148.207 30.375C147.995 30.1667 147.67 30.0114 147.23 29.9091L145.776 29.5682C144.976 29.3788 144.389 29.0852 144.014 28.6875C143.643 28.286 143.457 27.7841 143.457 27.1818C143.457 26.6894 143.596 26.2538 143.872 25.875C144.152 25.4962 144.533 25.1989 145.014 24.983C145.499 24.767 146.048 24.6591 146.662 24.6591C147.526 24.6591 148.204 24.8485 148.696 25.2273C149.192 25.6061 149.545 26.1061 149.753 26.7273Z" fill="#2D2931"/>
</svg>
