<svg width="285" height="56" viewBox="0 0 285 56" fill="none" xmlns="http://www.w3.org/2000/svg">
<path d="M28.0005 38.75C23.1205 38.75 19.1505 34.78 19.1505 29.9C19.1205 24.17 24.5805 19.4 26.9305 17.61C27.5605 17.13 28.4405 17.13 29.0705 17.61C31.4205 19.43 36.8805 24.26 36.8505 29.91C36.8505 34.78 32.8805 38.75 28.0005 38.75ZM28.0005 18.75C27.9505 18.75 27.8905 18.77 27.8405 18.81C26.1505 20.1 20.6305 24.71 20.6605 29.9C20.6605 33.96 23.9605 37.25 28.0105 37.25C32.0605 37.25 35.3605 33.96 35.3605 29.91C35.3905 24.79 29.8605 20.12 28.1605 18.81C28.1005 18.77 28.0505 18.75 28.0005 18.75Z" fill="#2D2931"/>
<path d="M71.7727 24.7727C71.7045 24.197 71.428 23.75 70.9432 23.4318C70.4583 23.1136 69.8636 22.9545 69.1591 22.9545C68.6439 22.9545 68.1932 23.0379 67.8068 23.2045C67.4242 23.3712 67.125 23.6004 66.9091 23.892C66.697 24.1837 66.5909 24.5152 66.5909 24.8864C66.5909 25.197 66.6648 25.464 66.8125 25.6875C66.964 25.9072 67.1572 26.0909 67.392 26.2386C67.6269 26.3826 67.8731 26.5019 68.1307 26.5966C68.3883 26.6875 68.625 26.7614 68.8409 26.8182L70.0227 27.1364C70.3258 27.2159 70.6629 27.3258 71.0341 27.4659C71.4091 27.6061 71.767 27.7973 72.108 28.0398C72.4527 28.2784 72.7367 28.5852 72.9602 28.9602C73.1837 29.3352 73.2955 29.7955 73.2955 30.3409C73.2955 30.9697 73.1307 31.5379 72.8011 32.0455C72.4754 32.553 71.9981 32.9564 71.3693 33.2557C70.7443 33.5549 69.9848 33.7045 69.0909 33.7045C68.2576 33.7045 67.536 33.5701 66.9261 33.3011C66.3201 33.0322 65.8428 32.6572 65.4943 32.1761C65.1496 31.6951 64.9545 31.1364 64.9091 30.5H66.3636C66.4015 30.9394 66.5492 31.303 66.8068 31.5909C67.0682 31.875 67.3977 32.0871 67.7955 32.2273C68.197 32.3636 68.6288 32.4318 69.0909 32.4318C69.6288 32.4318 70.1117 32.3447 70.5398 32.1705C70.9678 31.9924 71.3068 31.7462 71.5568 31.4318C71.8068 31.1136 71.9318 30.7424 71.9318 30.3182C71.9318 29.9318 71.8239 29.6174 71.608 29.375C71.392 29.1326 71.108 28.9356 70.7557 28.7841C70.4034 28.6326 70.0227 28.5 69.6136 28.3864L68.1818 27.9773C67.2727 27.7159 66.553 27.3428 66.0227 26.858C65.4924 26.3731 65.2273 25.7386 65.2273 24.9545C65.2273 24.303 65.4034 23.7348 65.7557 23.25C66.1117 22.7614 66.589 22.3826 67.1875 22.1136C67.7898 21.8409 68.4621 21.7045 69.2045 21.7045C69.9545 21.7045 70.6212 21.839 71.2045 22.108C71.7879 22.3731 72.25 22.7367 72.5909 23.1989C72.9356 23.661 73.1174 24.1856 73.1364 24.7727H71.7727ZM79.0895 33.6818C78.2486 33.6818 77.5232 33.4962 76.9134 33.125C76.3073 32.75 75.8395 32.2273 75.5099 31.5568C75.1842 30.8826 75.0213 30.0985 75.0213 29.2045C75.0213 28.3106 75.1842 27.5227 75.5099 26.8409C75.8395 26.1553 76.2978 25.6212 76.8849 25.2386C77.4759 24.8523 78.1652 24.6591 78.9531 24.6591C79.4077 24.6591 79.8565 24.7348 80.2997 24.8864C80.7429 25.0379 81.1463 25.2841 81.5099 25.625C81.8736 25.9621 82.1634 26.4091 82.3793 26.9659C82.5952 27.5227 82.7031 28.2083 82.7031 29.0227V29.5909H75.9759V28.4318H81.3395C81.3395 27.9394 81.241 27.5 81.044 27.1136C80.8509 26.7273 80.5743 26.4223 80.2145 26.1989C79.8584 25.9754 79.438 25.8636 78.9531 25.8636C78.419 25.8636 77.9569 25.9962 77.5668 26.2614C77.1804 26.5227 76.883 26.8636 76.6747 27.2841C76.4664 27.7045 76.3622 28.1553 76.3622 28.6364V29.4091C76.3622 30.0682 76.4759 30.6269 76.7031 31.0852C76.9342 31.5398 77.2543 31.8864 77.6634 32.125C78.0724 32.3598 78.5478 32.4773 79.0895 32.4773C79.4418 32.4773 79.7599 32.428 80.044 32.3295C80.3319 32.2273 80.58 32.0758 80.7884 31.875C80.9967 31.6705 81.1577 31.4167 81.2713 31.1136L82.5668 31.4773C82.4304 31.9167 82.2012 32.303 81.8793 32.6364C81.5573 32.9659 81.1596 33.2235 80.6861 33.4091C80.2126 33.5909 79.6804 33.6818 79.0895 33.6818ZM88.402 33.6818C87.5611 33.6818 86.8357 33.4962 86.2259 33.125C85.6198 32.75 85.152 32.2273 84.8224 31.5568C84.4967 30.8826 84.3338 30.0985 84.3338 29.2045C84.3338 28.3106 84.4967 27.5227 84.8224 26.8409C85.152 26.1553 85.6103 25.6212 86.1974 25.2386C86.7884 24.8523 87.4777 24.6591 88.2656 24.6591C88.7202 24.6591 89.169 24.7348 89.6122 24.8864C90.0554 25.0379 90.4588 25.2841 90.8224 25.625C91.1861 25.9621 91.4759 26.4091 91.6918 26.9659C91.9077 27.5227 92.0156 28.2083 92.0156 29.0227V29.5909H85.2884V28.4318H90.652C90.652 27.9394 90.5535 27.5 90.3565 27.1136C90.1634 26.7273 89.8868 26.4223 89.527 26.1989C89.1709 25.9754 88.7505 25.8636 88.2656 25.8636C87.7315 25.8636 87.2694 25.9962 86.8793 26.2614C86.4929 26.5227 86.1955 26.8636 85.9872 27.2841C85.7789 27.7045 85.6747 28.1553 85.6747 28.6364V29.4091C85.6747 30.0682 85.7884 30.6269 86.0156 31.0852C86.2467 31.5398 86.5668 31.8864 86.9759 32.125C87.3849 32.3598 87.8603 32.4773 88.402 32.4773C88.7543 32.4773 89.0724 32.428 89.3565 32.3295C89.6444 32.2273 89.8925 32.0758 90.1009 31.875C90.3092 31.6705 90.4702 31.4167 90.5838 31.1136L91.8793 31.4773C91.7429 31.9167 91.5137 32.303 91.1918 32.6364C90.8698 32.9659 90.4721 33.2235 89.9986 33.4091C89.5251 33.5909 88.9929 33.6818 88.402 33.6818ZM97.3509 33.6818C96.6236 33.6818 95.9815 33.4981 95.4247 33.1307C94.8679 32.7595 94.4323 32.2367 94.1179 31.5625C93.8035 30.8845 93.6463 30.0833 93.6463 29.1591C93.6463 28.2424 93.8035 27.447 94.1179 26.7727C94.4323 26.0985 94.8698 25.5777 95.4304 25.2102C95.991 24.8428 96.6387 24.6591 97.3736 24.6591C97.9418 24.6591 98.3906 24.7538 98.7202 24.9432C99.0535 25.1288 99.3073 25.3409 99.4815 25.5795C99.6596 25.8144 99.7978 26.0076 99.8963 26.1591H100.01V21.8636H101.351V33.5H100.055V32.1591H99.8963C99.7978 32.3182 99.6577 32.5189 99.4759 32.7614C99.294 33 99.0346 33.214 98.6974 33.4034C98.3603 33.589 97.9115 33.6818 97.3509 33.6818ZM97.5327 32.4773C98.0705 32.4773 98.5251 32.3371 98.8963 32.0568C99.2675 31.7727 99.5497 31.3807 99.7429 30.8807C99.9361 30.3769 100.033 29.7955 100.033 29.1364C100.033 28.4848 99.938 27.9148 99.7486 27.4261C99.5592 26.9337 99.2789 26.5511 98.9077 26.2784C98.5365 26.0019 98.0781 25.8636 97.5327 25.8636C96.9645 25.8636 96.491 26.0095 96.1122 26.3011C95.7372 26.589 95.455 26.9811 95.2656 27.4773C95.08 27.9697 94.9872 28.5227 94.9872 29.1364C94.9872 29.7576 95.0819 30.322 95.2713 30.8295C95.4645 31.3333 95.7486 31.7348 96.1236 32.0341C96.5024 32.3295 96.9721 32.4773 97.5327 32.4773ZM118.493 27.6818C118.493 28.9091 118.271 29.9697 117.828 30.8636C117.385 31.7576 116.777 32.447 116.004 32.9318C115.232 33.4167 114.349 33.6591 113.357 33.6591C112.364 33.6591 111.482 33.4167 110.709 32.9318C109.936 32.447 109.328 31.7576 108.885 30.8636C108.442 29.9697 108.22 28.9091 108.22 27.6818C108.22 26.4545 108.442 25.3939 108.885 24.5C109.328 23.6061 109.936 22.9167 110.709 22.4318C111.482 21.947 112.364 21.7045 113.357 21.7045C114.349 21.7045 115.232 21.947 116.004 22.4318C116.777 22.9167 117.385 23.6061 117.828 24.5C118.271 25.3939 118.493 26.4545 118.493 27.6818ZM117.129 27.6818C117.129 26.6742 116.961 25.8239 116.624 25.1307C116.29 24.4375 115.838 23.9129 115.266 23.5568C114.697 23.2008 114.061 23.0227 113.357 23.0227C112.652 23.0227 112.014 23.2008 111.442 23.5568C110.874 23.9129 110.421 24.4375 110.084 25.1307C109.75 25.8239 109.584 26.6742 109.584 27.6818C109.584 28.6894 109.75 29.5398 110.084 30.233C110.421 30.9261 110.874 31.4508 111.442 31.8068C112.014 32.1629 112.652 32.3409 113.357 32.3409C114.061 32.3409 114.697 32.1629 115.266 31.8068C115.838 31.4508 116.29 30.9261 116.624 30.233C116.961 29.5398 117.129 28.6894 117.129 27.6818ZM120.68 33.5V24.7727H121.976V26.0909H122.067C122.226 25.6591 122.514 25.3087 122.93 25.0398C123.347 24.7708 123.817 24.6364 124.339 24.6364C124.438 24.6364 124.561 24.6383 124.709 24.642C124.857 24.6458 124.968 24.6515 125.044 24.6591V26.0227C124.999 26.0114 124.894 25.9943 124.732 25.9716C124.572 25.9451 124.404 25.9318 124.226 25.9318C123.802 25.9318 123.423 26.0208 123.089 26.1989C122.76 26.3731 122.499 26.6155 122.305 26.9261C122.116 27.233 122.021 27.5833 122.021 27.9773V33.5H120.68ZM129.663 33.6818C128.936 33.6818 128.294 33.4981 127.737 33.1307C127.18 32.7595 126.745 32.2367 126.43 31.5625C126.116 30.8845 125.959 30.0833 125.959 29.1591C125.959 28.2424 126.116 27.447 126.43 26.7727C126.745 26.0985 127.182 25.5777 127.743 25.2102C128.304 24.8428 128.951 24.6591 129.686 24.6591C130.254 24.6591 130.703 24.7538 131.033 24.9432C131.366 25.1288 131.62 25.3409 131.794 25.5795C131.972 25.8144 132.11 26.0076 132.209 26.1591H132.322V21.8636H133.663V33.5H132.368V32.1591H132.209C132.11 32.3182 131.97 32.5189 131.788 32.7614C131.607 33 131.347 33.214 131.01 33.4034C130.673 33.589 130.224 33.6818 129.663 33.6818ZM129.845 32.4773C130.383 32.4773 130.838 32.3371 131.209 32.0568C131.58 31.7727 131.862 31.3807 132.055 30.8807C132.249 30.3769 132.345 29.7955 132.345 29.1364C132.345 28.4848 132.25 27.9148 132.061 27.4261C131.872 26.9337 131.591 26.5511 131.22 26.2784C130.849 26.0019 130.391 25.8636 129.845 25.8636C129.277 25.8636 128.804 26.0095 128.425 26.3011C128.05 26.589 127.768 26.9811 127.578 27.4773C127.393 27.9697 127.3 28.5227 127.3 29.1364C127.3 29.7576 127.394 30.322 127.584 30.8295C127.777 31.3333 128.061 31.7348 128.436 32.0341C128.815 32.3295 129.285 32.4773 129.845 32.4773ZM139.964 33.6818C139.124 33.6818 138.398 33.4962 137.788 33.125C137.182 32.75 136.714 32.2273 136.385 31.5568C136.059 30.8826 135.896 30.0985 135.896 29.2045C135.896 28.3106 136.059 27.5227 136.385 26.8409C136.714 26.1553 137.173 25.6212 137.76 25.2386C138.351 24.8523 139.04 24.6591 139.828 24.6591C140.283 24.6591 140.732 24.7348 141.175 24.8864C141.618 25.0379 142.021 25.2841 142.385 25.625C142.749 25.9621 143.038 26.4091 143.254 26.9659C143.47 27.5227 143.578 28.2083 143.578 29.0227V29.5909H136.851V28.4318H142.214C142.214 27.9394 142.116 27.5 141.919 27.1136C141.726 26.7273 141.449 26.4223 141.089 26.1989C140.733 25.9754 140.313 25.8636 139.828 25.8636C139.294 25.8636 138.832 25.9962 138.442 26.2614C138.055 26.5227 137.758 26.8636 137.55 27.2841C137.341 27.7045 137.237 28.1553 137.237 28.6364V29.4091C137.237 30.0682 137.351 30.6269 137.578 31.0852C137.809 31.5398 138.129 31.8864 138.538 32.125C138.947 32.3598 139.423 32.4773 139.964 32.4773C140.317 32.4773 140.635 32.428 140.919 32.3295C141.207 32.2273 141.455 32.0758 141.663 31.875C141.872 31.6705 142.033 31.4167 142.146 31.1136L143.442 31.4773C143.305 31.9167 143.076 32.303 142.754 32.6364C142.432 32.9659 142.035 33.2235 141.561 33.4091C141.088 33.5909 140.555 33.6818 139.964 33.6818ZM145.618 33.5V24.7727H146.913V26.0909H147.004C147.163 25.6591 147.451 25.3087 147.868 25.0398C148.285 24.7708 148.754 24.6364 149.277 24.6364C149.375 24.6364 149.499 24.6383 149.646 24.642C149.794 24.6458 149.906 24.6515 149.982 24.6591V26.0227C149.936 26.0114 149.832 25.9943 149.669 25.9716C149.51 25.9451 149.341 25.9318 149.163 25.9318C148.739 25.9318 148.36 26.0208 148.027 26.1989C147.697 26.3731 147.436 26.6155 147.243 26.9261C147.054 27.233 146.959 27.5833 146.959 27.9773V33.5H145.618ZM157.753 26.7273L156.548 27.0682C156.473 26.8674 156.361 26.6723 156.213 26.483C156.069 26.2898 155.872 26.1307 155.622 26.0057C155.372 25.8807 155.052 25.8182 154.662 25.8182C154.128 25.8182 153.683 25.9413 153.327 26.1875C152.974 26.4299 152.798 26.7386 152.798 27.1136C152.798 27.447 152.92 27.7102 153.162 27.9034C153.404 28.0966 153.783 28.2576 154.298 28.3864L155.594 28.7045C156.374 28.8939 156.955 29.1837 157.338 29.5739C157.721 29.9602 157.912 30.4583 157.912 31.0682C157.912 31.5682 157.768 32.0152 157.48 32.4091C157.196 32.803 156.798 33.1136 156.287 33.3409C155.776 33.5682 155.181 33.6818 154.503 33.6818C153.613 33.6818 152.876 33.4886 152.293 33.1023C151.709 32.7159 151.34 32.1515 151.185 31.4091L152.457 31.0909C152.579 31.5606 152.808 31.9129 153.145 32.1477C153.486 32.3826 153.931 32.5 154.48 32.5C155.105 32.5 155.601 32.3674 155.969 32.1023C156.34 31.8333 156.526 31.5114 156.526 31.1364C156.526 30.8333 156.42 30.5795 156.207 30.375C155.995 30.1667 155.67 30.0114 155.23 29.9091L153.776 29.5682C152.976 29.3788 152.389 29.0852 152.014 28.6875C151.643 28.286 151.457 27.7841 151.457 27.1818C151.457 26.6894 151.596 26.2538 151.872 25.875C152.152 25.4962 152.533 25.1989 153.014 24.983C153.499 24.767 154.048 24.6591 154.662 24.6591C155.526 24.6591 156.204 24.8485 156.696 25.2273C157.192 25.6061 157.545 26.1061 157.753 26.7273Z" fill="#2D2931"/>
</svg>
