<svg width="461" height="40" viewBox="0 0 461 40" fill="none" xmlns="http://www.w3.org/2000/svg">
<rect width="40" height="40" rx="8" fill="#D1FCD5"/>
<path d="M20.0005 30.75C15.1205 30.75 11.1505 26.78 11.1505 21.9C11.1205 16.17 16.5805 11.4 18.9305 9.61C19.5605 9.13 20.4405 9.13 21.0705 9.61C23.4205 11.43 28.8805 16.26 28.8505 21.91C28.8505 26.78 24.8805 30.75 20.0005 30.75ZM20.0005 10.75C19.9505 10.75 19.8905 10.77 19.8405 10.81C18.1505 12.1 12.6305 16.71 12.6605 21.9C12.6605 25.96 15.9605 29.25 20.0105 29.25C24.0605 29.25 27.3605 25.96 27.3605 21.91C27.3905 16.79 21.8605 12.12 20.1605 10.81C20.1005 10.77 20.0505 10.75 20.0005 10.75Z" fill="#292D32"/>
<path d="M63.4375 15.6307C63.3466 14.8239 62.9716 14.1989 62.3125 13.7557C61.6534 13.3068 60.8239 13.0824 59.8239 13.0824C59.108 13.0824 58.4886 13.196 57.9659 13.4233C57.4432 13.6449 57.0369 13.9517 56.7472 14.3438C56.4631 14.7301 56.321 15.1705 56.321 15.6648C56.321 16.0795 56.4176 16.4375 56.6108 16.7386C56.8097 17.0398 57.0682 17.2926 57.3864 17.4972C57.7102 17.696 58.0568 17.8636 58.4261 18C58.7955 18.1307 59.1506 18.2386 59.4915 18.3239L61.196 18.767C61.7528 18.9034 62.3239 19.0881 62.9091 19.321C63.4943 19.554 64.0369 19.8608 64.5369 20.2415C65.0369 20.6222 65.4403 21.0938 65.7472 21.6562C66.0597 22.2188 66.2159 22.892 66.2159 23.6761C66.2159 24.6648 65.9602 25.5426 65.4489 26.3097C64.9432 27.0767 64.2074 27.6818 63.2415 28.125C62.2813 28.5682 61.1193 28.7898 59.7557 28.7898C58.4489 28.7898 57.3182 28.5824 56.3636 28.1676C55.4091 27.7528 54.6619 27.1648 54.1222 26.4034C53.5824 25.6364 53.2841 24.7273 53.2273 23.6761H55.8693C55.9205 24.3068 56.125 24.8324 56.483 25.2528C56.8466 25.6676 57.3097 25.9773 57.8722 26.1818C58.4403 26.3807 59.0625 26.4801 59.7386 26.4801C60.483 26.4801 61.1449 26.3636 61.7244 26.1307C62.3097 25.892 62.7699 25.5625 63.1051 25.142C63.4403 24.7159 63.608 24.2187 63.608 23.6506C63.608 23.1335 63.4602 22.7102 63.1648 22.3807C62.875 22.0511 62.4801 21.7784 61.9801 21.5625C61.4858 21.3466 60.9261 21.1562 60.3011 20.9915L58.2386 20.429C56.8409 20.0483 55.733 19.4886 54.9148 18.75C54.1023 18.0114 53.696 17.0341 53.696 15.8182C53.696 14.8125 53.9688 13.9347 54.5142 13.1847C55.0597 12.4347 55.7983 11.8523 56.7301 11.4375C57.6619 11.017 58.7131 10.8068 59.8835 10.8068C61.0653 10.8068 62.108 11.0142 63.0114 11.429C63.9205 11.8438 64.6364 12.4148 65.1591 13.142C65.6818 13.8636 65.9545 14.6932 65.9773 15.6307H63.4375ZM74.8004 28.7642C73.5107 28.7642 72.3999 28.4886 71.468 27.9375C70.5419 27.3807 69.826 26.5994 69.3203 25.5938C68.8203 24.5824 68.5703 23.3977 68.5703 22.0398C68.5703 20.6989 68.8203 19.517 69.3203 18.4943C69.826 17.4716 70.5305 16.6733 71.4339 16.0994C72.343 15.5256 73.4055 15.2386 74.6214 15.2386C75.3601 15.2386 76.076 15.3608 76.7692 15.6051C77.4624 15.8494 78.0845 16.233 78.6357 16.7557C79.1868 17.2784 79.6214 17.9574 79.9396 18.7926C80.2578 19.6222 80.4169 20.6307 80.4169 21.8182V22.7216H70.0107V20.8125H77.9197C77.9197 20.142 77.7834 19.5483 77.5107 19.0312C77.2379 18.5085 76.8544 18.0966 76.3601 17.7955C75.8714 17.4943 75.2976 17.3438 74.6385 17.3438C73.9226 17.3438 73.2976 17.5199 72.7635 17.8722C72.2351 18.2187 71.826 18.6733 71.5362 19.2358C71.2521 19.7926 71.1101 20.3977 71.1101 21.0511V22.5426C71.1101 23.4176 71.2635 24.1619 71.5703 24.7756C71.8828 25.3892 72.3175 25.858 72.8743 26.1818C73.4311 26.5 74.0817 26.6591 74.826 26.6591C75.3089 26.6591 75.7493 26.5909 76.147 26.4545C76.5447 26.3125 76.8885 26.1023 77.1783 25.8239C77.468 25.5455 77.6896 25.2017 77.843 24.7926L80.255 25.2273C80.0618 25.9375 79.7152 26.5597 79.2152 27.0938C78.7209 27.6222 78.0987 28.0341 77.3487 28.3295C76.6044 28.6193 75.755 28.7642 74.8004 28.7642ZM88.8864 28.7642C87.5966 28.7642 86.4858 28.4886 85.554 27.9375C84.6278 27.3807 83.9119 26.5994 83.4062 25.5938C82.9062 24.5824 82.6562 23.3977 82.6562 22.0398C82.6562 20.6989 82.9062 19.517 83.4062 18.4943C83.9119 17.4716 84.6165 16.6733 85.5199 16.0994C86.429 15.5256 87.4915 15.2386 88.7074 15.2386C89.446 15.2386 90.1619 15.3608 90.8551 15.6051C91.5483 15.8494 92.1705 16.233 92.7216 16.7557C93.2727 17.2784 93.7074 17.9574 94.0256 18.7926C94.3438 19.6222 94.5028 20.6307 94.5028 21.8182V22.7216H84.0966V20.8125H92.0057C92.0057 20.142 91.8693 19.5483 91.5966 19.0312C91.3239 18.5085 90.9403 18.0966 90.446 17.7955C89.9574 17.4943 89.3835 17.3438 88.7244 17.3438C88.0085 17.3438 87.3835 17.5199 86.8494 17.8722C86.321 18.2187 85.9119 18.6733 85.6222 19.2358C85.3381 19.7926 85.196 20.3977 85.196 21.0511V22.5426C85.196 23.4176 85.3494 24.1619 85.6562 24.7756C85.9688 25.3892 86.4034 25.858 86.9602 26.1818C87.517 26.5 88.1676 26.6591 88.9119 26.6591C89.3949 26.6591 89.8352 26.5909 90.233 26.4545C90.6307 26.3125 90.9744 26.1023 91.2642 25.8239C91.554 25.5455 91.7756 25.2017 91.929 24.7926L94.3409 25.2273C94.1477 25.9375 93.8011 26.5597 93.3011 27.0938C92.8068 27.6222 92.1847 28.0341 91.4347 28.3295C90.6903 28.6193 89.8409 28.7642 88.8864 28.7642ZM102.231 28.7557C101.174 28.7557 100.231 28.4858 99.4013 27.946C98.5774 27.4006 97.9297 26.625 97.4581 25.6193C96.9922 24.608 96.7592 23.3949 96.7592 21.9801C96.7592 20.5653 96.995 19.3551 97.4666 18.3494C97.9439 17.3437 98.5973 16.5739 99.4268 16.0398C100.256 15.5057 101.197 15.2386 102.248 15.2386C103.06 15.2386 103.714 15.375 104.208 15.6477C104.708 15.9148 105.094 16.2273 105.367 16.5852C105.646 16.9432 105.862 17.2585 106.015 17.5312H106.168V11.0455H108.717V28.5H106.228V26.4631H106.015C105.862 26.7415 105.64 27.0597 105.35 27.4176C105.066 27.7756 104.674 28.0881 104.174 28.3551C103.674 28.6222 103.026 28.7557 102.231 28.7557ZM102.793 26.5824C103.526 26.5824 104.146 26.3892 104.651 26.0028C105.163 25.6108 105.549 25.0682 105.81 24.375C106.077 23.6818 106.211 22.875 106.211 21.9545C106.211 21.0455 106.08 20.25 105.819 19.5682C105.558 18.8864 105.174 18.3551 104.668 17.9744C104.163 17.5937 103.538 17.4034 102.793 17.4034C102.026 17.4034 101.387 17.6023 100.876 18C100.364 18.3977 99.978 18.9403 99.7166 19.6278C99.4609 20.3153 99.3331 21.0909 99.3331 21.9545C99.3331 22.8295 99.4638 23.6165 99.7251 24.3153C99.9865 25.0142 100.373 25.5682 100.884 25.9773C101.401 26.3807 102.038 26.5824 102.793 26.5824ZM128.43 15.6307C128.339 14.8239 127.964 14.1989 127.305 13.7557C126.646 13.3068 125.816 13.0824 124.816 13.0824C124.1 13.0824 123.481 13.196 122.958 13.4233C122.435 13.6449 122.029 13.9517 121.739 14.3438C121.455 14.7301 121.313 15.1705 121.313 15.6648C121.313 16.0795 121.41 16.4375 121.603 16.7386C121.802 17.0398 122.06 17.2926 122.379 17.4972C122.702 17.696 123.049 17.8636 123.418 18C123.788 18.1307 124.143 18.2386 124.484 18.3239L126.188 18.767C126.745 18.9034 127.316 19.0881 127.901 19.321C128.487 19.554 129.029 19.8608 129.529 20.2415C130.029 20.6222 130.433 21.0938 130.739 21.6562C131.052 22.2188 131.208 22.892 131.208 23.6761C131.208 24.6648 130.952 25.5426 130.441 26.3097C129.935 27.0767 129.2 27.6818 128.234 28.125C127.273 28.5682 126.112 28.7898 124.748 28.7898C123.441 28.7898 122.31 28.5824 121.356 28.1676C120.401 27.7528 119.654 27.1648 119.114 26.4034C118.575 25.6364 118.276 24.7273 118.219 23.6761H120.862C120.913 24.3068 121.117 24.8324 121.475 25.2528C121.839 25.6676 122.302 25.9773 122.864 26.1818C123.433 26.3807 124.055 26.4801 124.731 26.4801C125.475 26.4801 126.137 26.3636 126.717 26.1307C127.302 25.892 127.762 25.5625 128.097 25.142C128.433 24.7159 128.6 24.2187 128.6 23.6506C128.6 23.1335 128.452 22.7102 128.157 22.3807C127.867 22.0511 127.472 21.7784 126.972 21.5625C126.478 21.3466 125.918 21.1562 125.293 20.9915L123.231 20.429C121.833 20.0483 120.725 19.4886 119.907 18.75C119.094 18.0114 118.688 17.0341 118.688 15.8182C118.688 14.8125 118.961 13.9347 119.506 13.1847C120.052 12.4347 120.79 11.8523 121.722 11.4375C122.654 11.017 123.705 10.8068 124.876 10.8068C126.058 10.8068 127.1 11.0142 128.004 11.429C128.913 11.8438 129.629 12.4148 130.151 13.142C130.674 13.8636 130.947 14.6932 130.969 15.6307H128.43ZM139.793 28.7642C138.503 28.7642 137.392 28.4886 136.46 27.9375C135.534 27.3807 134.818 26.5994 134.312 25.5938C133.812 24.5824 133.562 23.3977 133.562 22.0398C133.562 20.6989 133.812 19.517 134.312 18.4943C134.818 17.4716 135.523 16.6733 136.426 16.0994C137.335 15.5256 138.398 15.2386 139.614 15.2386C140.352 15.2386 141.068 15.3608 141.761 15.6051C142.455 15.8494 143.077 16.233 143.628 16.7557C144.179 17.2784 144.614 17.9574 144.932 18.7926C145.25 19.6222 145.409 20.6307 145.409 21.8182V22.7216H135.003V20.8125H142.912C142.912 20.142 142.776 19.5483 142.503 19.0312C142.23 18.5085 141.847 18.0966 141.352 17.7955C140.864 17.4943 140.29 17.3438 139.631 17.3438C138.915 17.3438 138.29 17.5199 137.756 17.8722C137.227 18.2187 136.818 18.6733 136.528 19.2358C136.244 19.7926 136.102 20.3977 136.102 21.0511V22.5426C136.102 23.4176 136.256 24.1619 136.562 24.7756C136.875 25.3892 137.31 25.858 137.866 26.1818C138.423 26.5 139.074 26.6591 139.818 26.6591C140.301 26.6591 140.741 26.5909 141.139 26.4545C141.537 26.3125 141.881 26.1023 142.17 25.8239C142.46 25.5455 142.682 25.2017 142.835 24.7926L145.247 25.2273C145.054 25.9375 144.707 26.5597 144.207 27.0938C143.713 27.6222 143.091 28.0341 142.341 28.3295C141.597 28.6193 140.747 28.7642 139.793 28.7642ZM148.237 28.5V15.4091H150.7V17.4886H150.836C151.075 16.7841 151.495 16.2301 152.097 15.8267C152.705 15.4176 153.393 15.2131 154.16 15.2131C154.319 15.2131 154.506 15.2187 154.722 15.2301C154.944 15.2415 155.117 15.2557 155.242 15.2727V17.7102C155.14 17.6818 154.958 17.6506 154.697 17.6165C154.435 17.5767 154.174 17.5568 153.913 17.5568C153.31 17.5568 152.773 17.6847 152.302 17.9403C151.836 18.1903 151.467 18.5398 151.194 18.9886C150.921 19.4318 150.785 19.9375 150.785 20.5057V28.5H148.237ZM169.045 15.4091L164.298 28.5H161.57L156.815 15.4091H159.55L162.866 25.483H163.002L166.309 15.4091H169.045ZM171.44 28.5V15.4091H173.988V28.5H171.44ZM172.727 13.3892C172.283 13.3892 171.903 13.2415 171.585 12.946C171.272 12.6449 171.116 12.2869 171.116 11.8722C171.116 11.4517 171.272 11.0937 171.585 10.7983C171.903 10.4972 172.283 10.3466 172.727 10.3466C173.17 10.3466 173.548 10.4972 173.86 10.7983C174.178 11.0937 174.337 11.4517 174.337 11.8722C174.337 12.2869 174.178 12.6449 173.86 12.946C173.548 13.2415 173.17 13.3892 172.727 13.3892ZM182.93 28.7642C181.663 28.7642 180.572 28.4773 179.658 27.9034C178.749 27.3239 178.05 26.5256 177.561 25.5085C177.072 24.4915 176.828 23.3267 176.828 22.0142C176.828 20.6847 177.078 19.5114 177.578 18.4943C178.078 17.4716 178.783 16.6733 179.692 16.0994C180.601 15.5256 181.672 15.2386 182.905 15.2386C183.899 15.2386 184.786 15.4233 185.564 15.7926C186.342 16.1562 186.97 16.6676 187.447 17.3267C187.93 17.9858 188.217 18.7557 188.308 19.6364H185.828C185.692 19.0227 185.379 18.4943 184.891 18.0511C184.408 17.608 183.76 17.3864 182.947 17.3864C182.237 17.3864 181.615 17.5739 181.081 17.9489C180.553 18.3182 180.141 18.8466 179.845 19.5341C179.55 20.2159 179.402 21.0227 179.402 21.9545C179.402 22.9091 179.547 23.733 179.837 24.4261C180.126 25.1193 180.536 25.6562 181.064 26.0369C181.598 26.4176 182.226 26.608 182.947 26.608C183.43 26.608 183.868 26.5199 184.26 26.3438C184.658 26.1619 184.99 25.9034 185.257 25.5682C185.53 25.233 185.72 24.8295 185.828 24.358H188.308C188.217 25.2045 187.942 25.9602 187.482 26.625C187.021 27.2898 186.405 27.8125 185.632 28.1932C184.865 28.5739 183.964 28.7642 182.93 28.7642ZM196.675 28.7642C195.386 28.7642 194.275 28.4886 193.343 27.9375C192.417 27.3807 191.701 26.5994 191.195 25.5938C190.695 24.5824 190.445 23.3977 190.445 22.0398C190.445 20.6989 190.695 19.517 191.195 18.4943C191.701 17.4716 192.406 16.6733 193.309 16.0994C194.218 15.5256 195.281 15.2386 196.496 15.2386C197.235 15.2386 197.951 15.3608 198.644 15.6051C199.337 15.8494 199.96 16.233 200.511 16.7557C201.062 17.2784 201.496 17.9574 201.815 18.7926C202.133 19.6222 202.292 20.6307 202.292 21.8182V22.7216H191.886V20.8125H199.795C199.795 20.142 199.658 19.5483 199.386 19.0312C199.113 18.5085 198.729 18.0966 198.235 17.7955C197.746 17.4943 197.173 17.3438 196.513 17.3438C195.798 17.3438 195.173 17.5199 194.638 17.8722C194.11 18.2187 193.701 18.6733 193.411 19.2358C193.127 19.7926 192.985 20.3977 192.985 21.0511V22.5426C192.985 23.4176 193.138 24.1619 193.445 24.7756C193.758 25.3892 194.192 25.858 194.749 26.1818C195.306 26.5 195.957 26.6591 196.701 26.6591C197.184 26.6591 197.624 26.5909 198.022 26.4545C198.42 26.3125 198.763 26.1023 199.053 25.8239C199.343 25.5455 199.565 25.2017 199.718 24.7926L202.13 25.2273C201.937 25.9375 201.59 26.5597 201.09 27.0938C200.596 27.6222 199.974 28.0341 199.224 28.3295C198.479 28.6193 197.63 28.7642 196.675 28.7642Z" fill="#2D2931"/>
<rect x="284.5" y="3" width="82" height="34" rx="7.5" stroke="#E2E2E2"/>
<path d="M301.864 13.8636H303.273V22.1818C303.273 22.9242 303.136 23.5549 302.864 24.0739C302.591 24.5928 302.206 24.9867 301.71 25.2557C301.214 25.5246 300.629 25.6591 299.955 25.6591C299.318 25.6591 298.752 25.5436 298.256 25.3125C297.759 25.0777 297.369 24.7443 297.085 24.3125C296.801 23.8807 296.659 23.3674 296.659 22.7727H298.045C298.045 23.1023 298.127 23.3902 298.29 23.6364C298.456 23.8788 298.684 24.0682 298.972 24.2045C299.259 24.3409 299.587 24.4091 299.955 24.4091C300.36 24.4091 300.705 24.3239 300.989 24.1534C301.273 23.983 301.489 23.733 301.636 23.4034C301.788 23.0701 301.864 22.6629 301.864 22.1818V13.8636ZM311.415 21.9318V16.7727H312.756V25.5H311.415V24.0227H311.324C311.119 24.4659 310.801 24.8428 310.369 25.1534C309.938 25.4602 309.392 25.6136 308.733 25.6136C308.188 25.6136 307.703 25.4943 307.278 25.2557C306.854 25.0133 306.521 24.6496 306.278 24.1648C306.036 23.6761 305.915 23.0606 305.915 22.3182V16.7727H307.256V22.2273C307.256 22.8636 307.434 23.3712 307.79 23.75C308.15 24.1288 308.608 24.3182 309.165 24.3182C309.498 24.3182 309.837 24.233 310.182 24.0625C310.53 23.892 310.822 23.6307 311.057 23.2784C311.295 22.9261 311.415 22.4773 311.415 21.9318ZM316.553 20.25V25.5H315.212V16.7727H316.507V18.1364H316.621C316.825 17.6932 317.136 17.3371 317.553 17.0682C317.969 16.7955 318.507 16.6591 319.166 16.6591C319.757 16.6591 320.274 16.7803 320.717 17.0227C321.161 17.2614 321.505 17.625 321.751 18.1136C321.998 18.5985 322.121 19.2121 322.121 19.9545V25.5H320.78V20.0455C320.78 19.3598 320.602 18.8258 320.246 18.4432C319.89 18.0568 319.401 17.8636 318.78 17.8636C318.352 17.8636 317.969 17.9564 317.632 18.142C317.299 18.3277 317.036 18.5985 316.842 18.9545C316.649 19.3106 316.553 19.7424 316.553 20.25ZM328.23 25.6818C327.389 25.6818 326.664 25.4962 326.054 25.125C325.448 24.75 324.98 24.2273 324.651 23.5568C324.325 22.8826 324.162 22.0985 324.162 21.2045C324.162 20.3106 324.325 19.5227 324.651 18.8409C324.98 18.1553 325.438 17.6212 326.026 17.2386C326.616 16.8523 327.306 16.6591 328.094 16.6591C328.548 16.6591 328.997 16.7348 329.44 16.8864C329.884 17.0379 330.287 17.2841 330.651 17.625C331.014 17.9621 331.304 18.4091 331.52 18.9659C331.736 19.5227 331.844 20.2083 331.844 21.0227V21.5909H325.116V20.4318H330.48C330.48 19.9394 330.382 19.5 330.185 19.1136C329.991 18.7273 329.715 18.4223 329.355 18.1989C328.999 17.9754 328.579 17.8636 328.094 17.8636C327.56 17.8636 327.098 17.9962 326.707 18.2614C326.321 18.5227 326.024 18.8636 325.815 19.2841C325.607 19.7045 325.503 20.1553 325.503 20.6364V21.4091C325.503 22.0682 325.616 22.6269 325.844 23.0852C326.075 23.5398 326.395 23.8864 326.804 24.125C327.213 24.3598 327.688 24.4773 328.23 24.4773C328.582 24.4773 328.901 24.428 329.185 24.3295C329.473 24.2273 329.721 24.0758 329.929 23.875C330.137 23.6705 330.298 23.4167 330.412 23.1136L331.707 23.4773C331.571 23.9167 331.342 24.303 331.02 24.6364C330.698 24.9659 330.3 25.2235 329.827 25.4091C329.353 25.5909 328.821 25.6818 328.23 25.6818Z" fill="black"/>
<path d="M342 17L348.5 23L355 17" stroke="black" stroke-linecap="round"/>
<rect x="375.5" y="3" width="85" height="34" rx="7.5" stroke="#E2E2E2"/>
<path d="M388.205 25.5V24.4773L392.045 20.2727C392.496 19.7803 392.867 19.3523 393.159 18.9886C393.451 18.6212 393.667 18.2765 393.807 17.9545C393.951 17.6288 394.023 17.2879 394.023 16.9318C394.023 16.5227 393.924 16.1686 393.727 15.8693C393.534 15.5701 393.269 15.339 392.932 15.1761C392.595 15.0133 392.216 14.9318 391.795 14.9318C391.348 14.9318 390.958 15.0246 390.625 15.2102C390.295 15.392 390.04 15.6477 389.858 15.9773C389.68 16.3068 389.591 16.6932 389.591 17.1364H388.25C388.25 16.4545 388.407 15.8561 388.722 15.3409C389.036 14.8258 389.464 14.4242 390.006 14.1364C390.551 13.8485 391.163 13.7045 391.841 13.7045C392.523 13.7045 393.127 13.8485 393.653 14.1364C394.18 14.4242 394.593 14.8125 394.892 15.3011C395.191 15.7898 395.341 16.3333 395.341 16.9318C395.341 17.3598 395.263 17.7784 395.108 18.1875C394.956 18.5928 394.691 19.0455 394.312 19.5455C393.938 20.0417 393.417 20.6477 392.75 21.3636L390.136 24.1591V24.25H395.545V25.5H388.205ZM401.688 25.6591C400.831 25.6591 400.102 25.4261 399.5 24.9602C398.898 24.4905 398.438 23.8106 398.119 22.9205C397.801 22.0265 397.642 20.947 397.642 19.6818C397.642 18.4242 397.801 17.3504 398.119 16.4602C398.441 15.5663 398.903 14.8845 399.506 14.4148C400.112 13.9413 400.839 13.7045 401.688 13.7045C402.536 13.7045 403.261 13.9413 403.864 14.4148C404.47 14.8845 404.932 15.5663 405.25 16.4602C405.572 17.3504 405.733 18.4242 405.733 19.6818C405.733 20.947 405.574 22.0265 405.256 22.9205C404.938 23.8106 404.477 24.4905 403.875 24.9602C403.273 25.4261 402.544 25.6591 401.688 25.6591ZM401.688 24.4091C402.536 24.4091 403.195 24 403.665 23.1818C404.134 22.3636 404.369 21.197 404.369 19.6818C404.369 18.6742 404.261 17.8163 404.045 17.108C403.833 16.3996 403.527 15.8598 403.125 15.4886C402.727 15.1174 402.248 14.9318 401.688 14.9318C400.847 14.9318 400.189 15.3466 399.716 16.1761C399.242 17.0019 399.006 18.1705 399.006 19.6818C399.006 20.6894 399.112 21.5455 399.324 22.25C399.536 22.9545 399.841 23.4905 400.239 23.858C400.64 24.2254 401.123 24.4091 401.688 24.4091ZM407.892 25.5V24.4773L411.733 20.2727C412.184 19.7803 412.555 19.3523 412.847 18.9886C413.138 18.6212 413.354 18.2765 413.494 17.9545C413.638 17.6288 413.71 17.2879 413.71 16.9318C413.71 16.5227 413.612 16.1686 413.415 15.8693C413.222 15.5701 412.956 15.339 412.619 15.1761C412.282 15.0133 411.903 14.9318 411.483 14.9318C411.036 14.9318 410.646 15.0246 410.312 15.2102C409.983 15.392 409.727 15.6477 409.545 15.9773C409.367 16.3068 409.278 16.6932 409.278 17.1364H407.938C407.938 16.4545 408.095 15.8561 408.409 15.3409C408.723 14.8258 409.152 14.4242 409.693 14.1364C410.239 13.8485 410.85 13.7045 411.528 13.7045C412.21 13.7045 412.814 13.8485 413.341 14.1364C413.867 14.4242 414.28 14.8125 414.58 15.3011C414.879 15.7898 415.028 16.3333 415.028 16.9318C415.028 17.3598 414.951 17.7784 414.795 18.1875C414.644 18.5928 414.379 19.0455 414 19.5455C413.625 20.0417 413.104 20.6477 412.438 21.3636L409.824 24.1591V24.25H415.233V25.5H407.892ZM417.057 23.1136V21.9545L422.17 13.8636H423.011V15.6591H422.443L418.58 21.7727V21.8636H425.466V23.1136H417.057ZM422.534 25.5V22.7614V22.2216V13.8636H423.875V25.5H422.534Z" fill="black"/>
<path d="M436 17L442.5 23L449 17" stroke="black" stroke-linecap="round"/>
</svg>
