<svg width="158" height="38" viewBox="0 0 158 38" fill="none" xmlns="http://www.w3.org/2000/svg">
<path d="M0.5 8C0.5 3.85786 3.85786 0.5 8 0.5H150C154.142 0.5 157.5 3.85786 157.5 8V30C157.5 34.1421 154.142 37.5 150 37.5H8C3.85786 37.5 0.5 34.1421 0.5 30V8Z" stroke="#E2E2E2"/>
<path d="M20.7443 16.1818C20.6676 15.5341 20.3565 15.0312 19.8111 14.6733C19.2656 14.3153 18.5966 14.1364 17.804 14.1364C17.2244 14.1364 16.7173 14.2301 16.2827 14.4176C15.8523 14.6051 15.5156 14.8629 15.2727 15.1911C15.0341 15.5192 14.9148 15.892 14.9148 16.3097C14.9148 16.6591 14.9979 16.9595 15.1641 17.2109C15.3345 17.4581 15.5518 17.6648 15.8161 17.831C16.0803 17.9929 16.3572 18.1271 16.647 18.2337C16.9368 18.3359 17.2031 18.419 17.446 18.483L18.7756 18.8409C19.1165 18.9304 19.4957 19.054 19.9134 19.2116C20.3352 19.3693 20.7379 19.5845 21.1214 19.8572C21.5092 20.1257 21.8288 20.4709 22.0803 20.8928C22.3317 21.3146 22.4574 21.8324 22.4574 22.446C22.4574 23.1534 22.272 23.7926 21.9013 24.3636C21.5348 24.9347 20.9979 25.3885 20.2905 25.7251C19.5874 26.0618 18.733 26.2301 17.7273 26.2301C16.7898 26.2301 15.978 26.0788 15.2919 25.7763C14.6101 25.4737 14.0732 25.0518 13.6811 24.5107C13.2933 23.9695 13.0739 23.3409 13.0227 22.625H14.6591C14.7017 23.1193 14.8679 23.5284 15.1577 23.8523C15.4517 24.1719 15.8224 24.4105 16.2699 24.5682C16.7216 24.7216 17.2074 24.7983 17.7273 24.7983C18.3324 24.7983 18.8757 24.7003 19.3572 24.5043C19.8388 24.304 20.2202 24.027 20.5014 23.6733C20.7827 23.3153 20.9233 22.8977 20.9233 22.4205C20.9233 21.9858 20.8018 21.6321 20.5589 21.3594C20.3161 21.0866 19.9964 20.8651 19.6001 20.6946C19.2038 20.5241 18.7756 20.375 18.3153 20.2472L16.7045 19.7869C15.6818 19.4929 14.8722 19.0732 14.2756 18.5277C13.679 17.9822 13.3807 17.2685 13.3807 16.3864C13.3807 15.6534 13.5788 15.0142 13.9751 14.4688C14.3757 13.919 14.9126 13.4929 15.5859 13.1903C16.2635 12.8835 17.0199 12.7301 17.8551 12.7301C18.6989 12.7301 19.4489 12.8814 20.1051 13.1839C20.7614 13.4822 21.2813 13.8913 21.6648 14.4112C22.0526 14.9311 22.2571 15.5213 22.2784 16.1818H20.7443ZM26.3677 20.0938V26H24.8592V12.9091H26.3677V17.7159H26.4956C26.7257 17.2088 27.0708 16.8061 27.5311 16.5078C27.9956 16.2053 28.6135 16.054 29.3848 16.054C30.0538 16.054 30.6397 16.1882 31.1426 16.4567C31.6454 16.7209 32.0353 17.1278 32.3123 17.6776C32.5936 18.223 32.7342 18.9176 32.7342 19.7614V26H31.2257V19.8636C31.2257 19.0838 31.0233 18.4808 30.6184 18.0547C30.2179 17.6243 29.6618 17.4091 28.9501 17.4091C28.4558 17.4091 28.0126 17.5135 27.6206 17.7223C27.2328 17.9311 26.926 18.2358 26.7001 18.6364C26.4785 19.0369 26.3677 19.5227 26.3677 20.0938ZM39.4826 26.2045C38.5962 26.2045 37.8185 25.9936 37.1495 25.5717C36.4847 25.1499 35.9648 24.5597 35.5898 23.8011C35.2191 23.0426 35.0337 22.1562 35.0337 21.142C35.0337 20.1193 35.2191 19.2266 35.5898 18.4638C35.9648 17.701 36.4847 17.1087 37.1495 16.6868C37.8185 16.2649 38.5962 16.054 39.4826 16.054C40.369 16.054 41.1445 16.2649 41.8093 16.6868C42.4783 17.1087 42.9982 17.701 43.369 18.4638C43.744 19.2266 43.9315 20.1193 43.9315 21.142C43.9315 22.1562 43.744 23.0426 43.369 23.8011C42.9982 24.5597 42.4783 25.1499 41.8093 25.5717C41.1445 25.9936 40.369 26.2045 39.4826 26.2045ZM39.4826 24.8494C40.1559 24.8494 40.7099 24.6768 41.1445 24.3317C41.5792 23.9865 41.9009 23.5327 42.1097 22.9702C42.3185 22.4077 42.4229 21.7983 42.4229 21.142C42.4229 20.4858 42.3185 19.8743 42.1097 19.3075C41.9009 18.7408 41.5792 18.2827 41.1445 17.9332C40.7099 17.5838 40.1559 17.4091 39.4826 17.4091C38.8093 17.4091 38.2553 17.5838 37.8207 17.9332C37.386 18.2827 37.0643 18.7408 36.8555 19.3075C36.6467 19.8743 36.5423 20.4858 36.5423 21.142C36.5423 21.7983 36.6467 22.4077 36.8555 22.9702C37.0643 23.5327 37.386 23.9865 37.8207 24.3317C38.2553 24.6768 38.8093 24.8494 39.4826 24.8494ZM48.1246 26L45.1332 16.1818H46.7184L48.8406 23.6989H48.9428L51.0394 16.1818H52.6502L54.7212 23.6733H54.8235L56.9457 16.1818H58.5309L55.5394 26H54.0565L51.9087 18.4574H51.7553L49.6076 26H48.1246ZM67.0962 20.0938V26H65.5877V12.9091H67.0962V17.7159H67.2241C67.4542 17.2088 67.7994 16.8061 68.2596 16.5078C68.7241 16.2053 69.342 16.054 70.1133 16.054C70.7823 16.054 71.3683 16.1882 71.8711 16.4567C72.3739 16.7209 72.7638 17.1278 73.0408 17.6776C73.3221 18.223 73.4627 18.9176 73.4627 19.7614V26H71.9542V19.8636C71.9542 19.0838 71.7518 18.4808 71.3469 18.0547C70.9464 17.6243 70.3903 17.4091 69.6786 17.4091C69.1843 17.4091 68.7411 17.5135 68.3491 17.7223C67.9613 17.9311 67.6545 18.2358 67.4286 18.6364C67.207 19.0369 67.0962 19.5227 67.0962 20.0938ZM76.2225 26V16.1818H77.731V26H76.2225ZM76.9895 14.5455C76.6955 14.5455 76.4419 14.4453 76.2289 14.245C76.0201 14.0447 75.9157 13.804 75.9157 13.5227C75.9157 13.2415 76.0201 13.0007 76.2289 12.8004C76.4419 12.6001 76.6955 12.5 76.9895 12.5C77.2836 12.5 77.535 12.6001 77.7438 12.8004C77.9569 13.0007 78.0634 13.2415 78.0634 13.5227C78.0634 13.804 77.9569 14.0447 77.7438 14.245C77.535 14.4453 77.2836 14.5455 76.9895 14.5455ZM87.4485 18.3807L86.0934 18.7642C86.0082 18.5384 85.8825 18.3189 85.7163 18.1058C85.5543 17.8885 85.3327 17.7095 85.0515 17.5689C84.7702 17.4283 84.4102 17.358 83.9712 17.358C83.3704 17.358 82.8697 17.4964 82.4691 17.7734C82.0728 18.0462 81.8746 18.3935 81.8746 18.8153C81.8746 19.1903 82.011 19.4865 82.2837 19.7038C82.5565 19.9212 82.9826 20.1023 83.5621 20.2472L85.0195 20.6051C85.8974 20.8182 86.5515 21.1442 86.9819 21.5831C87.4123 22.0178 87.6275 22.5781 87.6275 23.2642C87.6275 23.8267 87.4656 24.3295 87.1417 24.7727C86.8221 25.2159 86.3746 25.5653 85.7994 25.821C85.2241 26.0767 84.555 26.2045 83.7923 26.2045C82.7908 26.2045 81.962 25.9872 81.3058 25.5526C80.6495 25.1179 80.234 24.483 80.0593 23.6477L81.4911 23.2898C81.6275 23.8182 81.8853 24.2145 82.2646 24.4787C82.6481 24.7429 83.1488 24.875 83.7667 24.875C84.4698 24.875 85.0281 24.7259 85.4414 24.4276C85.859 24.125 86.0678 23.7628 86.0678 23.3409C86.0678 23 85.9485 22.7145 85.7099 22.4844C85.4712 22.25 85.1048 22.0753 84.6104 21.9602L82.9741 21.5767C82.0749 21.3636 81.4144 21.0334 80.9925 20.5859C80.5749 20.1342 80.3661 19.5696 80.3661 18.892C80.3661 18.3381 80.5217 17.848 80.8327 17.4219C81.1481 16.9957 81.5763 16.6612 82.1175 16.4183C82.663 16.1754 83.2809 16.054 83.9712 16.054C84.9428 16.054 85.7056 16.267 86.2596 16.6932C86.8178 17.1193 87.2141 17.6818 87.4485 18.3807ZM94.1681 16.1818V17.4602H89.0801V16.1818H94.1681ZM90.563 13.8295H92.0716V23.1875C92.0716 23.6136 92.1333 23.9332 92.2569 24.1463C92.3848 24.3551 92.5467 24.4957 92.7427 24.5682C92.943 24.6364 93.1539 24.6705 93.3755 24.6705C93.5417 24.6705 93.6781 24.6619 93.7846 24.6449C93.8912 24.6236 93.9764 24.6065 94.0403 24.5938L94.3471 25.9489C94.2449 25.9872 94.1021 26.0256 93.9189 26.0639C93.7356 26.1065 93.5034 26.1278 93.2221 26.1278C92.796 26.1278 92.3784 26.0362 91.9693 25.853C91.5645 25.6697 91.2278 25.3906 90.9593 25.0156C90.6951 24.6406 90.563 24.1676 90.563 23.5966V13.8295ZM100.32 26.2045C99.4341 26.2045 98.6564 25.9936 97.9874 25.5717C97.3226 25.1499 96.8027 24.5597 96.4277 23.8011C96.057 23.0426 95.8716 22.1562 95.8716 21.142C95.8716 20.1193 96.057 19.2266 96.4277 18.4638C96.8027 17.701 97.3226 17.1087 97.9874 16.6868C98.6564 16.2649 99.4341 16.054 100.32 16.054C101.207 16.054 101.982 16.2649 102.647 16.6868C103.316 17.1087 103.836 17.701 104.207 18.4638C104.582 19.2266 104.769 20.1193 104.769 21.142C104.769 22.1562 104.582 23.0426 104.207 23.8011C103.836 24.5597 103.316 25.1499 102.647 25.5717C101.982 25.9936 101.207 26.2045 100.32 26.2045ZM100.32 24.8494C100.994 24.8494 101.548 24.6768 101.982 24.3317C102.417 23.9865 102.739 23.5327 102.948 22.9702C103.156 22.4077 103.261 21.7983 103.261 21.142C103.261 20.4858 103.156 19.8743 102.948 19.3075C102.739 18.7408 102.417 18.2827 101.982 17.9332C101.548 17.5838 100.994 17.4091 100.32 17.4091C99.6472 17.4091 99.0932 17.5838 98.6586 17.9332C98.2239 18.2827 97.9022 18.7408 97.6934 19.3075C97.4846 19.8743 97.3801 20.4858 97.3801 21.142C97.3801 21.7983 97.4846 22.4077 97.6934 22.9702C97.9022 23.5327 98.2239 23.9865 98.6586 24.3317C99.0932 24.6768 99.6472 24.8494 100.32 24.8494ZM107.072 26V16.1818H108.529V17.6648H108.632C108.811 17.179 109.135 16.7848 109.603 16.4822C110.072 16.1797 110.6 16.0284 111.189 16.0284C111.299 16.0284 111.438 16.0305 111.604 16.0348C111.77 16.0391 111.896 16.0455 111.981 16.054V17.5881C111.93 17.5753 111.813 17.5561 111.63 17.5305C111.451 17.5007 111.261 17.4858 111.061 17.4858C110.583 17.4858 110.157 17.5859 109.782 17.7862C109.412 17.9822 109.118 18.255 108.9 18.6044C108.687 18.9496 108.581 19.3437 108.581 19.7869V26H107.072ZM115.04 29.6818C114.784 29.6818 114.556 29.6605 114.356 29.6179C114.156 29.5795 114.017 29.5412 113.94 29.5028L114.324 28.1733C114.69 28.267 115.014 28.3011 115.295 28.2756C115.577 28.25 115.826 28.1243 116.043 27.8984C116.265 27.6768 116.467 27.3168 116.651 26.8182L116.932 26.0511L113.301 16.1818H114.938L117.648 24.0057H117.75L120.46 16.1818H122.097L117.929 27.4318C117.741 27.9389 117.509 28.3587 117.232 28.6911C116.955 29.0277 116.634 29.277 116.267 29.4389C115.905 29.6009 115.496 29.6818 115.04 29.6818Z" fill="#2D2931"/>
<path d="M133 16L139.5 22L146 16" stroke="black" stroke-linecap="round"/>
</svg>
