<svg width="185" height="40" viewBox="0 0 185 40" fill="none" xmlns="http://www.w3.org/2000/svg">
<rect width="40" height="40" rx="8" fill="#E6D1FC"/>
<path d="M20.4248 17.25C20.0148 17.25 19.6748 16.91 19.6748 16.5V11C19.6748 10.59 20.0148 10.25 20.4248 10.25C20.8348 10.25 21.1748 10.59 21.1748 11V16.5C21.1748 16.91 20.8348 17.25 20.4248 17.25Z" fill="#292D32"/>
<path d="M20.4248 29.75C20.0148 29.75 19.6748 29.41 19.6748 29V23.5C19.6748 23.09 20.0148 22.75 20.4248 22.75C20.8348 22.75 21.1748 23.09 21.1748 23.5V29C21.1748 29.41 20.8348 29.75 20.4248 29.75Z" fill="#292D32"/>
<path d="M22.4248 11.75H18.4248C18.0148 11.75 17.6748 11.41 17.6748 11C17.6748 10.59 18.0148 10.25 18.4248 10.25H22.4248C22.8348 10.25 23.1748 10.59 23.1748 11C23.1748 11.41 22.8348 11.75 22.4248 11.75Z" fill="#292D32"/>
<path d="M22.4248 29.75H18.4248C18.0148 29.75 17.6748 29.41 17.6748 29C17.6748 28.59 18.0148 28.25 18.4248 28.25H22.4248C22.8348 28.25 23.1748 28.59 23.1748 29C23.1748 29.41 22.8348 29.75 22.4248 29.75Z" fill="#292D32"/>
<path d="M17.3949 19.0002C17.2649 19.0002 17.1349 18.9702 17.0249 18.9002L12.2649 16.1502C11.9049 15.9402 11.7849 15.4802 11.9949 15.1302C12.2049 14.7702 12.6649 14.6502 13.0149 14.8602L17.7749 17.6102C18.1349 17.8202 18.2549 18.2802 18.0449 18.6302C17.9049 18.8702 17.6549 19.0002 17.3949 19.0002Z" fill="#292D32"/>
<path d="M28.2148 25.2502C28.0848 25.2502 27.9548 25.2202 27.8448 25.1502L23.0848 22.4002C22.7248 22.1902 22.6048 21.7302 22.8148 21.3802C23.0248 21.0202 23.4848 20.9002 23.8348 21.1102L28.5948 23.8602C28.9548 24.0702 29.0748 24.5302 28.8648 24.8802C28.7248 25.1202 28.4748 25.2502 28.2148 25.2502Z" fill="#292D32"/>
<path d="M11.6349 17.9797C11.5049 17.9797 11.3749 17.9497 11.2649 17.8797C10.9049 17.6697 10.7849 17.2097 10.9949 16.8597L12.9949 13.3997C13.2049 13.0397 13.6649 12.9197 14.0149 13.1297C14.3749 13.3397 14.4949 13.7997 14.2849 14.1497L12.2849 17.6097C12.1449 17.8497 11.8849 17.9797 11.6349 17.9797Z" fill="#292D32"/>
<path d="M27.215 26.9797C27.085 26.9797 26.955 26.9497 26.845 26.8797C26.485 26.6697 26.365 26.2097 26.575 25.8597L28.575 22.3997C28.785 22.0397 29.245 21.9197 29.595 22.1297C29.955 22.3397 30.075 22.7997 29.865 23.1497L27.865 26.6097C27.735 26.8497 27.475 26.9797 27.215 26.9797Z" fill="#292D32"/>
<path d="M20.4248 24.2498C18.9148 24.2498 17.5048 23.4398 16.7448 22.1298C16.3648 21.4698 16.1748 20.7598 16.1748 19.9998C16.1748 19.2398 16.3648 18.5298 16.7448 17.8798C17.5048 16.5698 18.9148 15.7598 20.4248 15.7598C21.9348 15.7598 23.3448 16.5698 24.1048 17.8798C24.4848 18.5398 24.6748 19.2498 24.6748 20.0098C24.6748 20.7698 24.4848 21.4798 24.1048 22.1298C23.3448 23.4398 21.9348 24.2498 20.4248 24.2498ZM20.4248 17.2498C19.4448 17.2498 18.5348 17.7798 18.0448 18.6298C17.8048 19.0498 17.6748 19.5198 17.6748 19.9998C17.6748 20.4798 17.7948 20.9498 18.0448 21.3798C18.5348 22.2298 19.4448 22.7598 20.4248 22.7598C21.4048 22.7598 22.3148 22.2298 22.8048 21.3798C23.0448 20.9598 23.1748 20.4898 23.1748 20.0098C23.1748 19.5298 23.0548 19.0598 22.8048 18.6298C22.3148 17.7798 21.4048 17.2498 20.4248 17.2498Z" fill="#292D32"/>
<path d="M23.4548 19.0002C23.1948 19.0002 22.9448 18.8702 22.8048 18.6202C22.5948 18.2602 22.7248 17.8002 23.0748 17.6002L27.8348 14.8502C28.1948 14.6402 28.6548 14.7702 28.8548 15.1202C29.0648 15.4802 28.9348 15.9402 28.5848 16.1402L23.8248 18.8902C23.7148 18.9702 23.5848 19.0002 23.4548 19.0002Z" fill="#292D32"/>
<path d="M12.6349 25.2502C12.3749 25.2502 12.1249 25.1202 11.9849 24.8702C11.7749 24.5102 11.9049 24.0502 12.2549 23.8502L17.0149 21.1002C17.3749 20.8902 17.8349 21.0202 18.0349 21.3702C18.2449 21.7302 18.1149 22.1902 17.7649 22.3902L13.0049 25.1402C12.8949 25.2202 12.7649 25.2502 12.6349 25.2502Z" fill="#292D32"/>
<path d="M29.215 17.9797C28.955 17.9797 28.705 17.8497 28.565 17.5997L26.565 14.1397C26.355 13.7797 26.485 13.3197 26.835 13.1197C27.195 12.9097 27.655 13.0397 27.855 13.3897L29.855 16.8497C30.065 17.2097 29.935 17.6697 29.585 17.8697C29.475 17.9497 29.345 17.9797 29.215 17.9797Z" fill="#292D32"/>
<path d="M13.6349 26.9797C13.3749 26.9797 13.1249 26.8497 12.9849 26.5997L10.9849 23.1397C10.7749 22.7797 10.9049 22.3197 11.2549 22.1197C11.6149 21.9097 12.0749 22.0397 12.2749 22.3897L14.2749 25.8497C14.4849 26.2097 14.3549 26.6697 14.0049 26.8697C13.8849 26.9497 13.7549 26.9797 13.6349 26.9797Z" fill="#292D32"/>
<path d="M63.4375 15.6307C63.3466 14.8239 62.9716 14.1989 62.3125 13.7557C61.6534 13.3068 60.8239 13.0824 59.8239 13.0824C59.108 13.0824 58.4886 13.196 57.9659 13.4233C57.4432 13.6449 57.0369 13.9517 56.7472 14.3438C56.4631 14.7301 56.321 15.1705 56.321 15.6648C56.321 16.0795 56.4176 16.4375 56.6108 16.7386C56.8097 17.0398 57.0682 17.2926 57.3864 17.4972C57.7102 17.696 58.0568 17.8636 58.4261 18C58.7955 18.1307 59.1506 18.2386 59.4915 18.3239L61.196 18.767C61.7528 18.9034 62.3239 19.0881 62.9091 19.321C63.4943 19.554 64.0369 19.8608 64.5369 20.2415C65.0369 20.6222 65.4403 21.0938 65.7472 21.6562C66.0597 22.2188 66.2159 22.892 66.2159 23.6761C66.2159 24.6648 65.9602 25.5426 65.4489 26.3097C64.9432 27.0767 64.2074 27.6818 63.2415 28.125C62.2813 28.5682 61.1193 28.7898 59.7557 28.7898C58.4489 28.7898 57.3182 28.5824 56.3636 28.1676C55.4091 27.7528 54.6619 27.1648 54.1222 26.4034C53.5824 25.6364 53.2841 24.7273 53.2273 23.6761H55.8693C55.9205 24.3068 56.125 24.8324 56.483 25.2528C56.8466 25.6676 57.3097 25.9773 57.8722 26.1818C58.4403 26.3807 59.0625 26.4801 59.7386 26.4801C60.483 26.4801 61.1449 26.3636 61.7244 26.1307C62.3097 25.892 62.7699 25.5625 63.1051 25.142C63.4403 24.7159 63.608 24.2187 63.608 23.6506C63.608 23.1335 63.4602 22.7102 63.1648 22.3807C62.875 22.0511 62.4801 21.7784 61.9801 21.5625C61.4858 21.3466 60.9261 21.1562 60.3011 20.9915L58.2386 20.429C56.8409 20.0483 55.733 19.4886 54.9148 18.75C54.1023 18.0114 53.696 17.0341 53.696 15.8182C53.696 14.8125 53.9688 13.9347 54.5142 13.1847C55.0597 12.4347 55.7983 11.8523 56.7301 11.4375C57.6619 11.017 58.7131 10.8068 59.8835 10.8068C61.0653 10.8068 62.108 11.0142 63.0114 11.429C63.9205 11.8438 64.6364 12.4148 65.1591 13.142C65.6818 13.8636 65.9545 14.6932 65.9773 15.6307H63.4375ZM74.6726 28.7642C73.4453 28.7642 72.3743 28.483 71.4595 27.9205C70.5447 27.358 69.8345 26.571 69.3288 25.5597C68.8232 24.5483 68.5703 23.3665 68.5703 22.0142C68.5703 20.6562 68.8232 19.4687 69.3288 18.4517C69.8345 17.4347 70.5447 16.6449 71.4595 16.0824C72.3743 15.5199 73.4453 15.2386 74.6726 15.2386C75.8999 15.2386 76.9709 15.5199 77.8857 16.0824C78.8004 16.6449 79.5107 17.4347 80.0163 18.4517C80.522 19.4687 80.7749 20.6562 80.7749 22.0142C80.7749 23.3665 80.522 24.5483 80.0163 25.5597C79.5107 26.571 78.8004 27.358 77.8857 27.9205C76.9709 28.483 75.8999 28.7642 74.6726 28.7642ZM74.6811 26.625C75.4766 26.625 76.1357 26.4148 76.6584 25.9943C77.1811 25.5739 77.5675 25.0142 77.8175 24.3153C78.0732 23.6165 78.201 22.8466 78.201 22.0057C78.201 21.1705 78.0732 20.4034 77.8175 19.7045C77.5675 19 77.1811 18.4347 76.6584 18.0085C76.1357 17.5824 75.4766 17.3693 74.6811 17.3693C73.88 17.3693 73.2152 17.5824 72.6868 18.0085C72.1641 18.4347 71.7749 19 71.5192 19.7045C71.2692 20.4034 71.1442 21.1705 71.1442 22.0057C71.1442 22.8466 71.2692 23.6165 71.5192 24.3153C71.7749 25.0142 72.1641 25.5739 72.6868 25.9943C73.2152 26.4148 73.88 26.625 74.6811 26.625ZM83.6193 28.5V15.4091H86.1676V28.5H83.6193ZM84.9062 13.3892C84.4631 13.3892 84.0824 13.2415 83.7642 12.946C83.4517 12.6449 83.2955 12.2869 83.2955 11.8722C83.2955 11.4517 83.4517 11.0937 83.7642 10.7983C84.0824 10.4972 84.4631 10.3466 84.9062 10.3466C85.3494 10.3466 85.7273 10.4972 86.0398 10.7983C86.358 11.0937 86.517 11.4517 86.517 11.8722C86.517 12.2869 86.358 12.6449 86.0398 12.946C85.7273 13.2415 85.3494 13.3892 84.9062 13.3892ZM92.1442 11.0455V28.5H89.5959V11.0455H92.1442ZM101.268 13.3125V11.0455H114.776V13.3125H109.33V28.5H106.705V13.3125H101.268ZM121.3 28.7642C120.011 28.7642 118.9 28.4886 117.968 27.9375C117.042 27.3807 116.326 26.5994 115.82 25.5938C115.32 24.5824 115.07 23.3977 115.07 22.0398C115.07 20.6989 115.32 19.517 115.82 18.4943C116.326 17.4716 117.031 16.6733 117.934 16.0994C118.843 15.5256 119.906 15.2386 121.121 15.2386C121.86 15.2386 122.576 15.3608 123.269 15.6051C123.962 15.8494 124.585 16.233 125.136 16.7557C125.687 17.2784 126.121 17.9574 126.44 18.7926C126.758 19.6222 126.917 20.6307 126.917 21.8182V22.7216H116.511V20.8125H124.42C124.42 20.142 124.283 19.5483 124.011 19.0312C123.738 18.5085 123.354 18.0966 122.86 17.7955C122.371 17.4943 121.798 17.3438 121.138 17.3438C120.423 17.3438 119.798 17.5199 119.263 17.8722C118.735 18.2187 118.326 18.6733 118.036 19.2358C117.752 19.7926 117.61 20.3977 117.61 21.0511V22.5426C117.61 23.4176 117.763 24.1619 118.07 24.7756C118.383 25.3892 118.817 25.858 119.374 26.1818C119.931 26.5 120.582 26.6591 121.326 26.6591C121.809 26.6591 122.249 26.5909 122.647 26.4545C123.045 26.3125 123.388 26.1023 123.678 25.8239C123.968 25.5455 124.19 25.2017 124.343 24.7926L126.755 25.2273C126.562 25.9375 126.215 26.5597 125.715 27.0938C125.221 27.6222 124.599 28.0341 123.849 28.3295C123.104 28.6193 122.255 28.7642 121.3 28.7642ZM139.554 18.6051L137.244 19.0142C137.148 18.7187 136.994 18.4375 136.784 18.1705C136.58 17.9034 136.301 17.6847 135.949 17.5142C135.597 17.3437 135.156 17.2585 134.628 17.2585C133.906 17.2585 133.304 17.4205 132.821 17.7443C132.338 18.0625 132.097 18.4744 132.097 18.9801C132.097 19.4176 132.259 19.7699 132.582 20.0369C132.906 20.304 133.429 20.5227 134.151 20.6932L136.23 21.1705C137.435 21.4489 138.332 21.8778 138.923 22.4574C139.514 23.0369 139.81 23.7898 139.81 24.7159C139.81 25.5 139.582 26.1989 139.128 26.8125C138.679 27.4205 138.051 27.8977 137.244 28.2443C136.443 28.5909 135.514 28.7642 134.457 28.7642C132.991 28.7642 131.795 28.4517 130.869 27.8267C129.943 27.196 129.375 26.3011 129.165 25.142L131.628 24.767C131.781 25.4091 132.097 25.8949 132.574 26.2244C133.051 26.5483 133.673 26.7102 134.44 26.7102C135.276 26.7102 135.943 26.5369 136.443 26.1903C136.943 25.8381 137.193 25.4091 137.193 24.9034C137.193 24.4943 137.04 24.1506 136.733 23.8722C136.432 23.5937 135.969 23.3835 135.344 23.2415L133.128 22.7557C131.906 22.4773 131.003 22.0341 130.418 21.4261C129.838 20.8182 129.548 20.0483 129.548 19.1165C129.548 18.3437 129.764 17.6676 130.196 17.0881C130.628 16.5085 131.224 16.0568 131.986 15.733C132.747 15.4034 133.619 15.2386 134.602 15.2386C136.017 15.2386 137.131 15.5455 137.943 16.1591C138.756 16.767 139.293 17.5824 139.554 18.6051ZM148.722 15.4091V17.4545H141.572V15.4091H148.722ZM143.489 12.2727H146.038V24.6562C146.038 25.1506 146.112 25.5227 146.259 25.7727C146.407 26.017 146.597 26.1847 146.83 26.2756C147.069 26.3608 147.327 26.4034 147.606 26.4034C147.81 26.4034 147.989 26.3892 148.143 26.3608C148.296 26.3324 148.415 26.3097 148.501 26.2926L148.961 28.3977C148.813 28.4545 148.603 28.5114 148.33 28.5682C148.058 28.6307 147.717 28.6648 147.308 28.6705C146.637 28.6818 146.012 28.5625 145.433 28.3125C144.853 28.0625 144.384 27.6761 144.026 27.1534C143.668 26.6307 143.489 25.9744 143.489 25.1847V12.2727ZM151.541 28.5V15.4091H154.089V28.5H151.541ZM152.828 13.3892C152.385 13.3892 152.004 13.2415 151.686 12.946C151.374 12.6449 151.217 12.2869 151.217 11.8722C151.217 11.4517 151.374 11.0937 151.686 10.7983C152.004 10.4972 152.385 10.3466 152.828 10.3466C153.271 10.3466 153.649 10.4972 153.962 10.7983C154.28 11.0937 154.439 11.4517 154.439 11.8722C154.439 12.2869 154.28 12.6449 153.962 12.946C153.649 13.2415 153.271 13.3892 152.828 13.3892ZM160.066 20.7273V28.5H157.518V15.4091H159.964V17.5398H160.126C160.427 16.8466 160.898 16.2898 161.54 15.8693C162.188 15.4489 163.004 15.2386 163.987 15.2386C164.879 15.2386 165.66 15.4261 166.33 15.8011C167.001 16.1705 167.521 16.7216 167.89 17.4545C168.259 18.1875 168.444 19.0937 168.444 20.1733V28.5H165.896V20.4801C165.896 19.5312 165.648 18.7898 165.154 18.2557C164.66 17.7159 163.981 17.446 163.117 17.446C162.526 17.446 162.001 17.5739 161.54 17.8295C161.086 18.0852 160.725 18.4602 160.458 18.9545C160.197 19.4432 160.066 20.0341 160.066 20.7273ZM177.35 33.6818C176.31 33.6818 175.415 33.5455 174.665 33.2727C173.921 33 173.313 32.6392 172.842 32.1903C172.37 31.7415 172.018 31.25 171.785 30.7159L173.975 29.8125C174.129 30.0625 174.333 30.3267 174.589 30.6051C174.85 30.8892 175.202 31.1307 175.646 31.3295C176.094 31.5284 176.671 31.6278 177.376 31.6278C178.342 31.6278 179.14 31.392 179.771 30.9205C180.401 30.4545 180.717 29.7102 180.717 28.6875V26.1136H180.555C180.401 26.392 180.18 26.7017 179.89 27.0426C179.606 27.3835 179.214 27.679 178.714 27.929C178.214 28.179 177.563 28.304 176.762 28.304C175.728 28.304 174.796 28.0625 173.967 27.5795C173.143 27.0909 172.489 26.3722 172.006 25.4233C171.529 24.4687 171.29 23.2955 171.29 21.9034C171.29 20.5114 171.526 19.3182 171.998 18.3239C172.475 17.3295 173.129 16.5682 173.958 16.0398C174.788 15.5057 175.728 15.2386 176.779 15.2386C177.592 15.2386 178.248 15.375 178.748 15.6477C179.248 15.9148 179.637 16.2273 179.915 16.5852C180.2 16.9432 180.418 17.2585 180.572 17.5312H180.759V15.4091H183.256V28.7898C183.256 29.9148 182.995 30.8381 182.472 31.5597C181.95 32.2813 181.242 32.8153 180.35 33.1619C179.464 33.5085 178.464 33.6818 177.35 33.6818ZM177.325 26.1903C178.058 26.1903 178.677 26.0199 179.183 25.679C179.694 25.3324 180.08 24.8381 180.342 24.196C180.609 23.5483 180.742 22.7727 180.742 21.8693C180.742 20.9886 180.612 20.2131 180.35 19.5426C180.089 18.8722 179.705 18.3494 179.2 17.9744C178.694 17.5937 178.069 17.4034 177.325 17.4034C176.558 17.4034 175.918 17.6023 175.407 18C174.896 18.392 174.509 18.9261 174.248 19.6023C173.992 20.2784 173.864 21.0341 173.864 21.8693C173.864 22.7273 173.995 23.4801 174.256 24.1278C174.518 24.7756 174.904 25.2812 175.415 25.6449C175.933 26.0085 176.569 26.1903 177.325 26.1903Z" fill="#2D2931"/>
</svg>
