<svg width="285" height="56" viewBox="0 0 285 56" fill="none" xmlns="http://www.w3.org/2000/svg">
<path d="M28 25.25C27.59 25.25 27.25 24.91 27.25 24.5V19C27.25 18.59 27.59 18.25 28 18.25C28.41 18.25 28.75 18.59 28.75 19V24.5C28.75 24.91 28.41 25.25 28 25.25Z" fill="#2D2931"/>
<path d="M28 37.75C27.59 37.75 27.25 37.41 27.25 37V31.5C27.25 31.09 27.59 30.75 28 30.75C28.41 30.75 28.75 31.09 28.75 31.5V37C28.75 37.41 28.41 37.75 28 37.75Z" fill="#2D2931"/>
<path d="M30 19.75H26C25.59 19.75 25.25 19.41 25.25 19C25.25 18.59 25.59 18.25 26 18.25H30C30.41 18.25 30.75 18.59 30.75 19C30.75 19.41 30.41 19.75 30 19.75Z" fill="#2D2931"/>
<path d="M30 37.75H26C25.59 37.75 25.25 37.41 25.25 37C25.25 36.59 25.59 36.25 26 36.25H30C30.41 36.25 30.75 36.59 30.75 37C30.75 37.41 30.41 37.75 30 37.75Z" fill="#2D2931"/>
<path d="M24.9701 27.0002C24.8401 27.0002 24.7101 26.9702 24.6001 26.9002L19.8401 24.1502C19.4801 23.9402 19.3601 23.4802 19.5701 23.1302C19.7801 22.7702 20.2401 22.6502 20.5901 22.8602L25.3501 25.6102C25.7101 25.8202 25.8301 26.2802 25.6201 26.6302C25.4801 26.8702 25.2301 27.0002 24.9701 27.0002Z" fill="#2D2931"/>
<path d="M35.7904 33.2502C35.6604 33.2502 35.5304 33.2202 35.4204 33.1502L30.6604 30.4002C30.3004 30.1902 30.1804 29.7302 30.3904 29.3802C30.6004 29.0202 31.0604 28.9002 31.4104 29.1102L36.1704 31.8602C36.5304 32.0702 36.6504 32.5302 36.4404 32.8802C36.3004 33.1202 36.0504 33.2502 35.7904 33.2502Z" fill="#2D2931"/>
<path d="M19.2101 25.9797C19.0801 25.9797 18.9501 25.9497 18.8401 25.8797C18.4801 25.6697 18.3601 25.2097 18.5701 24.8597L20.5701 21.3997C20.7801 21.0397 21.2401 20.9197 21.5901 21.1297C21.9501 21.3397 22.0701 21.7997 21.8601 22.1497L19.8601 25.6097C19.7201 25.8497 19.4601 25.9797 19.2101 25.9797Z" fill="#2D2931"/>
<path d="M34.7902 34.9797C34.6602 34.9797 34.5302 34.9497 34.4202 34.8797C34.0602 34.6697 33.9402 34.2097 34.1502 33.8597L36.1502 30.3997C36.3602 30.0397 36.8202 29.9197 37.1702 30.1297C37.5302 30.3397 37.6502 30.7997 37.4402 31.1497L35.4402 34.6097C35.3102 34.8497 35.0502 34.9797 34.7902 34.9797Z" fill="#2D2931"/>
<path d="M28 32.2498C26.49 32.2498 25.08 31.4398 24.32 30.1298C23.94 29.4698 23.75 28.7598 23.75 27.9998C23.75 27.2398 23.94 26.5298 24.32 25.8798C25.08 24.5698 26.49 23.7598 28 23.7598C29.51 23.7598 30.92 24.5698 31.68 25.8798C32.06 26.5398 32.25 27.2498 32.25 28.0098C32.25 28.7698 32.06 29.4798 31.68 30.1298C30.92 31.4398 29.51 32.2498 28 32.2498ZM28 25.2498C27.02 25.2498 26.11 25.7798 25.62 26.6298C25.38 27.0498 25.25 27.5198 25.25 27.9998C25.25 28.4798 25.37 28.9498 25.62 29.3798C26.11 30.2298 27.02 30.7598 28 30.7598C28.98 30.7598 29.89 30.2298 30.38 29.3798C30.62 28.9598 30.75 28.4898 30.75 28.0098C30.75 27.5298 30.63 27.0598 30.38 26.6298C29.89 25.7798 28.98 25.2498 28 25.2498Z" fill="#2D2931"/>
<path d="M31.0304 27.0002C30.7704 27.0002 30.5204 26.8702 30.3804 26.6202C30.1704 26.2602 30.3004 25.8002 30.6504 25.6002L35.4104 22.8502C35.7704 22.6402 36.2304 22.7702 36.4304 23.1202C36.6404 23.4802 36.5104 23.9402 36.1604 24.1402L31.4004 26.8902C31.2904 26.9702 31.1604 27.0002 31.0304 27.0002Z" fill="#2D2931"/>
<path d="M20.2101 33.2502C19.9501 33.2502 19.7001 33.1202 19.5601 32.8702C19.3501 32.5102 19.4801 32.0502 19.8301 31.8502L24.5901 29.1002C24.9501 28.8902 25.4101 29.0202 25.6101 29.3702C25.8201 29.7302 25.6901 30.1902 25.3401 30.3902L20.5801 33.1402C20.4701 33.2202 20.3401 33.2502 20.2101 33.2502Z" fill="#2D2931"/>
<path d="M36.7902 25.9797C36.5302 25.9797 36.2802 25.8497 36.1402 25.5997L34.1402 22.1397C33.9302 21.7797 34.0602 21.3197 34.4102 21.1197C34.7702 20.9097 35.2302 21.0397 35.4302 21.3897L37.4302 24.8497C37.6402 25.2097 37.5102 25.6697 37.1602 25.8697C37.0502 25.9497 36.9202 25.9797 36.7902 25.9797Z" fill="#2D2931"/>
<path d="M21.2101 34.9797C20.9501 34.9797 20.7001 34.8497 20.5601 34.5997L18.5601 31.1397C18.3501 30.7797 18.4801 30.3197 18.8301 30.1197C19.1901 29.9097 19.6501 30.0397 19.8501 30.3897L21.8501 33.8497C22.0601 34.2097 21.9301 34.6697 21.5801 34.8697C21.4601 34.9497 21.3301 34.9797 21.2101 34.9797Z" fill="#2D2931"/>
<path d="M71.7727 24.7727C71.7045 24.197 71.428 23.75 70.9432 23.4318C70.4583 23.1136 69.8636 22.9545 69.1591 22.9545C68.6439 22.9545 68.1932 23.0379 67.8068 23.2045C67.4242 23.3712 67.125 23.6004 66.9091 23.892C66.697 24.1837 66.5909 24.5152 66.5909 24.8864C66.5909 25.197 66.6648 25.464 66.8125 25.6875C66.964 25.9072 67.1572 26.0909 67.392 26.2386C67.6269 26.3826 67.8731 26.5019 68.1307 26.5966C68.3883 26.6875 68.625 26.7614 68.8409 26.8182L70.0227 27.1364C70.3258 27.2159 70.6629 27.3258 71.0341 27.4659C71.4091 27.6061 71.767 27.7973 72.108 28.0398C72.4527 28.2784 72.7367 28.5852 72.9602 28.9602C73.1837 29.3352 73.2955 29.7955 73.2955 30.3409C73.2955 30.9697 73.1307 31.5379 72.8011 32.0455C72.4754 32.553 71.9981 32.9564 71.3693 33.2557C70.7443 33.5549 69.9848 33.7045 69.0909 33.7045C68.2576 33.7045 67.536 33.5701 66.9261 33.3011C66.3201 33.0322 65.8428 32.6572 65.4943 32.1761C65.1496 31.6951 64.9545 31.1364 64.9091 30.5H66.3636C66.4015 30.9394 66.5492 31.303 66.8068 31.5909C67.0682 31.875 67.3977 32.0871 67.7955 32.2273C68.197 32.3636 68.6288 32.4318 69.0909 32.4318C69.6288 32.4318 70.1117 32.3447 70.5398 32.1705C70.9678 31.9924 71.3068 31.7462 71.5568 31.4318C71.8068 31.1136 71.9318 30.7424 71.9318 30.3182C71.9318 29.9318 71.8239 29.6174 71.608 29.375C71.392 29.1326 71.108 28.9356 70.7557 28.7841C70.4034 28.6326 70.0227 28.5 69.6136 28.3864L68.1818 27.9773C67.2727 27.7159 66.553 27.3428 66.0227 26.858C65.4924 26.3731 65.2273 25.7386 65.2273 24.9545C65.2273 24.303 65.4034 23.7348 65.7557 23.25C66.1117 22.7614 66.589 22.3826 67.1875 22.1136C67.7898 21.8409 68.4621 21.7045 69.2045 21.7045C69.9545 21.7045 70.6212 21.839 71.2045 22.108C71.7879 22.3731 72.25 22.7367 72.5909 23.1989C72.9356 23.661 73.1174 24.1856 73.1364 24.7727H71.7727ZM78.9759 33.6818C78.188 33.6818 77.4967 33.4943 76.902 33.1193C76.3111 32.7443 75.849 32.2197 75.5156 31.5455C75.1861 30.8712 75.0213 30.0833 75.0213 29.1818C75.0213 28.2727 75.1861 27.4792 75.5156 26.8011C75.849 26.1231 76.3111 25.5966 76.902 25.2216C77.4967 24.8466 78.188 24.6591 78.9759 24.6591C79.7637 24.6591 80.4531 24.8466 81.044 25.2216C81.6387 25.5966 82.1009 26.1231 82.4304 26.8011C82.7637 27.4792 82.9304 28.2727 82.9304 29.1818C82.9304 30.0833 82.7637 30.8712 82.4304 31.5455C82.1009 32.2197 81.6387 32.7443 81.044 33.1193C80.4531 33.4943 79.7637 33.6818 78.9759 33.6818ZM78.9759 32.4773C79.5743 32.4773 80.0668 32.3239 80.4531 32.017C80.8395 31.7102 81.1255 31.3068 81.3111 30.8068C81.4967 30.3068 81.5895 29.7652 81.5895 29.1818C81.5895 28.5985 81.4967 28.0549 81.3111 27.5511C81.1255 27.0473 80.8395 26.6402 80.4531 26.3295C80.0668 26.0189 79.5743 25.8636 78.9759 25.8636C78.3774 25.8636 77.8849 26.0189 77.4986 26.3295C77.1122 26.6402 76.8262 27.0473 76.6406 27.5511C76.455 28.0549 76.3622 28.5985 76.3622 29.1818C76.3622 29.7652 76.455 30.3068 76.6406 30.8068C76.8262 31.3068 77.1122 31.7102 77.4986 32.017C77.8849 32.3239 78.3774 32.4773 78.9759 32.4773ZM84.9773 33.5V24.7727H86.3182V33.5H84.9773ZM85.6591 23.3182C85.3977 23.3182 85.1723 23.2292 84.983 23.0511C84.7973 22.8731 84.7045 22.6591 84.7045 22.4091C84.7045 22.1591 84.7973 21.9451 84.983 21.767C85.1723 21.589 85.3977 21.5 85.6591 21.5C85.9205 21.5 86.1439 21.589 86.3295 21.767C86.5189 21.9451 86.6136 22.1591 86.6136 22.4091C86.6136 22.6591 86.5189 22.8731 86.3295 23.0511C86.1439 23.2292 85.9205 23.3182 85.6591 23.3182ZM90.1151 21.8636V33.5H88.7741V21.8636H90.1151ZM96.6165 23.1136V21.8636H105.344V23.1136H101.685V33.5H100.276V23.1136H96.6165ZM109.73 33.6818C108.889 33.6818 108.164 33.4962 107.554 33.125C106.948 32.75 106.48 32.2273 106.151 31.5568C105.825 30.8826 105.662 30.0985 105.662 29.2045C105.662 28.3106 105.825 27.5227 106.151 26.8409C106.48 26.1553 106.938 25.6212 107.526 25.2386C108.116 24.8523 108.806 24.6591 109.594 24.6591C110.048 24.6591 110.497 24.7348 110.94 24.8864C111.384 25.0379 111.787 25.2841 112.151 25.625C112.514 25.9621 112.804 26.4091 113.02 26.9659C113.236 27.5227 113.344 28.2083 113.344 29.0227V29.5909H106.616V28.4318H111.98C111.98 27.9394 111.882 27.5 111.685 27.1136C111.491 26.7273 111.215 26.4223 110.855 26.1989C110.499 25.9754 110.079 25.8636 109.594 25.8636C109.06 25.8636 108.598 25.9962 108.207 26.2614C107.821 26.5227 107.524 26.8636 107.315 27.2841C107.107 27.7045 107.003 28.1553 107.003 28.6364V29.4091C107.003 30.0682 107.116 30.6269 107.344 31.0852C107.575 31.5398 107.895 31.8864 108.304 32.125C108.713 32.3598 109.188 32.4773 109.73 32.4773C110.082 32.4773 110.401 32.428 110.685 32.3295C110.973 32.2273 111.221 32.0758 111.429 31.875C111.637 31.6705 111.798 31.4167 111.912 31.1136L113.207 31.4773C113.071 31.9167 112.842 32.303 112.52 32.6364C112.198 32.9659 111.8 33.2235 111.327 33.4091C110.853 33.5909 110.321 33.6818 109.73 33.6818ZM121.565 26.7273L120.361 27.0682C120.285 26.8674 120.173 26.6723 120.026 26.483C119.882 26.2898 119.685 26.1307 119.435 26.0057C119.185 25.8807 118.865 25.8182 118.474 25.8182C117.94 25.8182 117.495 25.9413 117.139 26.1875C116.787 26.4299 116.611 26.7386 116.611 27.1136C116.611 27.447 116.732 27.7102 116.974 27.9034C117.217 28.0966 117.596 28.2576 118.111 28.3864L119.406 28.7045C120.187 28.8939 120.768 29.1837 121.151 29.5739C121.533 29.9602 121.724 30.4583 121.724 31.0682C121.724 31.5682 121.58 32.0152 121.293 32.4091C121.009 32.803 120.611 33.1136 120.099 33.3409C119.588 33.5682 118.993 33.6818 118.315 33.6818C117.425 33.6818 116.688 33.4886 116.105 33.1023C115.522 32.7159 115.152 32.1515 114.997 31.4091L116.27 31.0909C116.391 31.5606 116.62 31.9129 116.957 32.1477C117.298 32.3826 117.743 32.5 118.293 32.5C118.918 32.5 119.414 32.3674 119.781 32.1023C120.152 31.8333 120.338 31.5114 120.338 31.1364C120.338 30.8333 120.232 30.5795 120.02 30.375C119.808 30.1667 119.482 30.0114 119.043 29.9091L117.588 29.5682C116.789 29.3788 116.202 29.0852 115.827 28.6875C115.455 28.286 115.27 27.7841 115.27 27.1818C115.27 26.6894 115.408 26.2538 115.685 25.875C115.965 25.4962 116.346 25.1989 116.827 24.983C117.312 24.767 117.861 24.6591 118.474 24.6591C119.338 24.6591 120.016 24.8485 120.509 25.2273C121.005 25.6061 121.357 26.1061 121.565 26.7273ZM127.538 24.7727V25.9091H123.016V24.7727H127.538ZM124.334 22.6818H125.675V31C125.675 31.3788 125.73 31.6629 125.839 31.8523C125.953 32.0379 126.097 32.1629 126.271 32.2273C126.449 32.2879 126.637 32.3182 126.834 32.3182C126.982 32.3182 127.103 32.3106 127.197 32.2955C127.292 32.2765 127.368 32.2614 127.425 32.25L127.697 33.4545C127.607 33.4886 127.48 33.5227 127.317 33.5568C127.154 33.5947 126.947 33.6136 126.697 33.6136C126.319 33.6136 125.947 33.5322 125.584 33.3693C125.224 33.2064 124.925 32.9583 124.686 32.625C124.451 32.2917 124.334 31.8712 124.334 31.3636V22.6818ZM129.555 33.5V24.7727H130.896V33.5H129.555ZM130.237 23.3182C129.976 23.3182 129.75 23.2292 129.561 23.0511C129.375 22.8731 129.283 22.6591 129.283 22.4091C129.283 22.1591 129.375 21.9451 129.561 21.767C129.75 21.589 129.976 21.5 130.237 21.5C130.499 21.5 130.722 21.589 130.908 21.767C131.097 21.9451 131.192 22.1591 131.192 22.4091C131.192 22.6591 131.097 22.8731 130.908 23.0511C130.722 23.2292 130.499 23.3182 130.237 23.3182ZM134.693 28.25V33.5H133.352V24.7727H134.648V26.1364H134.761C134.966 25.6932 135.277 25.3371 135.693 25.0682C136.11 24.7955 136.648 24.6591 137.307 24.6591C137.898 24.6591 138.415 24.7803 138.858 25.0227C139.301 25.2614 139.646 25.625 139.892 26.1136C140.138 26.5985 140.261 27.2121 140.261 27.9545V33.5H138.92V28.0455C138.92 27.3598 138.742 26.8258 138.386 26.4432C138.03 26.0568 137.542 25.8636 136.92 25.8636C136.492 25.8636 136.11 25.9564 135.773 26.142C135.439 26.3277 135.176 26.5985 134.983 26.9545C134.79 27.3106 134.693 27.7424 134.693 28.25ZM146.234 36.9545C145.587 36.9545 145.03 36.8712 144.564 36.7045C144.098 36.5417 143.71 36.3258 143.399 36.0568C143.092 35.7917 142.848 35.5076 142.666 35.2045L143.734 34.4545C143.856 34.6136 144.009 34.7955 144.195 35C144.38 35.2083 144.634 35.3883 144.956 35.5398C145.282 35.6951 145.708 35.7727 146.234 35.7727C146.939 35.7727 147.52 35.6023 147.979 35.2614C148.437 34.9205 148.666 34.3864 148.666 33.6591V31.8864H148.553C148.454 32.0455 148.314 32.2424 148.132 32.4773C147.954 32.7083 147.696 32.9148 147.359 33.0966C147.026 33.2746 146.575 33.3636 146.007 33.3636C145.303 33.3636 144.67 33.197 144.109 32.8636C143.553 32.5303 143.111 32.0455 142.786 31.4091C142.464 30.7727 142.303 30 142.303 29.0909C142.303 28.197 142.46 27.4186 142.774 26.7557C143.089 26.089 143.526 25.5739 144.087 25.2102C144.647 24.8428 145.295 24.6591 146.03 24.6591C146.598 24.6591 147.049 24.7538 147.382 24.9432C147.719 25.1288 147.977 25.3409 148.155 25.5795C148.337 25.8144 148.477 26.0076 148.575 26.1591H148.712V24.7727H150.007V33.75C150.007 34.5 149.837 35.1098 149.496 35.5795C149.159 36.053 148.704 36.3996 148.132 36.6193C147.564 36.8428 146.931 36.9545 146.234 36.9545ZM146.189 32.1591C146.727 32.1591 147.181 32.036 147.553 31.7898C147.924 31.5436 148.206 31.1894 148.399 30.7273C148.592 30.2652 148.689 29.7121 148.689 29.0682C148.689 28.4394 148.594 27.8845 148.405 27.4034C148.215 26.9223 147.935 26.5455 147.564 26.2727C147.193 26 146.734 25.8636 146.189 25.8636C145.621 25.8636 145.147 26.0076 144.768 26.2955C144.393 26.5833 144.111 26.9697 143.922 27.4545C143.736 27.9394 143.643 28.4773 143.643 29.0682C143.643 29.6742 143.738 30.2102 143.928 30.6761C144.121 31.1383 144.405 31.5019 144.78 31.767C145.159 32.0284 145.628 32.1591 146.189 32.1591Z" fill="#2D2931"/>
</svg>
