<svg width="285" height="56" viewBox="0 0 285 56" fill="none" xmlns="http://www.w3.org/2000/svg">
<path d="M36 20L30 26M30 26H33.75M30 26V22.25" stroke="#2D2931" stroke-width="1.5" stroke-linecap="round" stroke-linejoin="round"/>
<path d="M20 36L26 30M26 30H22.25M26 30V33.75" stroke="#2D2931" stroke-width="1.5" stroke-linecap="round" stroke-linejoin="round"/>
<path d="M18 28C18 23.286 18 20.9289 19.4645 19.4645C20.9289 18 23.286 18 28 18C32.714 18 35.0711 18 36.5355 19.4645C38 20.9289 38 23.286 38 28C38 32.714 38 35.0711 36.5355 36.5355C35.0711 38 32.714 38 28 38C23.286 38 20.9289 38 19.4645 36.5355C18 35.0711 18 32.714 18 28Z" stroke="#2D2931" stroke-width="1.5"/>
<path d="M64.7727 23.1136V21.8636H73.5V23.1136H69.8409V33.5H68.4318V23.1136H64.7727ZM74.5866 33.5V24.7727H75.8821V26.0909H75.973C76.1321 25.6591 76.42 25.3087 76.8366 25.0398C77.2533 24.7708 77.723 24.6364 78.2457 24.6364C78.3442 24.6364 78.4673 24.6383 78.6151 24.642C78.7628 24.6458 78.8745 24.6515 78.9503 24.6591V26.0227C78.9048 26.0114 78.8007 25.9943 78.6378 25.9716C78.4787 25.9451 78.3101 25.9318 78.1321 25.9318C77.7079 25.9318 77.3291 26.0208 76.9957 26.1989C76.6662 26.3731 76.4048 26.6155 76.2116 26.9261C76.0223 27.233 75.9276 27.5833 75.9276 27.9773V33.5H74.5866ZM83.108 33.7045C82.5549 33.7045 82.053 33.6004 81.6023 33.392C81.1515 33.1799 80.7936 32.875 80.5284 32.4773C80.2633 32.0758 80.1307 31.5909 80.1307 31.0227C80.1307 30.5227 80.2292 30.1174 80.4261 29.8068C80.6231 29.4924 80.8864 29.2462 81.2159 29.0682C81.5455 28.8902 81.9091 28.7576 82.3068 28.6705C82.7083 28.5795 83.1117 28.5076 83.517 28.4545C84.0473 28.3864 84.4773 28.3352 84.8068 28.3011C85.1402 28.2633 85.3826 28.2008 85.5341 28.1136C85.6894 28.0265 85.767 27.875 85.767 27.6591V27.6136C85.767 27.053 85.6136 26.6174 85.3068 26.3068C85.0038 25.9962 84.5436 25.8409 83.9261 25.8409C83.286 25.8409 82.7841 25.9811 82.4205 26.2614C82.0568 26.5417 81.8011 26.8409 81.6534 27.1591L80.3807 26.7045C80.608 26.1742 80.911 25.7614 81.2898 25.4659C81.6723 25.1667 82.089 24.9583 82.5398 24.8409C82.9943 24.7197 83.4413 24.6591 83.8807 24.6591C84.161 24.6591 84.483 24.6932 84.8466 24.7614C85.214 24.8258 85.5682 24.9602 85.9091 25.1648C86.2538 25.3693 86.5398 25.678 86.767 26.0909C86.9943 26.5038 87.108 27.0568 87.108 27.75V33.5H85.767V32.3182H85.6989C85.608 32.5076 85.4564 32.7102 85.2443 32.9261C85.0322 33.142 84.75 33.3258 84.3977 33.4773C84.0455 33.6288 83.6155 33.7045 83.108 33.7045ZM83.3125 32.5C83.8428 32.5 84.2898 32.3958 84.6534 32.1875C85.0208 31.9792 85.2973 31.7102 85.483 31.3807C85.6723 31.0511 85.767 30.7045 85.767 30.3409V29.1136C85.7102 29.1818 85.5852 29.2443 85.392 29.3011C85.2027 29.3542 84.983 29.4015 84.733 29.4432C84.4867 29.4811 84.2462 29.5152 84.0114 29.5455C83.7803 29.572 83.5928 29.5947 83.4489 29.6136C83.1004 29.6591 82.7746 29.733 82.4716 29.8352C82.1723 29.9337 81.9299 30.0833 81.7443 30.2841C81.5625 30.4811 81.4716 30.75 81.4716 31.0909C81.4716 31.5568 81.6439 31.9091 81.9886 32.1477C82.3371 32.3826 82.7784 32.5 83.3125 32.5ZM90.8963 28.25V33.5H89.5554V24.7727H90.8509V26.1364H90.9645C91.169 25.6932 91.4796 25.3371 91.8963 25.0682C92.313 24.7955 92.8509 24.6591 93.5099 24.6591C94.1009 24.6591 94.6179 24.7803 95.0611 25.0227C95.5043 25.2614 95.849 25.625 96.0952 26.1136C96.3414 26.5985 96.4645 27.2121 96.4645 27.9545V33.5H95.1236V28.0455C95.1236 27.3598 94.9455 26.8258 94.5895 26.4432C94.2334 26.0568 93.7448 25.8636 93.1236 25.8636C92.6955 25.8636 92.313 25.9564 91.9759 26.142C91.6425 26.3277 91.3793 26.5985 91.1861 26.9545C90.9929 27.3106 90.8963 27.7424 90.8963 28.25ZM105.097 26.7273L103.892 27.0682C103.816 26.8674 103.705 26.6723 103.557 26.483C103.413 26.2898 103.216 26.1307 102.966 26.0057C102.716 25.8807 102.396 25.8182 102.006 25.8182C101.472 25.8182 101.027 25.9413 100.67 26.1875C100.318 26.4299 100.142 26.7386 100.142 27.1136C100.142 27.447 100.263 27.7102 100.506 27.9034C100.748 28.0966 101.127 28.2576 101.642 28.3864L102.938 28.7045C103.718 28.8939 104.299 29.1837 104.682 29.5739C105.064 29.9602 105.256 30.4583 105.256 31.0682C105.256 31.5682 105.112 32.0152 104.824 32.4091C104.54 32.803 104.142 33.1136 103.631 33.3409C103.119 33.5682 102.525 33.6818 101.847 33.6818C100.956 33.6818 100.22 33.4886 99.6364 33.1023C99.053 32.7159 98.6837 32.1515 98.5284 31.4091L99.8011 31.0909C99.9223 31.5606 100.152 31.9129 100.489 32.1477C100.83 32.3826 101.275 32.5 101.824 32.5C102.449 32.5 102.945 32.3674 103.312 32.1023C103.684 31.8333 103.869 31.5114 103.869 31.1364C103.869 30.8333 103.763 30.5795 103.551 30.375C103.339 30.1667 103.013 30.0114 102.574 29.9091L101.119 29.5682C100.32 29.3788 99.733 29.0852 99.358 28.6875C98.9867 28.286 98.8011 27.7841 98.8011 27.1818C98.8011 26.6894 98.9394 26.2538 99.2159 25.875C99.4962 25.4962 99.8769 25.1989 100.358 24.983C100.843 24.767 101.392 24.6591 102.006 24.6591C102.869 24.6591 103.547 24.8485 104.04 25.2273C104.536 25.6061 104.888 26.1061 105.097 26.7273ZM109.842 33.7045C109.289 33.7045 108.787 33.6004 108.337 33.392C107.886 33.1799 107.528 32.875 107.263 32.4773C106.998 32.0758 106.865 31.5909 106.865 31.0227C106.865 30.5227 106.964 30.1174 107.161 29.8068C107.357 29.4924 107.621 29.2462 107.95 29.0682C108.28 28.8902 108.643 28.7576 109.041 28.6705C109.443 28.5795 109.846 28.5076 110.251 28.4545C110.782 28.3864 111.212 28.3352 111.541 28.3011C111.875 28.2633 112.117 28.2008 112.268 28.1136C112.424 28.0265 112.501 27.875 112.501 27.6591V27.6136C112.501 27.053 112.348 26.6174 112.041 26.3068C111.738 25.9962 111.278 25.8409 110.661 25.8409C110.02 25.8409 109.518 25.9811 109.155 26.2614C108.791 26.5417 108.536 26.8409 108.388 27.1591L107.115 26.7045C107.342 26.1742 107.645 25.7614 108.024 25.4659C108.407 25.1667 108.823 24.9583 109.274 24.8409C109.729 24.7197 110.176 24.6591 110.615 24.6591C110.895 24.6591 111.217 24.6932 111.581 24.7614C111.948 24.8258 112.303 24.9602 112.643 25.1648C112.988 25.3693 113.274 25.678 113.501 26.0909C113.729 26.5038 113.842 27.0568 113.842 27.75V33.5H112.501V32.3182H112.433C112.342 32.5076 112.191 32.7102 111.979 32.9261C111.767 33.142 111.484 33.3258 111.132 33.4773C110.78 33.6288 110.35 33.7045 109.842 33.7045ZM110.047 32.5C110.577 32.5 111.024 32.3958 111.388 32.1875C111.755 31.9792 112.032 31.7102 112.217 31.3807C112.407 31.0511 112.501 30.7045 112.501 30.3409V29.1136C112.445 29.1818 112.32 29.2443 112.126 29.3011C111.937 29.3542 111.717 29.4015 111.467 29.4432C111.221 29.4811 110.981 29.5152 110.746 29.5455C110.515 29.572 110.327 29.5947 110.183 29.6136C109.835 29.6591 109.509 29.733 109.206 29.8352C108.907 29.9337 108.664 30.0833 108.479 30.2841C108.297 30.4811 108.206 30.75 108.206 31.0909C108.206 31.5568 108.378 31.9091 108.723 32.1477C109.071 32.3826 109.513 32.5 110.047 32.5ZM119.835 33.6818C119.017 33.6818 118.313 33.4886 117.722 33.1023C117.131 32.7159 116.676 32.1837 116.358 31.5057C116.04 30.8277 115.881 30.053 115.881 29.1818C115.881 28.2955 116.044 27.5133 116.369 26.8352C116.699 26.1534 117.157 25.6212 117.744 25.2386C118.335 24.8523 119.025 24.6591 119.812 24.6591C120.426 24.6591 120.979 24.7727 121.472 25C121.964 25.2273 122.367 25.5455 122.682 25.9545C122.996 26.3636 123.191 26.8409 123.267 27.3864H121.926C121.824 26.9886 121.597 26.6364 121.244 26.3295C120.896 26.0189 120.426 25.8636 119.835 25.8636C119.313 25.8636 118.854 26 118.46 26.2727C118.07 26.5417 117.765 26.9223 117.545 27.4148C117.33 27.9034 117.222 28.4773 117.222 29.1364C117.222 29.8106 117.328 30.3977 117.54 30.8977C117.756 31.3977 118.059 31.786 118.449 32.0625C118.843 32.339 119.305 32.4773 119.835 32.4773C120.184 32.4773 120.5 32.4167 120.784 32.2955C121.068 32.1742 121.309 32 121.506 31.7727C121.703 31.5455 121.843 31.2727 121.926 30.9545H123.267C123.191 31.4697 123.004 31.9337 122.705 32.3466C122.409 32.7557 122.017 33.0814 121.528 33.3239C121.044 33.5625 120.479 33.6818 119.835 33.6818ZM129.023 24.7727V25.9091H124.5V24.7727H129.023ZM125.818 22.6818H127.159V31C127.159 31.3788 127.214 31.6629 127.324 31.8523C127.438 32.0379 127.581 32.1629 127.756 32.2273C127.934 32.2879 128.121 32.3182 128.318 32.3182C128.466 32.3182 128.587 32.3106 128.682 32.2955C128.777 32.2765 128.852 32.2614 128.909 32.25L129.182 33.4545C129.091 33.4886 128.964 33.5227 128.801 33.5568C128.638 33.5947 128.432 33.6136 128.182 33.6136C127.803 33.6136 127.432 33.5322 127.068 33.3693C126.708 33.2064 126.409 32.9583 126.17 32.625C125.936 32.2917 125.818 31.8712 125.818 31.3636V22.6818ZM131.04 33.5V24.7727H132.381V33.5H131.04ZM131.722 23.3182C131.46 23.3182 131.235 23.2292 131.045 23.0511C130.86 22.8731 130.767 22.6591 130.767 22.4091C130.767 22.1591 130.86 21.9451 131.045 21.767C131.235 21.589 131.46 21.5 131.722 21.5C131.983 21.5 132.206 21.589 132.392 21.767C132.581 21.9451 132.676 22.1591 132.676 22.4091C132.676 22.6591 132.581 22.8731 132.392 23.0511C132.206 23.2292 131.983 23.3182 131.722 23.3182ZM138.382 33.6818C137.594 33.6818 136.903 33.4943 136.308 33.1193C135.717 32.7443 135.255 32.2197 134.922 31.5455C134.592 30.8712 134.428 30.0833 134.428 29.1818C134.428 28.2727 134.592 27.4792 134.922 26.8011C135.255 26.1231 135.717 25.5966 136.308 25.2216C136.903 24.8466 137.594 24.6591 138.382 24.6591C139.17 24.6591 139.859 24.8466 140.45 25.2216C141.045 25.5966 141.507 26.1231 141.837 26.8011C142.17 27.4792 142.337 28.2727 142.337 29.1818C142.337 30.0833 142.17 30.8712 141.837 31.5455C141.507 32.2197 141.045 32.7443 140.45 33.1193C139.859 33.4943 139.17 33.6818 138.382 33.6818ZM138.382 32.4773C138.981 32.4773 139.473 32.3239 139.859 32.017C140.246 31.7102 140.532 31.3068 140.717 30.8068C140.903 30.3068 140.996 29.7652 140.996 29.1818C140.996 28.5985 140.903 28.0549 140.717 27.5511C140.532 27.0473 140.246 26.6402 139.859 26.3295C139.473 26.0189 138.981 25.8636 138.382 25.8636C137.784 25.8636 137.291 26.0189 136.905 26.3295C136.518 26.6402 136.232 27.0473 136.047 27.5511C135.861 28.0549 135.768 28.5985 135.768 29.1818C135.768 29.7652 135.861 30.3068 136.047 30.8068C136.232 31.3068 136.518 31.7102 136.905 32.017C137.291 32.3239 137.784 32.4773 138.382 32.4773ZM145.724 28.25V33.5H144.384V24.7727H145.679V26.1364H145.793C145.997 25.6932 146.308 25.3371 146.724 25.0682C147.141 24.7955 147.679 24.6591 148.338 24.6591C148.929 24.6591 149.446 24.7803 149.889 25.0227C150.332 25.2614 150.677 25.625 150.923 26.1136C151.17 26.5985 151.293 27.2121 151.293 27.9545V33.5H149.952V28.0455C149.952 27.3598 149.774 26.8258 149.418 26.4432C149.062 26.0568 148.573 25.8636 147.952 25.8636C147.524 25.8636 147.141 25.9564 146.804 26.142C146.471 26.3277 146.207 26.5985 146.014 26.9545C145.821 27.3106 145.724 27.7424 145.724 28.25ZM159.925 26.7273L158.72 27.0682C158.644 26.8674 158.533 26.6723 158.385 26.483C158.241 26.2898 158.044 26.1307 157.794 26.0057C157.544 25.8807 157.224 25.8182 156.834 25.8182C156.3 25.8182 155.855 25.9413 155.499 26.1875C155.146 26.4299 154.97 26.7386 154.97 27.1136C154.97 27.447 155.091 27.7102 155.334 27.9034C155.576 28.0966 155.955 28.2576 156.47 28.3864L157.766 28.7045C158.546 28.8939 159.127 29.1837 159.51 29.5739C159.893 29.9602 160.084 30.4583 160.084 31.0682C160.084 31.5682 159.94 32.0152 159.652 32.4091C159.368 32.803 158.97 33.1136 158.459 33.3409C157.947 33.5682 157.353 33.6818 156.675 33.6818C155.785 33.6818 155.048 33.4886 154.464 33.1023C153.881 32.7159 153.512 32.1515 153.357 31.4091L154.629 31.0909C154.75 31.5606 154.98 31.9129 155.317 32.1477C155.658 32.3826 156.103 32.5 156.652 32.5C157.277 32.5 157.773 32.3674 158.141 32.1023C158.512 31.8333 158.697 31.5114 158.697 31.1364C158.697 30.8333 158.591 30.5795 158.379 30.375C158.167 30.1667 157.841 30.0114 157.402 29.9091L155.947 29.5682C155.148 29.3788 154.561 29.0852 154.186 28.6875C153.815 28.286 153.629 27.7841 153.629 27.1818C153.629 26.6894 153.768 26.2538 154.044 25.875C154.324 25.4962 154.705 25.1989 155.186 24.983C155.671 24.767 156.22 24.6591 156.834 24.6591C157.697 24.6591 158.375 24.8485 158.868 25.2273C159.364 25.6061 159.716 26.1061 159.925 26.7273Z" fill="#2D2931"/>
</svg>
