<svg width="218" height="48" viewBox="0 0 218 48" fill="none" xmlns="http://www.w3.org/2000/svg">
<rect y="0.5" width="218" height="47" rx="12" fill="#2D2931"/>
<path d="M34.2955 17.8636L37.5341 27.3409H37.6648L40.9034 17.8636H42.8011L38.6136 29.5H36.5852L32.3977 17.8636H34.2955ZM44.3452 29.5V20.7727H46.044V29.5H44.3452ZM45.2031 19.4261C44.9077 19.4261 44.6539 19.3277 44.4418 19.1307C44.2334 18.9299 44.1293 18.6913 44.1293 18.4148C44.1293 18.1345 44.2334 17.8958 44.4418 17.6989C44.6539 17.4981 44.9077 17.3977 45.2031 17.3977C45.4986 17.3977 45.7505 17.4981 45.9588 17.6989C46.1709 17.8958 46.277 18.1345 46.277 18.4148C46.277 18.6913 46.1709 18.9299 45.9588 19.1307C45.7505 19.3277 45.4986 19.4261 45.2031 19.4261ZM52.0909 29.6761C51.2311 29.6761 50.4905 29.4924 49.8693 29.125C49.2519 28.7538 48.7746 28.233 48.4375 27.5625C48.1042 26.8883 47.9375 26.0985 47.9375 25.1932C47.9375 24.2992 48.1042 23.5114 48.4375 22.8295C48.7746 22.1477 49.2443 21.6155 49.8466 21.233C50.4527 20.8504 51.161 20.6591 51.9716 20.6591C52.464 20.6591 52.9413 20.7405 53.4034 20.9034C53.8655 21.0663 54.2803 21.322 54.6477 21.6705C55.0152 22.0189 55.3049 22.4716 55.517 23.0284C55.7292 23.5814 55.8352 24.2538 55.8352 25.0455V25.6477H48.8977V24.375H54.1705C54.1705 23.928 54.0795 23.5322 53.8977 23.1875C53.7159 22.839 53.4602 22.5644 53.1307 22.3636C52.8049 22.1629 52.4223 22.0625 51.983 22.0625C51.5057 22.0625 51.089 22.1799 50.733 22.4148C50.3807 22.6458 50.108 22.9489 49.9148 23.3239C49.7254 23.6951 49.6307 24.0985 49.6307 24.5341V25.5284C49.6307 26.1117 49.733 26.608 49.9375 27.017C50.1458 27.4261 50.4356 27.7386 50.8068 27.9545C51.178 28.1667 51.6117 28.2727 52.108 28.2727C52.4299 28.2727 52.7235 28.2273 52.9886 28.1364C53.2538 28.0417 53.483 27.9015 53.6761 27.7159C53.8693 27.5303 54.017 27.3011 54.1193 27.0284L55.7273 27.3182C55.5985 27.7917 55.3674 28.2064 55.0341 28.5625C54.7045 28.9148 54.2898 29.1894 53.7898 29.3864C53.2936 29.5795 52.7273 29.6761 52.0909 29.6761ZM59.5966 29.5L57.0284 20.7727H58.7841L60.4943 27.1818H60.5795L62.2955 20.7727H64.0511L65.7557 27.1534H65.8409L67.5398 20.7727H69.2955L66.733 29.5H65L63.2273 23.1989H63.0966L61.3239 29.5H59.5966ZM75.142 29.5V20.7727H76.8409V29.5H75.142ZM76 19.4261C75.7045 19.4261 75.4508 19.3277 75.2386 19.1307C75.0303 18.9299 74.9261 18.6913 74.9261 18.4148C74.9261 18.1345 75.0303 17.8958 75.2386 17.6989C75.4508 17.4981 75.7045 17.3977 76 17.3977C76.2955 17.3977 76.5473 17.4981 76.7557 17.6989C76.9678 17.8958 77.0739 18.1345 77.0739 18.4148C77.0739 18.6913 76.9678 18.9299 76.7557 19.1307C76.5473 19.3277 76.2955 19.4261 76 19.4261ZM80.8253 24.3182V29.5H79.1264V20.7727H80.7571V22.1932H80.8651C81.0658 21.7311 81.3802 21.3598 81.8082 21.0795C82.2401 20.7992 82.7836 20.6591 83.4389 20.6591C84.0336 20.6591 84.5545 20.7841 85.0014 21.0341C85.4484 21.2803 85.795 21.6477 86.0412 22.1364C86.2874 22.625 86.4105 23.2292 86.4105 23.9489V29.5H84.7116V24.1534C84.7116 23.5208 84.5469 23.0265 84.2173 22.6705C83.8878 22.3106 83.4351 22.1307 82.8594 22.1307C82.4654 22.1307 82.1151 22.2159 81.8082 22.3864C81.5052 22.5568 81.2647 22.8068 81.0866 23.1364C80.9124 23.4621 80.8253 23.8561 80.8253 24.3182ZM102.724 21.6477H100.952C100.884 21.2689 100.757 20.9356 100.571 20.6477C100.385 20.3598 100.158 20.1155 99.8892 19.9148C99.6203 19.714 99.3191 19.5625 98.9858 19.4602C98.6563 19.358 98.3059 19.3068 97.9347 19.3068C97.2642 19.3068 96.6638 19.4754 96.1335 19.8125C95.607 20.1496 95.1903 20.6439 94.8835 21.2955C94.5805 21.947 94.429 22.7424 94.429 23.6818C94.429 24.6288 94.5805 25.428 94.8835 26.0795C95.1903 26.7311 95.6089 27.2235 96.1392 27.5568C96.6695 27.8902 97.2661 28.0568 97.929 28.0568C98.2964 28.0568 98.6449 28.0076 98.9744 27.9091C99.3078 27.8068 99.6089 27.6572 99.8778 27.4602C100.147 27.2633 100.374 27.0227 100.56 26.7386C100.749 26.4508 100.88 26.1212 100.952 25.75L102.724 25.7557C102.63 26.3277 102.446 26.8542 102.173 27.3352C101.904 27.8125 101.558 28.2254 101.134 28.5739C100.713 28.9186 100.232 29.1856 99.6903 29.375C99.1487 29.5644 98.5578 29.6591 97.9176 29.6591C96.91 29.6591 96.0123 29.4205 95.2244 28.9432C94.4366 28.4621 93.8153 27.7746 93.3608 26.8807C92.91 25.9867 92.6847 24.9205 92.6847 23.6818C92.6847 22.4394 92.9119 21.3731 93.3665 20.483C93.821 19.589 94.4422 18.9034 95.2301 18.4261C96.018 17.9451 96.9138 17.7045 97.9176 17.7045C98.535 17.7045 99.1108 17.7936 99.6449 17.9716C100.183 18.1458 100.666 18.4034 101.094 18.7443C101.522 19.0814 101.876 19.4943 102.156 19.983C102.437 20.4678 102.626 21.0227 102.724 21.6477ZM107.229 29.6932C106.676 29.6932 106.176 29.5909 105.729 29.3864C105.282 29.178 104.928 28.8769 104.666 28.483C104.409 28.089 104.28 27.6061 104.28 27.0341C104.28 26.5417 104.375 26.1364 104.564 25.8182C104.753 25.5 105.009 25.2481 105.331 25.0625C105.653 24.8769 106.013 24.7367 106.411 24.642C106.808 24.5473 107.214 24.4754 107.626 24.4261C108.149 24.3655 108.573 24.3163 108.899 24.2784C109.225 24.2367 109.462 24.1705 109.609 24.0795C109.757 23.9886 109.831 23.8409 109.831 23.6364V23.5966C109.831 23.1004 109.691 22.7159 109.411 22.4432C109.134 22.1705 108.721 22.0341 108.172 22.0341C107.6 22.0341 107.149 22.161 106.82 22.4148C106.494 22.6648 106.268 22.9432 106.143 23.25L104.547 22.8864C104.736 22.3561 105.013 21.928 105.376 21.6023C105.744 21.2727 106.166 21.0341 106.643 20.8864C107.121 20.7348 107.623 20.6591 108.149 20.6591C108.498 20.6591 108.867 20.7008 109.257 20.7841C109.651 20.8636 110.018 21.0114 110.359 21.2273C110.704 21.4432 110.986 21.7519 111.206 22.1534C111.426 22.5511 111.536 23.0682 111.536 23.7045V29.5H109.876V28.3068H109.808C109.698 28.5265 109.534 28.7424 109.314 28.9545C109.094 29.1667 108.812 29.3428 108.467 29.483C108.123 29.6231 107.71 29.6932 107.229 29.6932ZM107.598 28.3295C108.068 28.3295 108.469 28.2367 108.803 28.0511C109.14 27.8655 109.395 27.6231 109.57 27.3239C109.748 27.0208 109.837 26.697 109.837 26.3523V25.2273C109.776 25.2879 109.659 25.3447 109.484 25.3977C109.314 25.447 109.119 25.4905 108.899 25.5284C108.679 25.5625 108.465 25.5947 108.257 25.625C108.049 25.6515 107.875 25.6742 107.734 25.6932C107.405 25.7348 107.104 25.8049 106.831 25.9034C106.562 26.0019 106.346 26.1439 106.183 26.3295C106.024 26.5114 105.945 26.7538 105.945 27.0568C105.945 27.4773 106.1 27.7955 106.411 28.0114C106.721 28.2235 107.117 28.3295 107.598 28.3295ZM115.497 17.8636V29.5H113.798V17.8636H115.497ZM121.544 29.6761C120.684 29.6761 119.944 29.4924 119.322 29.125C118.705 28.7538 118.228 28.233 117.891 27.5625C117.557 26.8883 117.391 26.0985 117.391 25.1932C117.391 24.2992 117.557 23.5114 117.891 22.8295C118.228 22.1477 118.697 21.6155 119.3 21.233C119.906 20.8504 120.614 20.6591 121.425 20.6591C121.917 20.6591 122.394 20.7405 122.857 20.9034C123.319 21.0663 123.733 21.322 124.101 21.6705C124.468 22.0189 124.758 22.4716 124.97 23.0284C125.182 23.5814 125.288 24.2538 125.288 25.0455V25.6477H118.351V24.375H123.624C123.624 23.928 123.533 23.5322 123.351 23.1875C123.169 22.839 122.913 22.5644 122.584 22.3636C122.258 22.1629 121.875 22.0625 121.436 22.0625C120.959 22.0625 120.542 22.1799 120.186 22.4148C119.834 22.6458 119.561 22.9489 119.368 23.3239C119.179 23.6951 119.084 24.0985 119.084 24.5341V25.5284C119.084 26.1117 119.186 26.608 119.391 27.017C119.599 27.4261 119.889 27.7386 120.26 27.9545C120.631 28.1667 121.065 28.2727 121.561 28.2727C121.883 28.2727 122.177 28.2273 122.442 28.1364C122.707 28.0417 122.936 27.9015 123.129 27.7159C123.322 27.5303 123.47 27.3011 123.572 27.0284L125.18 27.3182C125.052 27.7917 124.821 28.2064 124.487 28.5625C124.158 28.9148 123.743 29.1894 123.243 29.3864C122.747 29.5795 122.18 29.6761 121.544 29.6761ZM128.872 24.3182V29.5H127.173V20.7727H128.804V22.1932H128.912C129.113 21.7311 129.427 21.3598 129.855 21.0795C130.287 20.7992 130.83 20.6591 131.486 20.6591C132.08 20.6591 132.601 20.7841 133.048 21.0341C133.495 21.2803 133.842 21.6477 134.088 22.1364C134.334 22.625 134.457 23.2292 134.457 23.9489V29.5H132.759V24.1534C132.759 23.5208 132.594 23.0265 132.264 22.6705C131.935 22.3106 131.482 22.1307 130.906 22.1307C130.512 22.1307 130.162 22.2159 129.855 22.3864C129.552 22.5568 129.312 22.8068 129.134 23.1364C128.959 23.4621 128.872 23.8561 128.872 24.3182ZM140.003 29.6705C139.298 29.6705 138.67 29.4905 138.116 29.1307C137.567 28.767 137.135 28.25 136.821 27.5795C136.51 26.9053 136.355 26.0966 136.355 25.1534C136.355 24.2102 136.512 23.4034 136.827 22.733C137.145 22.0625 137.58 21.5492 138.134 21.1932C138.687 20.8371 139.313 20.6591 140.014 20.6591C140.556 20.6591 140.991 20.75 141.321 20.9318C141.654 21.1098 141.912 21.3182 142.094 21.5568C142.279 21.7955 142.423 22.0057 142.526 22.1875H142.628V17.8636H144.327V29.5H142.668V28.142H142.526C142.423 28.3277 142.276 28.5398 142.082 28.7784C141.893 29.017 141.632 29.2254 141.298 29.4034C140.965 29.5814 140.533 29.6705 140.003 29.6705ZM140.378 28.2216C140.866 28.2216 141.279 28.0928 141.616 27.8352C141.957 27.5739 142.215 27.2121 142.389 26.75C142.567 26.2879 142.656 25.75 142.656 25.1364C142.656 24.5303 142.569 24 142.395 23.5455C142.221 23.0909 141.965 22.7367 141.628 22.483C141.291 22.2292 140.874 22.1023 140.378 22.1023C139.866 22.1023 139.44 22.2348 139.099 22.5C138.759 22.7652 138.501 23.1269 138.327 23.5852C138.156 24.0436 138.071 24.5606 138.071 25.1364C138.071 25.7197 138.158 26.2443 138.332 26.7102C138.507 27.1761 138.764 27.5455 139.105 27.8182C139.45 28.0871 139.874 28.2216 140.378 28.2216ZM150.513 29.6761C149.653 29.6761 148.912 29.4924 148.291 29.125C147.674 28.7538 147.196 28.233 146.859 27.5625C146.526 26.8883 146.359 26.0985 146.359 25.1932C146.359 24.2992 146.526 23.5114 146.859 22.8295C147.196 22.1477 147.666 21.6155 148.268 21.233C148.875 20.8504 149.583 20.6591 150.393 20.6591C150.886 20.6591 151.363 20.7405 151.825 20.9034C152.287 21.0663 152.702 21.322 153.07 21.6705C153.437 22.0189 153.727 22.4716 153.939 23.0284C154.151 23.5814 154.257 24.2538 154.257 25.0455V25.6477H147.32V24.375H152.592C152.592 23.928 152.501 23.5322 152.32 23.1875C152.138 22.839 151.882 22.5644 151.553 22.3636C151.227 22.1629 150.844 22.0625 150.405 22.0625C149.928 22.0625 149.511 22.1799 149.155 22.4148C148.803 22.6458 148.53 22.9489 148.337 23.3239C148.147 23.6951 148.053 24.0985 148.053 24.5341V25.5284C148.053 26.1117 148.155 26.608 148.359 27.017C148.568 27.4261 148.857 27.7386 149.229 27.9545C149.6 28.1667 150.034 28.2727 150.53 28.2727C150.852 28.2727 151.145 28.2273 151.411 28.1364C151.676 28.0417 151.905 27.9015 152.098 27.7159C152.291 27.5303 152.439 27.3011 152.541 27.0284L154.149 27.3182C154.02 27.7917 153.789 28.2064 153.456 28.5625C153.126 28.9148 152.712 29.1894 152.212 29.3864C151.715 29.5795 151.149 29.6761 150.513 29.6761ZM156.142 29.5V20.7727H157.784V22.1591H157.875C158.034 21.6894 158.314 21.3201 158.716 21.0511C159.121 20.7784 159.58 20.642 160.091 20.642C160.197 20.642 160.322 20.6458 160.466 20.6534C160.614 20.661 160.729 20.6705 160.812 20.6818V22.3068C160.744 22.2879 160.623 22.267 160.449 22.2443C160.275 22.2178 160.1 22.2045 159.926 22.2045C159.525 22.2045 159.167 22.2898 158.852 22.4602C158.542 22.6269 158.295 22.8598 158.114 23.1591C157.932 23.4545 157.841 23.7917 157.841 24.1705V29.5H156.142Z" fill="#FAFAFA"/>
<g clip-path="url(#clip0_2914_53489)">
<path d="M182 22.5L178 26.5L174 22.5" stroke="#FAFAFA" stroke-width="0.75" stroke-linecap="round" stroke-linejoin="round"/>
</g>
<defs>
<clipPath id="clip0_2914_53489">
<rect width="16" height="16" fill="white" transform="translate(170 16)"/>
</clipPath>
</defs>
</svg>
