<svg width="49" height="48" viewBox="0 0 49 48" fill="none" xmlns="http://www.w3.org/2000/svg">
<rect x="1.48975" y="0.5" width="46.0204" height="47" rx="23.0102" stroke="#48A244"/>
<path d="M21.802 26.8404L27.8045 20.8379" stroke="#48A244" stroke-width="1.5" stroke-linecap="round" stroke-linejoin="round"/>
<path d="M23.302 18.9726L26.1213 16.159C26.9679 15.3261 28.1093 14.8614 29.2969 14.8662C30.4845 14.8711 31.6221 15.345 32.4619 16.1848C33.3017 17.0246 33.7756 18.1621 33.7804 19.3498C33.7853 20.5374 33.3206 21.6788 32.4877 22.5254L29.6684 25.34" stroke="#48A244" stroke-width="1.5" stroke-linecap="round" stroke-linejoin="round"/>
<path d="M19.936 22.3389L17.1223 25.1582C16.2894 26.0048 15.8248 27.1462 15.8296 28.3338C15.8345 29.5214 16.3084 30.659 17.1482 31.4988C17.9879 32.3385 19.1255 32.8124 20.3131 32.8173C21.5007 32.8221 22.6422 32.3575 23.4887 31.5246L26.3034 28.7053" stroke="#48A244" stroke-width="1.5" stroke-linecap="round" stroke-linejoin="round"/>
</svg>
